<svg id="cancel" xmlns="http://www.w3.org/2000/svg" width="18" height="18" viewBox="0 0 18 18">
  <path id="Shape" d="M9,18A8.975,8.975,0,0,1,0,9,8.975,8.975,0,0,1,9,0a8.975,8.975,0,0,1,9,9,8.975,8.975,0,0,1-9,9Zm.021-7.752a.2.2,0,0,1,.143.061l3.068,3.068a.37.37,0,0,0,.286.122.44.44,0,0,0,.286-.122l.573-.573a.4.4,0,0,0,0-.572L10.309,9.164a.231.231,0,0,1-.059-.194.119.119,0,0,1,.059-.093L13.378,5.81a.4.4,0,0,0,0-.573L12.8,4.664a.371.371,0,0,0-.286-.123.44.44,0,0,0-.286.123L9.164,7.732a.2.2,0,0,1-.286,0L5.81,4.664a.395.395,0,0,0-.573,0l-.572.572a.395.395,0,0,0,0,.573L7.732,8.878a.2.2,0,0,1,0,.286L4.664,12.232a.394.394,0,0,0,0,.572l.572.573a.37.37,0,0,0,.286.122.441.441,0,0,0,.287-.122l3.068-3.068A.2.2,0,0,1,9.021,10.248Z" fill="#fff"/>
</svg>
