<svg xmlns="http://www.w3.org/2000/svg" width="1140" height="1140" viewBox="0 0 1140 1140">
  <path id="commissions" d="M712.18,926.09c0-118.139,95.771-213.91,213.91-213.91S1140,807.951,1140,926.09,1044.229,1140,926.09,1140,712.18,1044.229,712.18,926.09ZM41.737,1098.263a142.5,142.5,0,0,1,0-201.525l855-855a142.5,142.5,0,0,1,201.525,201.525l-855,855a142.5,142.5,0,0,1-201.525,0ZM0,213.91C0,95.771,95.771,0,213.91,0S427.82,95.771,427.82,213.91,332.05,427.82,213.91,427.82,0,332.05,0,213.91Z" fill="#fff" opacity="0.2" style="mix-blend-mode: soft-light;isolation: isolate"/>
</svg>
