<svg xmlns="http://www.w3.org/2000/svg" xmlns:xlink="http://www.w3.org/1999/xlink" width="756" height="660" viewBox="0 0 756 660"><defs><filter id="a" x="276.5" y="140.5" width="286" height="399" filterUnits="userSpaceOnUse"><feOffset dy="10" input="SourceAlpha"/><feGaussianBlur stdDeviation="10" result="b"/><feFlood flood-opacity="0.102"/><feComposite operator="in" in2="b"/><feComposite in="SourceGraphic"/></filter><filter id="c" x="615.099" y="91.022" width="140.901" height="140.901" filterUnits="userSpaceOnUse"><feOffset dy="10" input="SourceAlpha"/><feGaussianBlur stdDeviation="10" result="d"/><feFlood flood-opacity="0.102"/><feComposite operator="in" in2="d"/><feComposite in="SourceGraphic"/></filter><filter id="e" x="339.361" y="218.017" width="260.285" height="130.587" filterUnits="userSpaceOnUse"><feOffset dy="10" input="SourceAlpha"/><feGaussianBlur stdDeviation="10" result="f"/><feFlood flood-opacity="0.102"/><feComposite operator="in" in2="f"/><feComposite in="SourceGraphic"/></filter><filter id="g" x="541" y="91" width="141" height="141" filterUnits="userSpaceOnUse"><feOffset dy="10" input="SourceAlpha"/><feGaussianBlur stdDeviation="10" result="h"/><feFlood flood-opacity="0.102"/><feComposite operator="in" in2="h"/><feComposite in="SourceGraphic"/></filter><filter id="i" x="466" y="90" width="143" height="143" filterUnits="userSpaceOnUse"><feOffset dy="10" input="SourceAlpha"/><feGaussianBlur stdDeviation="10" result="j"/><feFlood flood-opacity="0.102"/><feComposite operator="in" in2="j"/><feComposite in="SourceGraphic"/></filter><filter id="k" x="256.361" y="302.198" width="260.285" height="130.587" filterUnits="userSpaceOnUse"><feOffset dy="10" input="SourceAlpha"/><feGaussianBlur stdDeviation="10" result="l"/><feFlood flood-opacity="0.102"/><feComposite operator="in" in2="l"/><feComposite in="SourceGraphic"/></filter><filter id="m" x="357.361" y="386.224" width="260.285" height="130.587" filterUnits="userSpaceOnUse"><feOffset dy="10" input="SourceAlpha"/><feGaussianBlur stdDeviation="10" result="n"/><feFlood flood-opacity="0.102"/><feComposite operator="in" in2="n"/><feComposite in="SourceGraphic"/></filter><filter id="o" x="127" y="87" width="318" height="148" filterUnits="userSpaceOnUse"><feOffset dy="10" input="SourceAlpha"/><feGaussianBlur stdDeviation="10" result="p"/><feFlood flood-opacity="0.102"/><feComposite operator="in" in2="p"/><feComposite in="SourceGraphic"/></filter></defs><path d="M521.844,159.312c2.468-18.476,9.022-36.1,27.527-51.7,13.991-11.794,34.327-26.974,28.654-46.174-7.83-26.5-56.9-37.762-81.989-46.524C443.174-3.55,384.88-7.426,334.012,18.027c-24.544,12.282-31.839,42.637-65.767,37.089C238.493,50.25,214.97,32.777,184.217,49.7,159.36,63.379,136.8,74.874,119.629,92.859,83.865,130.318,39.258,70.383,6.37,118.9c-25.665,37.868,32.418,64.521,64.313,79.332,22.386,10.4,48.384,17.986,73.753,14.978,22.6-2.678,50.611-9.757,68.957,6.963,21.546,19.634,23.783,43.387,53.767,56.966,26.766,12.121,57.4,16.609,86.674,21.65,56.961,9.809,122.034,5.289,152.605-44.278C525.171,224.145,517.677,190.518,521.844,159.312Z" transform="translate(51 357)" fill="#f0f2f9" opacity="0.4"/><path d="M478,238.2c0,40.463-29.345,71.8-46.472,102.91-18.4,33.428-30.4,74.492-61.665,94.674-31.495,20.329-74.475,14.4-111.736,18.7-36.967,4.266-77.59,19.814-113.064,5.754-33.055-13.105-52.165-50.861-77.936-82C41.435,347.179,7.979,321.444,1.345,286.651c-7.119-37.337,15.8-74.159,26.92-109.543,11.2-35.633,13.364-78.826,39.141-105.886C92.99,44.365,135.487,40.25,171.581,28.33,205.257,17.21,241.314-5.917,280.909,1.406c21.327,3.945,35.078,30.225,53.862,39.676,19.158,9.635,48.372,5.072,64.021,19.4,15.725,14.395,13.756,43.954,25.058,62.028,11.247,17.986,38.724,29.189,44.717,49.772A246.165,246.165,0,0,1,478,238.2Z" transform="translate(132)" fill="#f0f2f9" opacity="0.4"/><path d="M0,41l190-1.26s-35.467-2.52-46.867-16.38S127.933-3.1,106.4.68,84.867,28.4,68.4,23.36,44.333,14.54,35.467,15.8,6.333,33.44,0,41Z" fill="#ebeff8"/><g transform="translate(469 63)"><path d="M1.8,63.422c-4.692-11.937.285-26.245,9.132-34.917C21.826,17.831,35.227,18.1,49.427,19.44,65.434,20.957,67.755,1.009,82.184.087,92.883-.6,100.833,2.76,117.87,10.475a41.8,41.8,0,0,0,24.765,3.063c5-.9,9.9-3.483,15.087-2.995s9.7,4.394,11.739,9.062c5.861,13.43-7.9,27.361-19,32.573-3.717,1.745-7.509,2.452-10.567,5.394-4.236,4.075-6.911,9.42-10.989,13.626-4.859,5.012-11.739,7.783-18.55,8.851-7.341,1.15-14.28-.952-21.594-.711-7.169.234-9.814,7.259-12.942,12.528-3.759,6.332-11.257,10.711-18.265,12.665A39.441,39.441,0,0,1,29.712,101.7,37.806,37.806,0,0,1,13.384,85.1c-1.8-3.483-2.579-7.492-4.77-10.717C6.187,70.807,3.4,67.489,1.8,63.422Z" transform="translate(97.889 233.972)" fill="#00449d"/><path d="M33.444,293.874C10.354,282.3-1.446,254.184.142,229.3,2.1,198.67,22.523,181.053,45.6,163.978c26.013-19.246,2.653-52.24,23.025-73.018,15.1-15.405,31.528-21.062,67.428-32.408a84.1,84.1,0,0,0,41.217-28.7c6.281-8.073,10.139-18.521,18.568-24.763,8.405-6.225,20.444-6.46,29.776-2.206,26.847,12.237,24.98,51.6,15.366,74.329-3.219,7.61-7.947,13.766-8.57,22.284-.863,11.8,2.325,23.4,1.875,35.179-.534,14.036-7.111,27.439-15.877,38.193-9.448,11.591-22.67,17.77-33.3,27.958-10.423,9.986-4.932,24.065-2.528,36.16,2.889,14.538-2.451,31.174-10.315,43.52-10.334,16.222-27.034,28.061-45.516,33.177-15.244,4.22-31.868,2.72-46.79-2.917-7.388-2.791-13.943-7.756-21.562-9.639C49.947,299.04,41.31,297.817,33.444,293.874Z" transform="translate(0.227 0.094)" fill="#3369b1"/><g transform="translate(40.326 43.152)"><path d="M166.371.117c-.013.458-.316.721-.509,1.057l-.642.968-1.281,1.936L161.372,7.95,156.255,15.7,146.078,31.252Q135.9,46.8,125.867,62.438c-13.4,20.836-26.631,41.787-39.849,62.743s-26.451,41.911-40.14,62.577c-6.852,10.328-13.86,20.559-21.214,30.548-3.7,4.974-7.49,9.893-11.477,14.653l-3.067,3.507c-1.053,1.142-2.125,2.268-3.2,3.385s-2.235,2.161-3.359,3.232c-.566.531-1.18,1.013-1.767,1.52S.6,245.6,0,246.089a270.394,270.394,0,0,0,23.795-28.427c7.323-9.976,14.307-20.2,21.138-30.532,13.653-20.666,26.824-41.653,40.12-62.56,13.267-20.927,26.542-41.851,40-62.661Q135.133,46.3,145.372,30.786q5.129-7.75,10.31-15.464l5.186-7.711,2.6-3.85,1.3-1.925.65-.963c.237-.307.365-.688.783-.873Z" transform="translate(0.019 0.388)" fill="#fff"/><path d="M15.19,71.193a142.468,142.468,0,0,0,1.023-18.711,121.919,121.919,0,0,0-1.559-18.609c-.536-3.064-1.178-6.108-2-9.1a79.307,79.307,0,0,0-3-8.817l-.93-2.138c-.3-.717-.683-1.4-1.018-2.1l-.513-1.048c-.181-.344-.38-.68-.566-1.02-.387-.675-.749-1.367-1.156-2.031A63.51,63.51,0,0,0,0,0,49.872,49.872,0,0,1,6.115,7.2a58.28,58.28,0,0,1,4.67,8.257,71.146,71.146,0,0,1,3.321,8.9,88.691,88.691,0,0,1,2.128,9.252,102.386,102.386,0,0,1,1.339,18.883A100.59,100.59,0,0,1,15.55,71.262Z" transform="translate(18.633 125.794)" fill="#fff"/><path d="M15.189,71.194a142.468,142.468,0,0,0,1.023-18.711,121.919,121.919,0,0,0-1.559-18.609c-.536-3.064-1.178-6.108-2-9.1a79.3,79.3,0,0,0-3-8.817l-.93-2.138c-.3-.717-.683-1.4-1.018-2.1l-.512-1.049c-.181-.344-.38-.68-.566-1.02-.386-.675-.749-1.367-1.156-2.031A63.51,63.51,0,0,0,0,0,49.869,49.869,0,0,1,6.115,7.2a58.187,58.187,0,0,1,4.67,8.257,71.071,71.071,0,0,1,3.321,8.9,88.554,88.554,0,0,1,2.129,9.253,102.378,102.378,0,0,1,1.339,18.883,100.51,100.51,0,0,1-2.024,18.774Z" transform="translate(71.567 48.384)" fill="#fff"/><path d="M82.744.447c-3.684.107-7.372.337-11.04.7Q66.2,1.67,60.733,2.487c-3.64.556-7.268,1.185-10.867,1.95S42.694,6.072,39.159,7.081a126.545,126.545,0,0,0-20.6,7.754l-2.464,1.233c-.817.42-1.61.883-2.42,1.32l-1.211.661-1.18.711c-.783.481-1.585.935-2.354,1.44A90.385,90.385,0,0,0,0,26.724c1.348-1.262,2.657-2.583,4.113-3.731L5.182,22.1c.353-.3.714-.593,1.091-.866L8.5,19.561A85.814,85.814,0,0,1,18,13.728c.81-.459,1.657-.844,2.489-1.261s1.669-.824,2.523-1.191l2.551-1.132L28.148,9.1c3.475-1.328,6.991-2.556,10.572-3.56a143.91,143.91,0,0,1,21.829-4.4A136.834,136.834,0,0,1,82.754.078Z" transform="translate(71.954 120.493)" fill="#fff"/><path d="M68.119,1.335a79.8,79.8,0,0,0-9.154-.3c-3.052.047-6.1.265-9.128.589A98.4,98.4,0,0,0,31.969,5.27Q27.6,6.6,23.389,8.361c-2.81,1.168-5.547,2.5-8.235,3.936A98.816,98.816,0,0,0,0,22.587,73.2,73.2,0,0,1,14.542,11.223c1.341-.77,2.676-1.555,4.065-2.237,1.367-.727,2.776-1.369,4.185-2.012A83.078,83.078,0,0,1,49.709.272a81.725,81.725,0,0,1,9.263-.23,60.821,60.821,0,0,1,9.208.932Z" transform="translate(27.457 190.974)" fill="#fff"/></g></g><g transform="translate(241 322)"><path d="M68.447,25.533c1.9-4.8-.105-10.554-3.686-14.043-4.408-4.3-9.834-4.194-15.585-3.659-6.482.6-7.415-7.417-13.258-7.795C31.587-.243,28.366,1.1,21.465,4.2a17.037,17.037,0,0,1-10.03,1.223c-2.025-.364-4.007-1.4-6.108-1.209A6.065,6.065,0,0,0,.569,7.851c-2.38,5.4,3.189,11,7.683,13.1,1.5.7,3.04.989,4.277,2.173,1.714,1.64,2.8,3.79,4.445,5.483a13.331,13.331,0,0,0,7.509,3.565c2.973.465,5.783-.378,8.744-.279,2.9.094,3.972,2.922,5.236,5.042,1.52,2.547,4.555,4.311,7.392,5.1a16.077,16.077,0,0,0,11.275-1.13,15.253,15.253,0,0,0,6.616-6.669c.732-1.4,1.047-3.012,1.935-4.307A22.788,22.788,0,0,0,68.447,25.533Z" transform="translate(0.237 94.379)" fill="#00449d"/><path d="M86.576,118.228c9.354-4.645,14.142-15.948,13.508-25.954C99.3,79.958,91.04,72.867,81.7,65.993c-10.527-7.748-1.056-21.006-9.3-29.369-6.111-6.2-12.76-8.48-27.293-13.055a34.05,34.05,0,0,1-16.68-11.556c-2.541-3.248-4.1-7.451-7.511-9.964s-8.276-2.6-12.057-.9C-2.016,6.066-1.274,21.891,2.611,31.035,3.912,34.1,5.824,36.573,6.074,40c.345,4.744-.949,9.408-.772,14.145.211,5.645,2.87,11.036,6.416,15.363,3.822,4.664,9.174,7.153,13.476,11.253,4.217,4.019,1.989,9.678,1.011,14.541-1.175,5.845.981,12.536,4.162,17.5A32.125,32.125,0,0,0,48.787,126.16,31.06,31.06,0,0,0,67.736,125c2.993-1.12,5.649-3.114,8.735-3.868C79.891,120.3,83.389,119.811,86.576,118.228Z" transform="translate(8.845 0.329)" fill="#3369b1"/><g transform="translate(25.227 17.479)"><path d="M.2,0C.473,0,.478.189.586.3L.85.69l.529.773L2.437,3.008,4.552,6.1q2.122,3.087,4.206,6.2l4.141,6.24,4.11,6.263q8.174,12.552,16.216,25.186c5.391,8.4,10.726,16.839,16.25,25.145,2.77,4.144,5.549,8.288,8.52,12.283,1.452,2.025,3.023,3.951,4.576,5.892.813.936,1.618,1.88,2.385,2.862.812.937,1.645,1.856,2.409,2.874a32.791,32.791,0,0,1-2.951-2.372c-.893-.884-1.751-1.807-2.6-2.737-1.587-1.944-3.182-3.884-4.656-5.905-3.018-4-5.83-8.135-8.635-12.272C42.995,67.43,37.645,59,32.316,50.556S21.642,33.685,16.239,25.293L12.182,19,8.091,12.732Q6.064,9.586,4.011,6.456L1.96,3.324.934,1.758.421.976.165.584C.1.442-.07.366.032.111Z" transform="translate(0.127 0.291)" fill="#fff"/><path d="M1.109,28.667A33.835,33.835,0,0,1,.029,21.1a37.15,37.15,0,0,1,.49-7.665,33.356,33.356,0,0,1,.9-3.759,26.752,26.752,0,0,1,1.434-3.6,21.611,21.611,0,0,1,2.024-3.3A17.652,17.652,0,0,1,7.528,0,31.088,31.088,0,0,0,5.484,3.171c-.288.553-.595,1.093-.835,1.666-.272.556-.5,1.131-.732,1.7A37.273,37.273,0,0,0,2,13.686a56.05,56.05,0,0,0-.7,7.41c-.071,2.491-.026,5,.143,7.508Z" transform="translate(52.469 50.798)" fill="#fff"/><path d="M1.109,28.667A33.807,33.807,0,0,1,.029,21.1a37.113,37.113,0,0,1,.49-7.664,33.364,33.364,0,0,1,.9-3.759,26.752,26.752,0,0,1,1.434-3.6,21.646,21.646,0,0,1,2.023-3.3A17.674,17.674,0,0,1,7.528,0,30.934,30.934,0,0,0,5.485,3.172c-.286.553-.595,1.092-.835,1.666-.272.556-.5,1.131-.732,1.7A37.274,37.274,0,0,0,2,13.686a56.049,56.049,0,0,0-.7,7.41c-.072,2.491-.026,5,.143,7.508Z" transform="translate(31.062 19.653)" fill="#fff"/><path d="M0,.141A46.737,46.737,0,0,1,9.044.315,53.036,53.036,0,0,1,17.95,2.041c1.462.405,2.891.924,4.306,1.47A38.651,38.651,0,0,1,26.37,5.457a31.988,31.988,0,0,1,3.808,2.471A25.582,25.582,0,0,1,33.5,10.981c-1.225-.872-2.446-1.715-3.729-2.457-.316-.192-.645-.364-.966-.547s-.646-.358-.979-.52-.652-.344-.984-.5l-1-.47a57.913,57.913,0,0,0-8.308-3.009A81.131,81.131,0,0,0,8.869,1.57C5.942,1.088,2.983.719.008.483Z" transform="translate(4.894 48.413)" fill="#fff"/><path d="M0,.606A26.3,26.3,0,0,1,7.53.07a31.022,31.022,0,0,1,7.459,1.367l.91.277c.3.1.592.228.888.34.588.236,1.183.457,1.764.709a30,30,0,0,1,3.332,1.815,25.7,25.7,0,0,1,5.735,4.838q-.793-.51-1.557-1.033a16.071,16.071,0,0,0-1.55-1.007L22.93,6.43c-.518-.324-1.085-.567-1.623-.853-1.067-.591-2.208-1.03-3.318-1.523-.564-.226-1.142-.42-1.71-.631-.286-.1-.568-.217-.86-.3s-.583-.174-.874-.261a42.786,42.786,0,0,0-7.14-1.533A47.539,47.539,0,0,0,.054.939Z" transform="translate(28.776 76.669)" fill="#fff"/></g></g><ellipse cx="84" cy="9" rx="84" ry="9" transform="translate(340 496)" fill="#d8d9d9" opacity="0.2"/><g transform="matrix(1, 0, 0, 1, 0, 0)" filter="url(#a)"><rect width="339" height="226" rx="21" transform="translate(532.5 160.5) rotate(90)" fill="#fff"/></g><rect width="302" height="183" rx="21" transform="translate(511 179.333) rotate(90)" fill="#deeaf8"/><g transform="translate(645 111)"><g transform="matrix(1, 0, 0, 1, -645, -111)" filter="url(#c)"><circle cx="40.451" cy="40.451" r="40.451" transform="translate(645.1 111.02)" fill="#fff"/></g><path d="M24.1,42.641H6.1A6.289,6.289,0,0,1,0,36.194V6.449A6.29,6.29,0,0,1,6.1,0h18a6.29,6.29,0,0,1,6.1,6.449V36.194A6.291,6.291,0,0,1,24.1,42.641ZM6.1,4.635A1.772,1.772,0,0,0,4.387,6.449V36.194A1.773,1.773,0,0,0,6.1,38.006h18a1.772,1.772,0,0,0,1.716-1.813V6.449A1.772,1.772,0,0,0,24.1,4.635Z" transform="translate(25.446 19.152)" fill="#d8d8d8"/></g><g transform="translate(369 238)"><g transform="matrix(1, 0, 0, 1, -369, -238)" filter="url(#e)"><rect width="200.285" height="70.587" rx="12" transform="translate(369.36 238.02)" fill="#fff"/></g><g transform="translate(12.8 17.397)"><rect width="125.144" height="9.067" rx="4.534" transform="translate(43.576 0.236)" fill="#d8d8d8"/><rect width="93.042" height="9.067" rx="4.534" transform="translate(43.576 22.602)" fill="#d8d8d8"/><path d="M31.694,15.72A15.848,15.848,0,1,1,15.847,0a15.9,15.9,0,0,1,11.21,4.6,15.64,15.64,0,0,1,4.637,11.12Z" transform="translate(0.405 0.235)" fill="#d8d8d8"/><path d="M19.618,19.309A15.965,15.965,0,0,1,0,19.309a7.691,7.691,0,0,1,7.028-7.454,6.263,6.263,0,1,1,8.917-7.023,6.233,6.233,0,0,1-3.355,7.023A7.7,7.7,0,0,1,19.618,19.309Z" transform="translate(6.443 8.997)" fill="#c7c7c7"/></g></g><g transform="translate(571 111)"><g transform="matrix(1, 0, 0, 1, -571, -111)" filter="url(#g)"><circle cx="40.5" cy="40.5" r="40.5" transform="translate(571 111)" fill="#fff"/></g><g transform="translate(23 24)"><path d="M6.64,19.215c.016.018.035.03.052.047q.063.068.128.129c.019.018.033.038.052.056s.06.041.088.063.066.056.1.08.069.046.105.069a2.065,2.065,0,0,0,.2.109c.039.019.075.043.111.06s.049.019.075.029a2.243,2.243,0,0,0,.265.081l.04.012c.027.007.051.019.078.025a.327.327,0,0,1,.04.006,2.371,2.371,0,0,0,.447.044h0a2.359,2.359,0,0,0,.443-.044.1.1,0,0,0,.04-.006c.028-.006.051-.018.078-.025l.04-.012a2.26,2.26,0,0,0,.267-.081c.024-.009.05-.018.075-.029s.075-.041.114-.06a2.2,2.2,0,0,0,.2-.109c.036-.022.071-.044.1-.069s.068-.052.1-.08.059-.038.087-.063a.6.6,0,0,0,.052-.056c.044-.041.087-.084.129-.129.016-.017.036-.028.051-.047l6.056-6.888a2.327,2.327,0,0,0-.232-3.307,2.388,2.388,0,0,0-3.342.23L10.8,11.408V2.346a2.37,2.37,0,0,0-4.739,0v9.062l-1.9-2.16a2.387,2.387,0,0,0-3.343-.23,2.327,2.327,0,0,0-.233,3.307Z" transform="translate(8.21 0.512)" fill="#d8d8d8"/><path d="M30.751,0a2.38,2.38,0,0,0-2.408,2.353v7.61a1.865,1.865,0,0,1-1.884,1.841H6.7A1.865,1.865,0,0,1,4.814,9.967V2.357A2.408,2.408,0,0,0,0,2.357v7.61a6.63,6.63,0,0,0,6.7,6.546H26.46a6.63,6.63,0,0,0,6.7-6.546V2.357A2.38,2.38,0,0,0,30.751,0Z" transform="translate(0.552 16.338)" fill="#d8d8d8"/></g></g><g transform="translate(496 110)"><g transform="matrix(1, 0, 0, 1, -496, -110)" filter="url(#i)"><circle cx="41.5" cy="41.5" r="41.5" transform="translate(496 110)" fill="#fff"/></g><path d="M35.272,32H5.726A5.774,5.774,0,0,1,0,26.213V5.79A5.774,5.774,0,0,1,5.726,0H35.294a5.685,5.685,0,0,1,4.035,1.7A5.807,5.807,0,0,1,41,5.8V26.212A5.773,5.773,0,0,1,35.272,32ZM17.157,18.6l-9.9,9.285H33.728l-9.762-9.359-2.08,1.884a2.084,2.084,0,0,1-2.71.013L17.157,18.6ZM36.929,6.768l-9.926,9,9.926,9.511V6.768ZM4.072,6.786h0V25.241L14.1,15.835,4.073,6.786ZM7.241,4.125,18.379,14.186a1.755,1.755,0,0,1,.221.194l.078.08,1.84,1.66,13.221-12Z" transform="translate(21 25)" fill="#d8d8d8"/></g><g transform="translate(286 322)"><g transform="matrix(1, 0, 0, 1, -286, -322)" filter="url(#k)"><rect width="200.285" height="70.587" rx="12" transform="translate(286.36 322.2)" fill="#fff"/></g><g transform="translate(12.8 17.397)"><rect width="125.144" height="9.067" rx="4.534" transform="translate(43.576 0.417)" fill="#d8d8d8"/><path d="M31.694,15.718A15.848,15.848,0,1,1,15.847,0a15.9,15.9,0,0,1,11.21,4.6,15.64,15.64,0,0,1,4.638,11.118Z" transform="translate(0.405 0.418)" fill="#d8d8d8"/><path d="M19.618,19.309A15.965,15.965,0,0,1,0,19.309a7.691,7.691,0,0,1,7.028-7.454,6.263,6.263,0,1,1,8.917-7.023,6.233,6.233,0,0,1-3.355,7.023,7.7,7.7,0,0,1,7.028,7.454Z" transform="translate(6.443 9.177)" fill="#c7c7c7"/><rect width="93.042" height="9.067" rx="4.534" transform="translate(43.576 22.783)" fill="#d8d8d8"/></g></g><g transform="translate(387 406)"><g transform="matrix(1, 0, 0, 1, -387, -406)" filter="url(#m)"><rect width="200.285" height="70.587" rx="12" transform="translate(387.36 406.22)" fill="#fff"/></g><g transform="translate(12.8 17.397)"><rect width="125.144" height="9.067" rx="4.534" transform="translate(43.576 0.442)" fill="#d8d8d8"/><path d="M31.694,15.718A15.848,15.848,0,1,1,15.847,0a15.9,15.9,0,0,1,11.21,4.6,15.64,15.64,0,0,1,4.638,11.118Z" transform="translate(0.405 0.443)" fill="#d8d8d8"/><path d="M19.618,19.309A15.967,15.967,0,0,1,0,19.309a7.691,7.691,0,0,1,7.028-7.454,6.263,6.263,0,1,1,8.917-7.023,6.233,6.233,0,0,1-3.355,7.023,7.7,7.7,0,0,1,7.028,7.454Z" transform="translate(6.443 9.202)" fill="#c7c7c7"/><rect width="93.042" height="9.067" rx="4.534" transform="translate(43.576 22.808)" fill="#d8d8d8"/></g></g><g transform="translate(51 184)"><ellipse cx="93" cy="10" rx="93" ry="10" transform="translate(1 289)" fill="#d8d9d9" opacity="0.2"/><path d="M64,0s7.411,72.542,6.484,82.772c0,0,9.263,18.6,6.484,77.192.926,4.65-.463,5.58.463,7.441s1.39,5.58-4.168,5.58-11.116.93-9.263-2.79,3.706-2.79,3.706-7.441-13.894-79.982-17.6-90.212-9.263-39.061-9.263-39.061S33.435,79.053,30.657,86.493c0,0,3.7,33.481-3.7,53.011-2.779,5.58-2.779,22.323-2.779,26.971s2.779,5.58-1.853,5.58-9.263-.93-12.968.93-10.189.93-9.263-.93,13.894-5.58,14.822-7.441.926-40.921-1.853-63.242S13.985,10.231,16.764,0Z" transform="translate(41 129)" fill="#747d8f"/><path d="M.328,2.659A7.569,7.569,0,0,1,0,0H45.164s.328,3.064.836,7.981c-3.512.661-9.173.3-17.013.881C16.968,9.749,2.177,6.2.328,2.659Z" transform="translate(60 130)" fill="#656e7d"/><path d="M0,0,3.364,13,17,9.764,15.294,2.407,0,0Z" transform="translate(80 38)" fill="#ef9269"/><path d="M25.568,0l3.78,16.384S32.973,28,23.126,30.352,7.543,28.308,6.283,22.846A5.806,5.806,0,0,1,.091,17.915,4.178,4.178,0,0,1,2.27,13.323c1.148-.537,2.737-.615,4.809.69L9.455,3.842Z" transform="translate(71 11)" fill="#faae84"/><path d="M8.059,29S4.878,23.529,1.7,25.969c0,0-6.464-15.844,5.8-19.716l5.343-1.272c2.672-.636,8.224-1,7.6-3.715s10.9-1.64,6.751,8.88c0,0,4.177,7.693,2.348,10.481a8.354,8.354,0,0,1-.915.928s-1.878-9.705-3.659-9.281S12.7,16.363,10.253,16.039C10.253,16.038,12.776,25.019,8.059,29Z" transform="translate(70)" fill="#402b2c"/><path d="M8.233,0A1.391,1.391,0,0,0,6.926.883c-.415,1.091-1.274,2.8-2.578,2.8-1.913,0-5.739,4.608-3.826,8.295s5.739,4.608,7.653,3.686S12,4.608,12,2.765,11.044,0,9.13,0Z" transform="translate(23 119)" fill="#faae84"/><path d="M1.537,0S-1.2,3.708.626,5.562,3.358,2.781,5.179,2.781,7,0,7,0Z" transform="translate(26 125)" fill="#faae84"/><path d="M4.841,107.661a4.828,4.828,0,0,0,4.485-3.031c2.95-7.293,7.473-18.34,8.943-25.7C25.381,73.585,32.5,59.674,33.038,58.608c.009-.009.009-.028.018-.037-.166,1.307-6.437,49.137-4.615,52.8,1.85,3.707,16.647,7.415,28.669,6.487s18.958.463,20.808-3.244,2.774-47.264,5.549-51.9v-.046c4.467-4.708,21.918-19.4,28.206-29.147,5.29-8.193,8.009-24.68,8.323-30.583.083-1.482-2.34-2.6-3.81-2.836a6.153,6.153,0,0,0-4.541.936c-3.227,2.243-11.995,23.215-11.995,23.215-3.117.2-12.272,6.895-15.5,9.323-4.1-3.318-12.5-4.69-14.094-4.69-.351,0-1.239,0-2.487.009-3.988.918-7.685,1.844-13.179.526a41.216,41.216,0,0,0-8.379,1.315c-3.8,1.269-8.48,4.282-11.042,6.061-.092.065-.185.12-.268.186a18.531,18.531,0,0,0-2.969,2.548C27.027,44.444,11.176,61.58,5.321,75.222-.431,88.622.559,95.091.013,102.45a4.847,4.847,0,0,0,4.827,5.211Z" transform="translate(28 17)" fill="#d8d8d8"/><path d="M3.133,17.978a1.322,1.322,0,0,0,1.389-.656c.585-1.02,1.7-2.584,2.927-2.356,1.8.335,11.606-6.455,10.457-10.483S10.577-2.085,5.971,2.295C4.469,3.722.4,12.7.075,14.549s.411,2.937,2.213,3.272Z" transform="translate(142 3)" fill="#faae84"/><path d="M2.01,63v-.046C6.533,58.224,24.2,43.46,30.57,33.674,35.927,25.444,38.68,8.882,39,2.952,39.082,1.462,36.629.336,35.14.1a6.271,6.271,0,0,0-4.6.94C27.274,3.3,18.4,24.365,18.4,24.365c-3.156.2-12.426,6.926-15.694,9.366C2.7,33.73-2.887,57.647,2.01,63Z" transform="translate(110 17)" fill="#606060"/><path d="M4.893,71a4.88,4.88,0,0,0,4.534-3.037c2.982-7.308,7.553-18.376,9.04-25.749,7.188-5.358,14.386-19.3,14.928-20.363.009-.009.009-.028.019-.037A41.294,41.294,0,0,0,35.348,0c-.093.065-.187.121-.271.186a18.687,18.687,0,0,0-3,2.553C27.318,7.661,11.3,24.83,5.379,38.5-.435,51.926.565,58.407.013,65.78a4.841,4.841,0,0,0,1.294,3.667A4.908,4.908,0,0,0,4.893,71Z" transform="translate(28 54)" fill="#606060"/></g><g transform="translate(157 107)"><g transform="matrix(1, 0, 0, 1, -157, -107)" filter="url(#o)"><rect width="258" height="88" rx="12" transform="translate(157 107)" fill="#fff"/></g><g transform="translate(15 23)"><rect width="161.215" height="12.044" rx="6.022" transform="translate(57.244)" fill="#d8d8d8"/><path d="M40.83,20.879A20.651,20.651,0,0,1,20.415,41.757,20.651,20.651,0,0,1,0,20.879,20.651,20.651,0,0,1,20.415,0,20.17,20.17,0,0,1,34.856,6.11,21.1,21.1,0,0,1,40.83,20.879Z" transform="translate(0.22 0)" fill="#d8d8d8"/><path d="M25.272,25.648A20.078,20.078,0,0,1,0,25.648a10.088,10.088,0,0,1,9.053-9.9A8.36,8.36,0,0,1,4.732,6.419,8.156,8.156,0,0,1,12.636,0a8.156,8.156,0,0,1,7.9,6.419,8.36,8.36,0,0,1-4.321,9.328,10.1,10.1,0,0,1,9.054,9.9Z" transform="translate(8 11.635)" fill="#c7c7c7"/><rect width="119.86" height="12.044" rx="6.022" transform="translate(57.244 29.709)" fill="#d8d8d8"/></g></g></svg>