<svg xmlns="http://www.w3.org/2000/svg" xmlns:xlink="http://www.w3.org/1999/xlink" width="699" height="574" viewBox="0 0 699 574"><defs><filter id="a" x="0" y="0" width="271" height="467" filterUnits="userSpaceOnUse"><feOffset dy="10" input="SourceAlpha"/><feGaussianBlur stdDeviation="10" result="b"/><feFlood flood-opacity="0.102"/><feComposite operator="in" in2="b"/><feComposite in="SourceGraphic"/></filter><filter id="c" x="0" y="0" width="271" height="467" filterUnits="userSpaceOnUse"><feOffset dy="10" input="SourceAlpha"/><feGaussianBlur stdDeviation="10" result="d"/><feFlood flood-opacity="0.102"/><feComposite operator="in" in2="d"/><feComposite in="SourceGraphic"/></filter><clipPath id="e"><g transform="matrix(1, 0, 0, 1, 0, 0)" filter="url(#a)"><rect width="211" height="407" rx="10" fill="#fff"/></g></clipPath><filter id="f" x="251" y="52" width="448" height="223" filterUnits="userSpaceOnUse"><feOffset dy="10" input="SourceAlpha"/><feGaussianBlur stdDeviation="10" result="g"/><feFlood flood-opacity="0.102"/><feComposite operator="in" in2="g"/><feComposite in="SourceGraphic"/></filter><filter id="h" x="251" y="255" width="357.67" height="319" filterUnits="userSpaceOnUse"><feOffset dy="10" input="SourceAlpha"/><feGaussianBlur stdDeviation="10" result="i"/><feFlood flood-opacity="0.102"/><feComposite operator="in" in2="i"/><feComposite in="SourceGraphic"/></filter><filter id="j" x="333" y="411" width="43" height="113" filterUnits="userSpaceOnUse"><feOffset dy="5" input="SourceAlpha"/><feGaussianBlur stdDeviation="5" result="k"/><feFlood flood-color="#4880ff" flood-opacity="0.102"/><feComposite operator="in" in2="k"/><feComposite in="SourceGraphic"/></filter><filter id="l" x="376" y="379" width="43" height="145" filterUnits="userSpaceOnUse"><feOffset dy="5" input="SourceAlpha"/><feGaussianBlur stdDeviation="5" result="m"/><feFlood flood-color="#4880ff" flood-opacity="0.102"/><feComposite operator="in" in2="m"/><feComposite in="SourceGraphic"/></filter><filter id="n" x="419" y="434" width="43" height="90" filterUnits="userSpaceOnUse"><feOffset dy="5" input="SourceAlpha"/><feGaussianBlur stdDeviation="5" result="o"/><feFlood flood-color="#4880ff" flood-opacity="0.102"/><feComposite operator="in" in2="o"/><feComposite in="SourceGraphic"/></filter><filter id="p" x="462" y="354" width="43" height="170" filterUnits="userSpaceOnUse"><feOffset dy="5" input="SourceAlpha"/><feGaussianBlur stdDeviation="5" result="q"/><feFlood flood-color="#4880ff" flood-opacity="0.102"/><feComposite operator="in" in2="q"/><feComposite in="SourceGraphic"/></filter><filter id="r" x="505" y="319" width="43" height="205" filterUnits="userSpaceOnUse"><feOffset dy="5" input="SourceAlpha"/><feGaussianBlur stdDeviation="5" result="s"/><feFlood flood-color="#4880ff" flood-opacity="0.102"/><feComposite operator="in" in2="s"/><feComposite in="SourceGraphic"/></filter></defs><g transform="translate(30 20)"><g transform="matrix(1, 0, 0, 1, -30, -20)" filter="url(#c)"><rect width="211" height="407" rx="10" transform="translate(30 20)" fill="#fff"/></g><g clip-path="url(#e)"><g transform="translate(26 69)" fill="none" stroke-linecap="square" stroke-miterlimit="10"><path d="M156.349,336V0H157V336Zm-39.088,0V0h.652V336Zm-39.087,0V0h.652V336Zm-39.087,0V0h.652V336ZM0,336V0H.652V336Z" stroke="none"/><path d="M 156.9996185302734 335.9997253417969 L 156.3488922119141 335.9997253417969 L 156.3488922119141 335.4129028320313 L 156.3488922119141 0.5877110362052917 L 156.3488922119141 -1.622425406822003e-05 L 156.9996185302734 -1.622425406822003e-05 L 156.9996185302734 0.5877110362052917 L 156.9996185302734 335.4129028320313 L 156.9996185302734 335.9997253417969 Z M 117.9126205444336 335.9997253417969 L 117.260986328125 335.9997253417969 L 117.260986328125 335.4129028320313 L 117.260986328125 0.5877110362052917 L 117.260986328125 -1.622425406822003e-05 L 117.9126205444336 -1.622425406822003e-05 L 117.9126205444336 0.5877110362052917 L 117.9126205444336 335.4129028320313 L 117.9126205444336 335.9997253417969 Z M 78.82562255859375 335.9997253417969 L 78.17398071289063 335.9997253417969 L 78.17398071289063 335.4129028320313 L 78.17398071289063 0.5877110362052917 L 78.17398071289063 -1.622425406822003e-05 L 78.82562255859375 -1.622425406822003e-05 L 78.82562255859375 0.5877110362052917 L 78.82562255859375 335.4129028320313 L 78.82562255859375 335.9997253417969 Z M 39.73862075805664 335.9997253417969 L 39.08698272705078 335.9997253417969 L 39.08698272705078 335.4129028320313 L 39.08698272705078 0.5877110362052917 L 39.08698272705078 -1.622425406822003e-05 L 39.73862075805664 -1.622425406822003e-05 L 39.73862075805664 0.5877110362052917 L 39.73862075805664 335.4129028320313 L 39.73862075805664 335.9997253417969 Z M 0.6516197919845581 335.9997253417969 L -1.654607513046358e-05 335.9997253417969 L -1.654607513046358e-05 335.4129028320313 L -1.654607513046358e-05 0.5877110362052917 L -1.654607513046358e-05 -1.622425406822003e-05 L 0.6516197919845581 -1.622425406822003e-05 L 0.6516197919845581 0.5877110362052917 L 0.6516197919845581 335.4129028320313 L 0.6516197919845581 335.9997253417969 Z" stroke="none" fill="rgba(112,112,112,0.13)"/></g><text transform="translate(24 35)" fill="#ccc" font-size="13" font-family="Roboto-Regular, Roboto"><tspan x="-1.159" y="14">5</tspan></text><text transform="translate(66 49)" fill="#ccc" font-size="13" font-family="Roboto-Regular, Roboto"><tspan x="-7.322" y="0">10</tspan></text><text transform="translate(105 49)" fill="#ccc" font-size="13" font-family="Roboto-Regular, Roboto"><tspan x="-7.319" y="0">15</tspan></text><text transform="translate(145 49)" fill="#ccc" font-size="13" font-family="Roboto-Regular, Roboto"><tspan x="-7.322" y="0">20</tspan></text><text transform="translate(184 49)" fill="#ccc" font-size="13" font-family="Roboto-Regular, Roboto"><tspan x="-7.319" y="0">25</tspan></text><path d="M0,91.529S-6.856,75.966-11.547,75.966-21.2,88.906-26.274,97.98s-8.811-3.273-8.811-3.273-6.724-23-10.554-24.469S-53.986,81.05-56.415,86.514s-7.251,9.451-10.591-2.581S-77.7,26.957-77.7,26.957s-3.659-20.12-8.408-5.68S-97.966,81.592-99.19,89.786s-6.3,24.158-10.508,4.921S-119.76,42.374-119.76,42.374s-1.951-11.086-6.51-9.718-5.667,11.666-8.109,18.409-6.718,15.853-12.6,0-9.473-29.788-12.368-38.248-8.844-22.894-17.068-2.147-5.975,14.77-10.678,25.733-6.34,5.971-8.981,0-6.225-23.586-14.79-26.758c-.2-.074-.11,3.172-.11,3.172V207H0Z" transform="translate(211 200)" fill="#00449d" opacity="0.05"/><path d="M0,49.437s-5.781-13.987-10.688-13,3.515-2.776-17.371,24.948S-54.7,68.855-54.7,68.855s-4.979-21.389-8.854-22.039S-73.251,59.3-76.28,65.236s-8.428,10.907-10.847-.322-6.1-54.251-6.1-54.251-2.03-19.183-8.287-3.857-17.788,62.331-19.8,70.717-8.744,25.292-11.431,7.1-5.85-49.782-5.85-49.782-1.05-10.584-5.941-8.263-6.97,12.769-10.126,19.973-8.443,17.144-13.178,2.663-7.248-27.543-9.52-35.323-7.206-20.838-17.662,1.479-7.569,15.913-13.468,27.781-7.165,7.262-9.394,1.9S-222.4,23-231.08,21.66" transform="translate(222.537 191.532) rotate(-9)" fill="none" stroke="#0057dd" stroke-linecap="round" stroke-miterlimit="10" stroke-width="3"/><path d="M0,63.481S-6.857,52.687-11.548,52.687-21.2,61.661-26.277,67.955s-8.812-2.27-8.812-2.27-6.725-15.95-10.556-16.97S-53.993,56.213-56.422,60s-7.252,6.555-10.592-1.79S-77.712,18.7-77.712,18.7s-3.66-13.954-8.409-3.94S-97.978,56.589-99.2,62.272s-6.3,16.755-10.509,3.413-10.063-36.3-10.063-36.3-1.951-7.689-6.511-6.74-5.668,8.091-8.11,12.768-6.719,10.995-12.6,0-9.474-20.659-12.37-26.527-8.846-15.878-17.07-1.489-5.975,10.244-10.679,17.847-6.341,4.141-8.982,0S-202.434,8.889-211,6.689" transform="translate(211 232)" fill="none" stroke="#2f84f3" stroke-linecap="round" stroke-miterlimit="10" stroke-width="3" opacity="0.1"/><circle cx="12" cy="12" r="12" transform="translate(29 211)" fill="rgba(0,87,221,0.2)"/><circle cx="8" cy="8" r="8" transform="translate(33 215)" fill="rgba(0,87,221,0.2)"/><circle cx="5" cy="5" r="5" transform="translate(36 218)" fill="#0057dd"/></g><circle cx="12" cy="12" r="12" transform="translate(116 196)" fill="rgba(0,87,221,0.2)"/><circle cx="8" cy="8" r="8" transform="translate(120 200)" fill="rgba(0,87,221,0.2)"/><circle cx="5" cy="5" r="5" transform="translate(123 203)" fill="#0057dd"/><g transform="translate(251 52)"><g transform="matrix(1, 0, 0, 1, -281, -72)" filter="url(#f)"><rect width="388" height="163" rx="10" transform="translate(281 72)" fill="#fff"/></g><rect width="196" height="4" rx="2" transform="translate(146 50)" fill="#d8d8d8"/><rect width="196" height="4" rx="2" transform="translate(146 80)" fill="#d8d8d8"/><rect width="196" height="4" rx="2" transform="translate(146 110)" fill="#d8d8d8"/><g transform="translate(38 33)"><circle cx="40" cy="40" r="40" fill="none" stroke="#e8e8e8" stroke-miterlimit="10" stroke-width="7"/><text transform="translate(40 50)" fill="#4a4a4a" font-size="20" font-family="Roboto-Bold, Roboto" font-weight="700"><tspan x="-18.857" y="0">65%</tspan></text><path d="M80,40A40,40,0,1,0,0,40" transform="translate(0 80) rotate(-90)" fill="none" stroke="#468ee5" stroke-miterlimit="10" stroke-width="10"/><path d="M56.52,40A40.02,40.02,0,0,0,0,3.56" transform="translate(79.042 58.672) rotate(138)" fill="none" stroke="#d8d8d8" stroke-miterlimit="10" stroke-width="15"/><path d="M9.736,0A40.006,40.006,0,0,0,0,6.012" transform="translate(83.622 50.123) rotate(138)" fill="none" stroke="#00449d" stroke-miterlimit="10" stroke-width="20"/></g></g><g transform="translate(251 255)"><g transform="matrix(1, 0, 0, 1, -281, -275)" filter="url(#h)"><rect width="297.67" height="259" rx="10" transform="translate(281 275)" fill="#fff"/></g><g transform="translate(30 54)"><g transform="translate(29 19)" fill="none" stroke-linecap="square" stroke-miterlimit="10"><path d="M207.563,140H0v-1H208v1Zm0-46H0V93H208v1Zm0-47H0V46H208v1Zm0-46H0V0H208V1Z" stroke="none"/><path d="M 207.9998931884766 140.0003967285156 L 207.5634002685547 140.0003967285156 L 0.4373986721038818 140.0003967285156 L 9.779188076208811e-06 140.0003967285156 L 9.779188076208811e-06 138.9996185302734 L 0.4373986721038818 138.9996185302734 L 207.5634002685547 138.9996185302734 L 207.9998931884766 138.9996185302734 L 207.9998931884766 140.0003967285156 Z M 207.9998931884766 93.99961853027344 L 207.5634002685547 93.99961853027344 L 0.4373986721038818 93.99961853027344 L 9.779188076208811e-06 93.99961853027344 L 9.779188076208811e-06 92.99969482421875 L 0.4373986721038818 92.99969482421875 L 207.5634002685547 92.99969482421875 L 207.9998931884766 92.99969482421875 L 207.9998931884766 93.99961853027344 Z M 207.9998931884766 46.99980926513672 L 207.5634002685547 46.99980926513672 L 0.4373986721038818 46.99980926513672 L 9.779188076208811e-06 46.99980926513672 L 9.779188076208811e-06 45.99989318847656 L 0.4373986721038818 45.99989318847656 L 207.5634002685547 45.99989318847656 L 207.9998931884766 45.99989318847656 L 207.9998931884766 46.99980926513672 Z M 207.9998931884766 0.9998928308486938 L 207.5634002685547 0.9998928308486938 L 0.4373986721038818 0.9998928308486938 L 9.779188076208811e-06 0.9998928308486938 L 9.779188076208811e-06 3.919813480024459e-06 L 0.4373986721038818 3.919813480024459e-06 L 207.5634002685547 3.919813480024459e-06 L 207.9998931884766 3.919813480024459e-06 L 207.9998931884766 0.9998928308486938 Z" stroke="none" fill="#f2f2f2"/></g><text transform="translate(0 116)" fill="#ccc" font-size="14" font-family="HelveticaNeue Regular, HelveticaNeue"><tspan x="0" y="0">B</tspan></text><text transform="translate(0 23)" fill="#ccc" font-size="14" font-family="HelveticaNeue Regular, HelveticaNeue"><tspan x="0" y="0">O</tspan></text><text transform="translate(0 162)" fill="#ccc" font-size="14" font-family="HelveticaNeue Regular, HelveticaNeue"><tspan x="0" y="0">A</tspan></text><text transform="translate(0 69.333)" fill="#ccc" font-size="14" font-family="HelveticaNeue Regular, HelveticaNeue"><tspan x="0" y="0">AB</tspan></text><g transform="translate(37)"><g transform="matrix(1, 0, 0, 1, -348, -329)" filter="url(#j)"><rect width="13" height="83" rx="2" transform="translate(348 421)" fill="#e0e9ff"/></g><g transform="matrix(1, 0, 0, 1, -348, -329)" filter="url(#l)"><rect width="13" height="115" rx="2" transform="translate(391 389)" fill="#e0e9ff"/></g><rect width="13" height="60" rx="2" transform="translate(0 115)" fill="#00449d"/><rect width="13" height="83" rx="2" transform="translate(43 92)" fill="#00449d"/><g transform="translate(99 115) rotate(180)"><g transform="matrix(-1, 0, 0, -1, 447, 444)" filter="url(#n)"><rect width="13" height="60" rx="2" transform="translate(434 444)" fill="#e0e9ff"/></g><rect width="13" height="35" rx="2" transform="translate(13 -25) rotate(-180)" fill="#00449d"/></g><g transform="translate(142 35) rotate(180)"><g transform="matrix(-1, 0, 0, -1, 490, 364)" filter="url(#p)"><rect width="13" height="140" rx="2" transform="translate(477 364)" fill="#e0e9ff"/></g><rect width="13" height="127" rx="2" transform="translate(13 -13) rotate(-180)" fill="#00449d"/></g><g transform="translate(172)"><g transform="matrix(1, 0, 0, 1, -520, -329)" filter="url(#r)"><rect width="13" height="175" rx="2" transform="translate(520 329)" fill="#e0e9ff"/></g><rect width="13" height="23" rx="2" transform="translate(0 152)" fill="#00449d"/></g></g></g></g></g></svg>