<svg xmlns="http://www.w3.org/2000/svg" xmlns:xlink="http://www.w3.org/1999/xlink" width="229" height="200" viewBox="0 0 229 200"><defs><filter id="a" x="0" y="61" width="229" height="111" filterUnits="userSpaceOnUse"><feOffset dy="10" input="SourceAlpha"/><feGaussianBlur stdDeviation="10" result="b"/><feFlood flood-opacity="0.102"/><feComposite operator="in" in2="b"/><feComposite in="SourceGraphic"/></filter></defs><g transform="translate(30)"><g transform="translate(20)" fill="#fff" stroke="#d8d8d8" stroke-miterlimit="10" stroke-width="1"><rect width="169" height="200" rx="10" stroke="none"/><rect x="0.5" y="0.5" width="168" height="199" rx="9.5" fill="none"/></g><rect width="101" height="8" rx="2" transform="translate(68 20)" fill="#d8d8d8"/><g transform="matrix(1, 0, 0, 1, -30, 0)" filter="url(#a)"><rect width="169" height="51" rx="7" transform="translate(30 81)" fill="#fff"/></g><rect width="101" height="8" rx="2" transform="translate(48 96)" fill="#d8d8d8"/><rect width="71" height="8" rx="2" transform="translate(48 109)" fill="#d8d8d8"/><circle cx="9" cy="9" r="9" transform="translate(20 96)" fill="#d8d8d8"/><rect width="71" height="8" rx="2" transform="translate(68 33)" fill="#d8d8d8"/><circle cx="9" cy="9" r="9" transform="translate(40 20)" fill="#d8d8d8"/><rect width="82" height="29" rx="7" transform="translate(40 151)" fill="#00449d"/><path d="M0,.25l169,.5" transform="translate(20 61)" fill="none" stroke="#eaeaea" stroke-miterlimit="10" stroke-width="1"/></g></svg>