<svg xmlns="http://www.w3.org/2000/svg" xmlns:xlink="http://www.w3.org/1999/xlink" width="224.002" height="200" viewBox="0 0 224.002 200"><defs><filter id="a" x="0" y="61" width="111" height="111" filterUnits="userSpaceOnUse"><feOffset dy="10" input="SourceAlpha"/><feGaussianBlur stdDeviation="10" result="b"/><feFlood flood-opacity="0.102"/><feComposite operator="in" in2="b"/><feComposite in="SourceGraphic"/></filter><filter id="c" x="41" y="62" width="111" height="111" filterUnits="userSpaceOnUse"><feOffset dy="10" input="SourceAlpha"/><feGaussianBlur stdDeviation="10" result="d"/><feFlood flood-opacity="0.102"/><feComposite operator="in" in2="d"/><feComposite in="SourceGraphic"/></filter><filter id="e" x="82" y="61" width="111" height="111" filterUnits="userSpaceOnUse"><feOffset dy="10" input="SourceAlpha"/><feGaussianBlur stdDeviation="10" result="f"/><feFlood flood-opacity="0.102"/><feComposite operator="in" in2="f"/><feComposite in="SourceGraphic"/></filter></defs><g transform="translate(30)"><g transform="translate(25 0)" fill="#fff" stroke="#d8d8d8" stroke-miterlimit="10" stroke-width="1"><rect width="169" height="200" rx="10" stroke="none"/><rect x="0.5" y="0.5" width="168" height="199" rx="9.5" fill="none"/></g><rect width="101" height="8" rx="2" transform="translate(73 20)" fill="#d8d8d8"/><g transform="matrix(1, 0, 0, 1, -30, 0)" filter="url(#a)"><rect width="51" height="51" rx="25.5" transform="translate(30 81)" fill="#fff"/></g><path d="M10.5,21a23.474,23.474,0,0,1-7.489-1.143C1.182,19.231,0,18.442,0,17.848V15.74a4.183,4.183,0,0,1,1.96-3.481A15.2,15.2,0,0,1,5.5,10.519l.052-.02a17.36,17.36,0,0,1-.826-5.061A5.621,5.621,0,0,1,10.5,0a5.62,5.62,0,0,1,5.774,5.438,17.344,17.344,0,0,1-.825,5.058l.031.012C17.545,11.3,21,12.616,21,15.74v2.108c0,.6-1.182,1.385-3.011,2.011A23.488,23.488,0,0,1,10.5,21ZM6.384,12.432l-.048.018C5.062,12.917,2.1,14.173,2.1,15.74v1.424c.027.017,2.913,1.733,8.4,1.733,5.412,0,8.371-1.714,8.4-1.732V15.74c0-1.562-2.959-2.823-4.232-3.292l-.051-.019c-1.034,1.855-2.42,2.8-4.118,2.8S7.418,14.285,6.384,12.432ZM10.5,2.1A3.523,3.523,0,0,0,6.825,5.438a13.162,13.162,0,0,0,1.062,5.3c.707,1.538,1.636,2.385,2.613,2.385s1.906-.847,2.613-2.385a13.166,13.166,0,0,0,1.062-5.3A3.523,3.523,0,0,0,10.5,2.1Z" transform="translate(15 96)" fill="#d8d8d8"/><g transform="matrix(1, 0, 0, 1, -30, 0)" filter="url(#c)"><rect width="51" height="51" rx="25.5" transform="translate(71 82)" fill="#fff"/></g><path d="M9.886,21C6.477,21,2,21,2,21a2.025,2.025,0,0,1-2-2.044V10.748A2.025,2.025,0,0,1,2,8.7H5.824a1.754,1.754,0,0,0,1.418-.927C7.478,7.294,10.323.953,10.352.889A1.5,1.5,0,0,1,11.7,0a1.442,1.442,0,0,1,.667.164,7.805,7.805,0,0,1,1.2.734A3.3,3.3,0,0,1,15,3.565,17.363,17.363,0,0,1,14.674,6.5c-.056.327-.315,1.645-.326,1.7a.426.426,0,0,0,.081.36.411.411,0,0,0,.325.144h3.609a2.629,2.629,0,0,1,2.06.948,2.7,2.7,0,0,1,.514,2.272c-.007.037-1.264,5.223-1.5,5.843a4.354,4.354,0,0,1-2.063,2.483,7.73,7.73,0,0,1-3.7.749H13.5C13.082,21,11.864,21,9.886,21ZM2,10.752v8.2H4v-8.2Zm9.941-8.5h0L9.057,8.637A3.719,3.719,0,0,1,6,10.748v8.2h.135c3.288,0,7.018,0,7.392,0h.17c2.08,0,3.155-.445,3.711-1.537H17a1.025,1.025,0,0,1,0-2.049h1l.043-.171c.07-.275.144-.563.217-.854H17.5a1.024,1.024,0,0,1,0-2.048H18.78l.11-.439,0-.018c.05-.2.08-.319.082-.329a.631.631,0,0,0-.1-.544.641.641,0,0,0-.52-.208H14.753A2.393,2.393,0,0,1,12.9,9.88,2.505,2.505,0,0,1,12.387,7.8l.058-.3,0-.015,0-.015c.09-.466.24-1.245.253-1.324A16.08,16.08,0,0,0,13,3.6V3.527a1.37,1.37,0,0,0-.654-1.013c-.052-.041-.39-.252-.4-.261Z" transform="translate(56 97)" fill="#d8d8d8"/><g transform="matrix(1, 0, 0, 1, -30, 0)" filter="url(#e)"><rect width="51" height="51" rx="25.5" transform="translate(112 81)" fill="#fff"/></g><path d="M8.178,21A8.034,8.034,0,0,1,2.4,18.563,8.447,8.447,0,0,1,0,12.605c0-2.512.514-4.11,2.2-6.839a.99.99,0,0,1,.853-.487,1.023,1.023,0,0,1,1.025.944,4.824,4.824,0,0,0,.75,2.228A9.155,9.155,0,0,1,5.7,3.731,7.889,7.889,0,0,1,9.275.108,1,1,0,0,1,9.724,0a1.027,1.027,0,0,1,.794.393,1.057,1.057,0,0,1,.2.9A4.207,4.207,0,0,0,12.14,6.023c.035.032.217.167.449.338.431.319,1.021.756,1.31,1.005a6.513,6.513,0,0,1,2.435,5.239,8.463,8.463,0,0,1-2.392,5.958A8,8,0,0,1,8.178,21ZM2.773,8.985c-.031.076-.064.152-.1.23a7.4,7.4,0,0,0-.634,3.391,6.226,6.226,0,0,0,6.136,6.3,6.142,6.142,0,0,0,6.114-6.3,4.479,4.479,0,0,0-1.709-3.637c-.177-.153-.584-.456-.979-.75-.371-.276-.721-.537-.825-.633A6.178,6.178,0,0,1,8.487,3.256c-.706.707-2.257,2.806-1.37,7.024a1.062,1.062,0,0,1-.213.893,1.008,1.008,0,0,1-.785.377A4.092,4.092,0,0,1,2.773,8.985Z" transform="translate(99 96)" fill="#d8d8d8"/><rect width="71" height="8" rx="2" transform="translate(73 33)" fill="#d8d8d8"/><circle cx="9" cy="9" r="9" transform="translate(45 20)" fill="#d8d8d8"/><rect width="82" height="29" rx="7" transform="translate(45 151)" fill="#00449d"/><path d="M0,.25l169,.5" transform="translate(25 61)" fill="none" stroke="#eaeaea" stroke-miterlimit="10" stroke-width="1"/></g></svg>