<svg xmlns="http://www.w3.org/2000/svg" xmlns:xlink="http://www.w3.org/1999/xlink" width="900" height="678"
     viewBox="0 0 900 678">
    <defs>
        <clipPath id="a">
            <path d="M0,0H726.656V6.023H0Z" transform="translate(0.121 0.562)" fill="none"/>
        </clipPath>
    </defs>
    <g transform="translate(0 108)" opacity="0.4">
        <path d="M885.917,332.413c-16.726-62.3-51.956-122.988-100.861-166.094-24.706-21.777-53.6-39.2-85.439-48.138-35.44-9.945-63.418-4.57-97.9,5.63-23.052,6.82-61.888,23.387-84.461,7.431-26.558-18.772-27.474-77.435-57.839-102.9C425.493-.12,372.671-10.994,333.26,13.836,290.842,40.56,299.829,95.012,270.526,130.15c-61.032,73.19-198.04,29.28-254.154,124.082C-38.881,347.576,57.61,449.989,129.249,499.851c46.4,32.294,103.788,55.513,161.046,40.4,53.881-14.218,89.805-66.066,145.875-72.674,58.288-6.868,106.724,34.825,155.712,59.336,55.779,27.91,115.282,44.112,178.07,43.033C899.576,567.719,914.145,437.56,885.917,332.413Z"
              transform="translate(0 0)" fill="#f0f2f9"/>
    </g>
    <g transform="translate(135 644)">
        <path d="M0,0H726.656V6.023H0Z" transform="translate(0.121 0.562)" fill="none"/>
        <g clip-path="url(#a)">
            <path d="M723.575,6.023H3.082A3.048,3.048,0,0,1,0,3.012,3.047,3.047,0,0,1,3.082,0H723.575a3.047,3.047,0,0,1,3.082,3.012,3.047,3.047,0,0,1-3.082,3.011"
                  transform="translate(0.121 0.562)" fill="#676f73"/>
        </g>
    </g>
    <path d="M52,6.8C52,14.09,40.36,20,26,20S0,14.09,0,6.8V0H52Z" transform="translate(161 426) rotate(90)"
          fill="#676f73"/>
    <path d="M6.8,0C14.09,0,20,11.64,20,26S14.09,52,6.8,52H0V0Z" transform="translate(826 539)" fill="#676f73"/>
    <path d="M13,0c7.18,0,13,11.64,13,26S20.18,52,13,52,0,40.36,0,26,5.82,0,13,0" transform="translate(814 539)"
          fill="#757e82"/>
    <path d="M13,0c7.18,0,13,11.641,13,26S20.18,52,13,52,0,40.36,0,26,5.82,0,13,0" transform="translate(148 426)"
          fill="#757e82"/>
    <path d="M.812,28.751c-2.115-5.412.127-11.9,4.115-15.83C9.836,8.083,15.876,8.2,22.275,8.812,29.489,9.5,30.534.458,37.037.039c4.821-.31,8.4,1.212,16.082,4.71A18.739,18.739,0,0,0,64.281,6.137c2.255-.408,4.461-1.579,6.8-1.358a6.768,6.768,0,0,1,5.29,4.108c2.642,6.088-3.56,12.4-8.562,14.767-1.675.791-3.385,1.111-4.763,2.445-1.909,1.847-3.114,4.271-4.952,6.177a14.755,14.755,0,0,1-8.36,4.012c-3.308.521-6.435-.431-9.731-.323-3.231.106-4.422,3.291-5.832,5.679-1.695,2.871-5.074,4.856-8.231,5.742A17.678,17.678,0,0,1,13.391,46.1a17.089,17.089,0,0,1-7.358-7.525C5.22,37,4.871,35.18,3.883,33.718A26.2,26.2,0,0,1,.812,28.751"
          transform="translate(769 514)" fill="#00449d"/>
    <path d="M12.176,5.807a331.567,331.567,0,0,0,48,.58c12.449-.992,10-3.192,3-4.643s-56-2.612-60.5-.871S-1.86,4.461,12.176,5.807Z"
          transform="matrix(0.996, 0.087, -0.087, 0.996, 509.657, 602.017)" fill="#bebebe" opacity="0.4"/>
    <path d="M15.136,132.944C4.686,127.709-.654,114.988.064,103.731c.884-13.857,10.13-21.826,20.575-29.55,11.773-8.707,1.2-23.632,10.421-33.032C37.9,34.18,45.331,31.62,61.578,26.489A38.066,38.066,0,0,0,80.234,13.5c2.843-3.652,4.589-8.379,8.4-11.2s9.253-2.923,13.476-1c12.152,5.535,11.306,23.343,6.955,33.625-1.458,3.442-3.6,6.227-3.879,10.081-.391,5.337,1.052,10.586.849,15.915-.242,6.351-3.219,12.413-7.186,17.278-4.276,5.243-10.261,8.039-15.073,12.647-4.717,4.518-2.232,10.887-1.144,16.359,1.308,6.577-1.109,14.1-4.669,19.688a35.914,35.914,0,0,1-20.6,15.009,34.49,34.49,0,0,1-21.178-1.32c-3.344-1.263-6.311-3.509-9.76-4.361-3.823-.944-7.732-1.5-11.293-3.281"
          transform="translate(724 408)" fill="#3369b1"/>
    <path d="M74.827,0c-.277.024-.3.222-.412.354l-.295.433-.59.865L72.351,3.383,70,6.852l-4.674,6.955Q60.708,20.8,56.148,27.828C50.076,37.207,44.086,46.636,38.1,56.066S26.159,74.946,20,84.256c-3.065,4.662-6.2,9.277-9.485,13.778-1.653,2.24-3.345,4.451-5.116,6.594S1.845,108.879,0,111c.572-.407,1.135-.833,1.677-1.281.524-.466,1.062-.923,1.563-1.415s.992-1,1.477-1.5.931-1.05,1.4-1.574c1.806-2.147,3.517-4.366,5.193-6.609C14.634,94.113,17.8,89.5,20.9,84.85c6.161-9.329,12.114-18.783,18.057-28.242S50.847,37.7,56.874,28.3q4.509-7.058,9.079-14.077l4.555-7.029L72.8,3.683l1.149-1.751.574-.876.288-.437c.078-.159.252-.252.169-.517Z"
          transform="translate(743 428)" fill="#fff"/>
    <path d="M6.875,32a40.677,40.677,0,0,0,1.1-8.44,43.884,43.884,0,0,0-.539-8.535,39.273,39.273,0,0,0-.957-4.185A30.975,30.975,0,0,0,4.956,6.829,24.851,24.851,0,0,0,2.811,3.14,20.092,20.092,0,0,0,0,0,32.806,32.806,0,0,1,2.252,3.51c.168.3.318.614.478.92s.307.617.443.935c.3.621.553,1.263.805,1.9a41.41,41.41,0,0,1,2.093,7.995A61.994,61.994,0,0,1,6.8,23.554a82.647,82.647,0,0,1-.235,8.385Z"
          transform="translate(751 485)" fill="#fff"/>
    <path d="M6.875,32a40.681,40.681,0,0,0,1.1-8.44,43.876,43.876,0,0,0-.539-8.534,39.239,39.239,0,0,0-.957-4.185A30.993,30.993,0,0,0,4.956,6.829,24.856,24.856,0,0,0,2.811,3.14,20.145,20.145,0,0,0,0,0,32.957,32.957,0,0,1,2.251,3.51c.169.3.318.614.478.92s.307.617.443.935c.3.62.552,1.263.805,1.9a41.462,41.462,0,0,1,2.093,7.994A62.009,62.009,0,0,1,6.8,23.555a82.653,82.653,0,0,1-.235,8.385Z"
          transform="translate(775 450)" fill="#fff"/>
    <path d="M37,.127a53.939,53.939,0,0,0-9.97.257,60.21,60.21,0,0,0-9.815,1.907c-1.611.445-3.187,1.008-4.748,1.6A43.561,43.561,0,0,0,7.925,6.01,35.948,35.948,0,0,0,3.706,8.692,29.164,29.164,0,0,0,0,12,49.151,49.151,0,0,1,4.087,9.249c.347-.214.71-.406,1.063-.61s.711-.4,1.078-.58.72-.384,1.086-.562l1.105-.524A61.979,61.979,0,0,1,17.6,3.636a86.343,86.343,0,0,1,9.59-2.076c3.238-.514,6.511-.9,9.8-1.113Z"
          transform="translate(775 482)" fill="#fff"/>
    <path d="M31,.587A26.1,26.1,0,0,0,26.8.051a35.924,35.924,0,0,0-4.24.024A37.206,37.206,0,0,0,10.227,2.963a35.787,35.787,0,0,0-3.753,1.9A29.31,29.31,0,0,0,0,10,54.545,54.545,0,0,1,7.023,5.781a46.949,46.949,0,0,1,7.61-2.941,50.738,50.738,0,0,1,8.045-1.611A51.96,51.96,0,0,1,30.946.894Z"
          transform="translate(755 514)" fill="#fff"/>
    <path d="M54,27A27,27,0,1,1,27,0,27,27,0,0,1,54,27" transform="translate(171 266)" fill="#757e82"/>
    <path d="M0,159H2V0H0Z" transform="translate(372 229)" fill="#778ba4" opacity="0.6"/>
    <path d="M0,159H2V0H0Z" transform="translate(366 229)" fill="#778ba4" opacity="0.6"/>
    <path d="M0,159H4V0H0Z" transform="translate(358 229)" fill="#778ba4" opacity="0.6"/>
    <path d="M537.419,150H416.025a15.574,15.574,0,0,1-15.559-15.554V111.574a8.406,8.406,0,0,0-8.4-8.395H363.212a15.575,15.575,0,0,1-15.56-15.554V25.806A18.672,18.672,0,0,0,329,7.159H3.581A3.579,3.579,0,1,1,3.581,0H329a25.84,25.84,0,0,1,25.815,25.806V87.625a8.406,8.406,0,0,0,8.4,8.4h28.855a15.575,15.575,0,0,1,15.56,15.554v22.872a8.4,8.4,0,0,0,8.4,8.395H537.419a3.579,3.579,0,1,1,0,7.159"
          transform="translate(275 425)" fill="#bebebe" opacity="0.2"/>
    <path d="M642.461,364h-62.87a48.167,48.167,0,0,1-48.135-48.089v-33.2a12.336,12.336,0,0,0-12.327-12.315H285.962A48.167,48.167,0,0,1,237.827,222.3V155.709a48.167,48.167,0,0,1,48.135-48.089H422.446A12.335,12.335,0,0,0,434.773,95.3V48.089a12.336,12.336,0,0,0-12.327-12.315H48.135A12.336,12.336,0,0,0,35.808,48.089V72.74A17.9,17.9,0,0,1,0,72.74V48.089A48.167,48.167,0,0,1,48.135,0H422.446a48.167,48.167,0,0,1,48.135,48.089V95.3a48.167,48.167,0,0,1-48.135,48.089H285.962a12.336,12.336,0,0,0-12.327,12.315V222.3a12.335,12.335,0,0,0,12.327,12.315H519.128a48.167,48.167,0,0,1,48.135,48.089v33.2a12.335,12.335,0,0,0,12.327,12.315h62.87c9.888,0,11.539,8.009,11.539,17.887S652.349,364,642.461,364Z"
          transform="translate(180 219)" fill="#d8d8d8"/>
    <path d="M20.922.648c-1.184.572-4.909,4.641-6.3,6.518l-1.04-1.015S-2.18,24.169.256,32.468c1.926,6.562,8.774,27,13.561,26.524s7.726-3.952,3.19-12.82c-3.975-7.769-5.451-13.281-7.384-14.81L18.6,11.041l-.969-.944a1.78,1.78,0,0,1,1.715-.316c1.219.629,9.64-1.936,9.657-4.988S25.128-1.384,20.922.648"
          transform="translate(427 335)" fill="#a9aeb5"/>
    <path d="M10.211,48.18A38.066,38.066,0,0,1,48.232,10.155H422.85A38.066,38.066,0,0,1,460.871,48.18v47.3a38.066,38.066,0,0,1-38.021,38.025h-136.6A22.518,22.518,0,0,0,263.763,156v66.719a22.518,22.518,0,0,0,22.491,22.493H519.612a38.066,38.066,0,0,1,38.021,38.025v33.267A22.518,22.518,0,0,0,580.124,339h73.933c-1.5-6.82-3.9-10.155-11.011-10.155H580.124a12.352,12.352,0,0,1-12.337-12.338V283.24a48.232,48.232,0,0,0-48.175-48.18H286.254a12.352,12.352,0,0,1-12.337-12.338V156a12.352,12.352,0,0,1,12.337-12.338h136.6a48.232,48.232,0,0,0,48.175-48.18V48.18A48.232,48.232,0,0,0,422.85,0H48.232A48.232,48.232,0,0,0,.057,48.18v24.7C-.443,81,2.347,86.185,8.557,89c-.245-10.07,1.654-16.122,1.654-16.122Z"
          transform="translate(179.943 218)" fill="#bebebe"/>
    <path d="M0,46l213-1.414s-39.76-2.827-52.54-18.377S143.421-3.479,119.281.763s-24.14,31.1-42.6,25.446-26.98-9.9-36.92-8.483S7.1,37.518,0,46"
          transform="translate(687 248)" fill="#ebeff8"/>
    <path d="M8.973,0S4.222,46.694,4.816,53.279c0,0-5.938,11.973-4.156,49.687-.594,2.993.3,3.592-.3,4.789s-.891,3.592,2.672,3.592,7.125.6,5.938-1.8-2.375-1.8-2.375-4.789S15.5,53.279,17.879,46.694s5.938-25.143,5.938-25.143,4.75,29.333,6.531,34.123A231.446,231.446,0,0,0,29.5,83c.3,8.268,2.588,18.882,2.5,20.5-.038.691,1.28-.089,1.5.5.286.766-.5,2.854-.5,3.31,0,2.993,2,3.19,2,3.19s5.125-.2,7.5,1,8.036.446,7.443-.751S42.094,105.2,41.5,104c-.06-.12,1.566.031,1.5-.5-.588-4.764-2.973-25.321-1.37-38.248C43.411,50.885,41.036,6.585,39.255,0Z"
          transform="translate(520 500)" fill="#747d8f"/>
    <path d="M30.286,1.843A5.126,5.126,0,0,0,30.5.07H1c-.544-.5-.669,1.722-1,5,2.29.44,6.483.523,11.6.908C19.433,6.569,29.08,4.206,30.286,1.843Z"
          transform="translate(528.5 499.93)" fill="#454952"/>
    <path d="M11,0,8.824,8,0,6.009,1.1,1.481Z" transform="translate(535 441)" fill="#ef9269"/>
    <path d="M2.808,0C2.675.588.413,10.57.413,10.57s-2.3,7.5,3.942,9.012,9.874-1.32,10.672-4.843a3.681,3.681,0,0,0,3.923-3.181A2.711,2.711,0,0,0,17.569,8.6a3.017,3.017,0,0,0-3.047.445L13.017,2.48Z"
          transform="translate(533 424)" fill="#faae84"/>
    <path d="M14.627,19s2.121-3.585,4.238-1.986c0,0,4.309-10.381-3.864-12.917l-3.562-.833C9.658,2.847,5.956,2.606,6.375.83S-.889-.244,1.874,6.648c0,0-2.785,5.04-1.565,6.865C.432,13.7,1,15,1,15S2.5,9,3.5,8.5c1.5,2,8.034,2.218,9.665,2.007C13.165,10.507,11.483,16.391,14.627,19Z"
          transform="translate(533 417)" fill="#402b2c"/>
    <path d="M2.2,0A.814.814,0,0,1,2.96.552C3.2,1.234,3.7,2.3,4.464,2.3c1.116,0,3.348,2.88,2.232,5.184s-3.348,2.88-4.464,2.3S0,2.88,0,1.728A1.5,1.5,0,0,1,1.674,0Z"
          transform="translate(575 493)" fill="#faae84"/>
    <path d="M31.134,21.349,6.846,26.938a2.412,2.412,0,0,1-2.893-1.789L.063,8.521a2.39,2.39,0,0,1,1.8-2.87L26.155.062a2.412,2.412,0,0,1,2.893,1.789l3.889,16.628a2.391,2.391,0,0,1-1.8,2.87"
          transform="translate(565 501)" fill="#825238"/>
    <path d="M31.134,21.349,6.846,26.938a2.412,2.412,0,0,1-2.893-1.789L.063,8.521a2.39,2.39,0,0,1,1.8-2.87L26.155.062a2.412,2.412,0,0,1,2.893,1.789l3.889,16.628a2.391,2.391,0,0,1-1.8,2.87"
          transform="translate(564 502)" fill="#ad6e4a"/>
    <path d="M.431,7,.077,4.782a3.442,3.442,0,0,1,.5-2.627A3.6,3.6,0,0,1,2.859.607L5.339.081a3.62,3.62,0,0,1,4.3,2.724L10,4.952,8.225,5.24l-.353-2.1a1.757,1.757,0,0,0-.784-1.082,1.841,1.841,0,0,0-1.37-.245l-2.479.526a1.814,1.814,0,0,0-1.146.779,1.753,1.753,0,0,0-.249,1.346l.363,2.267Z"
          transform="translate(574 498)" fill="#825238"/>
    <path d="M3.9,0s1.951,2.472.65,3.708S2.6,1.854,1.3,1.854,0,0,0,0Z" transform="translate(576 497)" fill="#faae84"/>
    <path d="M76.991,65.985c-.35-4.739.281-8.907-3.407-17.537C69.829,39.662,59.66,28.624,56.639,25.456a12.612,12.612,0,0,0-1.905-1.642,33.417,33.417,0,0,0-7.259-4.02,26.014,26.014,0,0,0-5.376-.845c-3.525.845-5.9.248-8.458-.341-.8-.008-1.369-.008-1.6-.008-1.019,0-6.412.882-9.043,3.021-2.072-1.565-7.949-5.874-9.946-6.006,0,0-5.627-13.51-7.7-14.952a3.934,3.934,0,0,0-2.917-.6C1.5.207-.05.931,0,1.885c.2,3.8,1.945,14.421,5.341,19.7,4.035,6.272,15.231,15.743,18.1,18.776l0,.028c1.78,2.985,2.374,31.042,3.56,33.429s5.637,1.492,13.352,2.089,17.209-1.791,18.4-4.179S55.782,37.7,55.782,37.7s4.747,9.551,9.495,13.133c.943,4.74,3.847,11.858,5.736,16.555a3.106,3.106,0,0,0,5.979-1.405"
          transform="translate(502 427)" fill="#00449d"/>
    <path d="M9.911,10.987a.913.913,0,0,1-.926-.4c-.389-.623-1.132-1.58-1.951-1.44C5.832,9.35-.7,5.2.062,2.739S4.948-1.274,8.019,1.4c1,.872,3.713,6.36,3.931,7.489s-.274,1.795-1.475,2Z"
          transform="translate(494 419)" fill="#faae84"/>
    <path d="M.883,6.816A.989.989,0,0,0,1.957,7.2c.824-.231,2.2-.472,2.751.3.8,1.132,9.465,2.72,10.86-.024S14.913.117,10.248,0C8.727-.037,2.052,2.572.953,3.378A1.856,1.856,0,0,0,.507,6.285Z"
          transform="translate(483 417)" fill="#f2a980"/>
    <path d="M1.767,10.889a.976.976,0,0,0,1.118-.15c.624-.578,1.734-1.418,2.556-.991,1.207.627,9.542-1.929,9.559-4.971S11.166-1.379,7,.646c-1.356.66-6.084,5.991-6.7,7.2A1.82,1.82,0,0,0,1.2,10.6Z"
          transform="translate(439 334)" fill="#f2a980"/>
    <path d="M52,6.8C52,14.09,40.36,20,26,20S0,14.09,0,6.8V0H52Z" transform="translate(498 641)" fill="#676f73"/>
    <path d="M52,13c0,7.18-11.64,13-26,13S0,20.18,0,13,11.64,0,26,0,52,5.82,52,13" transform="translate(498 628)"
          fill="#757e82"/>
    <path d="M371.9,214.66c-9.888,0-17.706-2.252-17.706-12.16V132.11a5.324,5.324,0,0,0-5.312-5.323H165.346a41.21,41.21,0,0,1-41.12-41.207V41.206a5.323,5.323,0,0,0-5.311-5.323H13.627C3.739,35.883,0,27.85,0,17.942S3.739,0,13.627,0H118.914a41.209,41.209,0,0,1,41.119,41.206V85.58a5.324,5.324,0,0,0,5.313,5.324H348.881A41.209,41.209,0,0,1,390,132.11V202.5C390,212.409,381.786,214.66,371.9,214.66Z"
          transform="translate(152 433)" fill="#d8d8d8"/>
    <path d="M12.176,10.006c14.036,2.319,35.551,2.709,48,1s10-5.5,3-8-56-4.5-60.5-1.5S-1.86,7.687,12.176,10.006Z"
          transform="translate(414 529)" fill="#bebebe" opacity="0.6"/>
    <path d="M26.976,11s.6-4.019-4.229-5.167c0,0-7.249-.574-10.27-4.593C11.269-.482,10.665.092,10.665.092H2.811A8.121,8.121,0,0,1,1,4.685C-.814,6.981.395,11,.395,11Z"
          transform="translate(446 527)" fill="#747d8f"/>
    <path d="M26,15s-.6-6.6-9.07-6.6c-.6,0-1.814-4.8-3.023-6S7.256,0,7.256,0L0,6l10.884,9Z"
          transform="translate(419 522)" fill="#747d8f"/>
    <path d="M8,0,7.18,6H0V0Z" transform="translate(449 521)" fill="#faae84"/>
    <path d="M10,.615,6.25,8,0,6.154,1.875,0Z" transform="translate(426 516)" fill="#faae84"/>
    <path d="M4.167,1.191S10.119,36.34,12.5,41.7c0,0-8.929,7.745-12.5,41.7H1.19l8.929.6,9.474-24.826L25,32.17s-7.143-26.809-7.738-27.4S8.929,0,8.929,0Z"
          transform="translate(426 433)" fill="#747d8f"/>
    <path d="M9.5,42.5C7.145,37.108,1,1.5,1,1.5L6.1,0s7.653,4.193,8.242,4.792S22,32.349,22,32.349L16.653,59.5l-.068.182L0,66C4.063,46.853,9.637,41.934,9.637,41.934Z"
          transform="translate(429 432)" fill="#5f6571"/>
    <path d="M22.548,0s2.967,31.582,2.373,39.925S23.141,87,23.141,87H13.054s-4.154-31.582,0-43.5L0,0Z"
          transform="translate(435 434)" fill="#747d8f"/>
    <path d="M4.782,0s.944.5,2.2,1.166H26.9s.038.392.1,1.094L1.039,7C.4,3.483,0,1.166,0,1.166Z"
          transform="translate(430 433)" fill="#454952" opacity="0.5"/>
    <path d="M18.342,4.9,13.4,0S-2.15,18.07.252,26.392c1.9,6.581,8.654,27.073,13.375,26.6s7.621-3.964,3.146-12.858C12.854,32.344,11.4,26.816,9.49,25.282Z"
          transform="translate(425 340)" fill="#606060"/>
    <path d="M31.808,61H0A132.488,132.488,0,0,0,4.2,37.311c1.2-13.621,3-20.728,5.4-25.466S13.8,7.7,15,4.146,16.8,0,16.8,0s10.2,2.369,10.8,8.291,5.4,39.68,4.2,52.709"
          transform="translate(428 373)" fill="#c0bfbf"/>
    <path d="M37,33.058,36.641,40S12.845,37.634,9,29.97C5.958,23.909-2.886,4.459.947,1.555S9.3-.821,11.988,8.682C14.345,17.006,17,22,16.622,24.42Z"
          transform="translate(449 385)" fill="#606060"/>
    <path d="M7.92,12a4.189,4.189,0,0,1,5.1-.431c2.922,1.735,1.753-2.314,1.753-2.314L8.341,0s-6.809,6.583-7.2,7.051S-.424,8.676.161,8.676,7.92,12,7.92,12"
          transform="translate(447 366)" fill="#ef9269"/>
    <path d="M10.742,19c1.793,0,3.586-2.375,4.184-4.156l2.391-.594.6-2.375L19,9.5l2.5-7.125L11.34,0H0S3.5,6,4.766,8.906C4.883,9.489,6.559,18.406,10.742,19Z"
          transform="translate(451.5 360)" fill="#faae84"/>
    <path d="M8.933,19.423s1.816-4.184-1.211-4.782S5.3,17.032,5.3,19.423s-3.632,1.793-4.237,0S-3.173,3.881,7.722.892,21.644,3.283,22.25,4.479s1.816,6.575,3.632,8.369a4.411,4.411,0,0,1-2.2,7.209c-3.85,1.16-1.883-4.071-2.564-4.444s-6.129-.374-7.339.224-4.237,4.782-4.842,3.587"
          transform="translate(450 350)" fill="#412c2c"/>
    <path d="M.315,4.706s3.411,1.176,3.98-1.176S4.295,0,2.021,0C1.155.128.955.368.955.368L0,4.5Z"
          transform="translate(470.5 365)" fill="#322424"/>
    <path d="M138.135,77H14.864A14.869,14.869,0,0,1,0,62.125V14.875A14.869,14.869,0,0,1,14.864,0H138.135A14.87,14.87,0,0,1,153,14.875v47.25A14.87,14.87,0,0,1,138.135,77"
          transform="translate(249 343)" fill="#8095b0"/>
    <path d="M0,0V26.974A14.946,14.946,0,0,0,14.864,42H138.135A14.946,14.946,0,0,0,153,26.974V0Z"
          transform="translate(249 378)" fill="#778ba4"/>
    <circle cx="13" cy="13" r="13" transform="translate(316 369)" fill="#ededed"/>
    <circle cx="9" cy="9" r="9" transform="translate(320 373)" fill="#e7e3e3"/>
    <path d="M3.564,86A3.569,3.569,0,0,1,0,82.428V68.756a9.166,9.166,0,0,1,9.26-9.049H35.74a2.029,2.029,0,0,0,2.131-1.9V53.419a2.03,2.03,0,0,0-2.131-1.905H9.477a9.166,9.166,0,0,1-9.26-9.049V38.836a9.166,9.166,0,0,1,9.26-9.049H35.74a2.029,2.029,0,0,0,2.131-1.9V24.536a2.029,2.029,0,0,0-2.131-1.9H9.477a9.166,9.166,0,0,1-9.26-9.049V3.572a3.564,3.564,0,1,1,7.129,0V13.583a2.031,2.031,0,0,0,2.131,1.905H35.74A9.166,9.166,0,0,1,45,24.536v3.346a9.166,9.166,0,0,1-9.26,9.048H9.477a2.03,2.03,0,0,0-2.131,1.905v3.629A2.03,2.03,0,0,0,9.477,44.37H35.74A9.166,9.166,0,0,1,45,53.419V57.8a9.166,9.166,0,0,1-9.26,9.048H9.26a2.03,2.03,0,0,0-2.131,1.905V82.428A3.569,3.569,0,0,1,3.564,86"
          transform="translate(345 256)" fill="#9eb2b7"/>
    <path d="M143.779,78.279c6.554-9.732,4.955-23.5-1.217-33.006-7.6-11.7-19.6-14.122-32.532-15.741C95.453,27.708,97.34,9.429,84.655,5.74,75.249,3,67.493,4.426,50.768,7.936a38.13,38.13,0,0,1-22.7-2.182C23.79,3.957,19.936.678,15.211.084s-9.524,2-12.267,5.766C-4.947,16.683,4.561,31.86,13.428,38.721c2.969,2.3,6.21,3.682,8.354,6.917,2.97,4.481,4.3,9.788,7.1,14.354,3.339,5.442,8.925,9.285,14.789,11.59,6.319,2.485,12.924,1.985,19.4,3.65,6.347,1.633,7.312,8.434,9.056,13.761,2.1,6.4,7.915,11.8,13.776,14.941a35.98,35.98,0,0,0,25.393,3,34.544,34.544,0,0,0,17.855-11.589c2.3-2.752,3.786-6.181,6.38-8.626,2.876-2.71,6.019-5.12,8.252-8.436"
          transform="translate(170 555)" fill="#00449d"/>
    <path d="M148.626,298.367c22.94-5.747,39.078-28.5,42.607-51.012,4.344-27.717-10.412-47.486-27.645-67.3-19.425-22.33,8.015-47.137-6.063-69.716C147.087,93.6,133.531,85.3,103.7,68.057A76.9,76.9,0,0,1,72.563,34.273C68.554,25.824,67.183,15.737,60.89,8.5,54.615,1.275,43.9-1.321,34.713.624,8.282,6.219,2.125,41.711,6.2,63.9c1.364,7.428,4.366,13.858,3.229,21.582C7.853,96.176,2.7,105.9.757,116.5c-2.314,12.631.9,25.892,6.6,37.226,6.141,12.216,16.731,20.35,24.21,31.549,7.33,10.977-.377,22.449-4.931,32.765-5.472,12.4-4.008,28.3.567,40.876,6.012,16.524,18.585,30.4,34.087,38.628,12.788,6.788,27.945,8.746,42.4,6.675,7.158-1.025,14.006-4.155,21.19-4.324,7.966-.187,15.929.434,23.745-1.524"
          transform="translate(225 345)" fill="#3369b1"/>
    <path d="M.463,0c.537.17.49.568.662.88l.394.984.788,1.968L3.883,7.768l3.136,7.879,6.207,15.783q6.083,15.831,12.031,31.712c7.913,21.181,15.642,42.429,23.363,63.675,7.752,21.234,15.369,42.517,23.479,63.6,4.029,10.549,8.212,21.039,12.747,31.365,2.293,5.15,4.676,10.258,7.247,15.265S97.274,247,100,252c-.954-1.055-1.883-2.141-2.762-3.265-.836-1.15-1.7-2.289-2.479-3.481s-1.528-2.4-2.267-3.618c-.71-1.231-1.385-2.481-2.079-3.722-2.637-5.033-5.054-10.165-7.391-15.328-4.615-10.352-8.869-20.845-12.964-31.391-8.112-21.123-15.758-42.4-23.378-63.685S31.424,84.954,23.61,63.746Q17.774,47.832,11.8,31.967L5.861,16.09l-3-7.929L1.355,4.2.6,2.22.225,1.229C.141.883-.165.623.117.135Z"
          transform="translate(269 386)" fill="#fff"/>
    <path d="M.032,59.979A79.93,79.93,0,0,1,1.513,42.851,86.388,86.388,0,0,1,6.35,26.271a76.969,76.969,0,0,1,3.776-7.818,61.719,61.719,0,0,1,4.839-7.223,49.9,49.9,0,0,1,5.964-6.307A41.035,41.035,0,0,1,28,0a66.3,66.3,0,0,0-6.1,5.9c-.474.518-.914,1.069-1.371,1.6s-.893,1.079-1.308,1.644c-.878,1.089-1.673,2.24-2.466,3.388A82.014,82.014,0,0,0,9.006,27.35,122.269,122.269,0,0,0,3.892,43.368,162.712,162.712,0,0,0,.688,60Z"
          transform="translate(348 527)" fill="#fff"/>
    <path d="M.032,59.979A79.933,79.933,0,0,1,1.514,42.851,86.347,86.347,0,0,1,6.35,26.271a76.971,76.971,0,0,1,3.776-7.818,61.65,61.65,0,0,1,4.839-7.223,49.981,49.981,0,0,1,5.963-6.307A41,41,0,0,1,28,0a66,66,0,0,0-6.1,5.9c-.474.517-.914,1.068-1.371,1.6s-.893,1.079-1.308,1.644c-.877,1.089-1.673,2.24-2.466,3.388A82.036,82.036,0,0,0,9.007,27.35,122.057,122.057,0,0,0,3.892,43.368,162.719,162.719,0,0,0,.688,60Z"
          transform="translate(316 448)" fill="#fff"/>
    <path d="M.129,0A110.969,110.969,0,0,1,20.013,4.9a123.574,123.574,0,0,1,18.83,8.127c3.031,1.6,5.939,3.416,8.8,5.293A88.692,88.692,0,0,1,55.8,24.545a73.335,73.335,0,0,1,7.256,7.215A59.374,59.374,0,0,1,69,40a100.156,100.156,0,0,0-6.957-7.294c-.6-.581-1.241-1.124-1.857-1.687s-1.247-1.112-1.9-1.633-1.27-1.083-1.925-1.6l-1.98-1.533a126.864,126.864,0,0,0-16.92-10.711,177.325,177.325,0,0,0-18.3-8.365C12.892,4.726,6.5,2.52,0,.643Z"
          transform="translate(255 496)" fill="#fff"/>
    <path d="M.036,0a50.892,50.892,0,0,1,8.55.726,69.431,69.431,0,0,1,8.375,1.9A74.127,74.127,0,0,1,32.8,9.3a75.644,75.644,0,0,1,7.222,4.692,71.235,71.235,0,0,1,6.544,5.57A59.7,59.7,0,0,1,57,33,109.216,109.216,0,0,0,45.061,21.212a92.417,92.417,0,0,0-13.692-9.4A98.82,98.82,0,0,0,16.2,4.964,100.8,100.8,0,0,0,0,.664Z"
          transform="translate(294 571)" fill="#fff"/>
    <path d="M0,63l290-1.936s-54.133-3.872-71.533-25.17S195.267-4.764,162.4,1.044s-32.867,42.594-58,34.85S67.667,22.342,54.133,24.278,9.667,51.383,0,63"
          transform="translate(72)" fill="#ebeff8"/>
    <path d="M0,6H16V0H0Z" transform="translate(341 253)" fill="#9eb2b7"/>
    <path d="M0,6H16V0H0Z" transform="translate(341 337)" fill="#9eb2b7"/>
</svg>