<svg xmlns="http://www.w3.org/2000/svg" xmlns:xlink="http://www.w3.org/1999/xlink" width="269" height="220" viewBox="0 0 269 220"><defs><filter id="a" x="0" y="61" width="229" height="111" filterUnits="userSpaceOnUse"><feOffset dy="10" input="SourceAlpha"/><feGaussianBlur stdDeviation="10" result="b"/><feFlood flood-opacity="0.102"/><feComposite operator="in" in2="b"/><feComposite in="SourceGraphic"/></filter><filter id="c" x="40" y="109" width="229" height="111" filterUnits="userSpaceOnUse"><feOffset dy="10" input="SourceAlpha"/><feGaussianBlur stdDeviation="10" result="d"/><feFlood flood-opacity="0.102"/><feComposite operator="in" in2="d"/><feComposite in="SourceGraphic"/></filter></defs><g transform="translate(30)"><g transform="translate(20)" fill="#fff" stroke="#d8d8d8" stroke-miterlimit="10" stroke-width="1"><rect width="169" height="200" rx="10" stroke="none"/><rect x="0.5" y="0.5" width="168" height="199" rx="9.5" fill="none"/></g><circle cx="6.5" cy="6.5" r="6.5" transform="translate(44 53)" fill="#d8d8d8"/><circle cx="6.5" cy="6.5" r="6.5" transform="translate(71 53)" fill="#00449d"/><circle cx="6.5" cy="6.5" r="6.5" transform="translate(98 53)" fill="#d8d8d8"/><circle cx="6.5" cy="6.5" r="6.5" transform="translate(125 53)" fill="#d8d8d8"/><circle cx="6.5" cy="6.5" r="6.5" transform="translate(152 53)" fill="#d8d8d8"/><rect width="81" height="8" rx="2" transform="translate(64 25)" fill="#d8d8d8"/><g transform="matrix(1, 0, 0, 1, -30, 0)" filter="url(#a)"><rect width="169" height="51" rx="7" transform="translate(30 81)" fill="#fff"/></g><g transform="matrix(1, 0, 0, 1, -30, 0)" filter="url(#c)"><rect width="169" height="51" rx="7" transform="translate(70 129)" fill="#fff"/></g><rect width="101" height="8" rx="2" transform="translate(48 96)" fill="#d8d8d8"/><rect width="71" height="8" rx="2" transform="translate(48 109)" fill="#d8d8d8"/><circle cx="9" cy="9" r="9" transform="translate(20 96)" fill="#d8d8d8"/><rect width="101" height="8" rx="2" transform="translate(88 144)" fill="#d8d8d8"/><rect width="71" height="8" rx="2" transform="translate(88 157)" fill="#d8d8d8"/><circle cx="9" cy="9" r="9" transform="translate(60 144)" fill="#00449d"/><path d="M0,1.582,3.211,4.8,8,0" transform="translate(65 151)" fill="none" stroke="#fff" stroke-miterlimit="10" stroke-width="2"/><path d="M6.864,0,0,7l6.864,7" transform="translate(41 22)" fill="none" stroke="#d8d8d8" stroke-miterlimit="10" stroke-width="2"/><path d="M-6.864,0,0,7l-6.864,7" transform="translate(167.864 22)" fill="none" stroke="#d8d8d8" stroke-miterlimit="10" stroke-width="2"/></g></svg>