<svg xmlns="http://www.w3.org/2000/svg" xmlns:xlink="http://www.w3.org/1999/xlink" width="1265.099" height="813" viewBox="0 0 1265.099 813"><defs><filter id="a" x="356.635" y="290" width="522" height="386" filterUnits="userSpaceOnUse"><feOffset dy="10" input="SourceAlpha"/><feGaussianBlur stdDeviation="10" result="b"/><feFlood flood-opacity="0.102"/><feComposite operator="in" in2="b"/><feComposite in="SourceGraphic"/></filter><filter id="c" x="175" y="215" width="447.464" height="180.553" filterUnits="userSpaceOnUse"><feOffset dy="10" input="SourceAlpha"/><feGaussianBlur stdDeviation="10" result="d"/><feFlood flood-opacity="0.102"/><feComposite operator="in" in2="d"/><feComposite in="SourceGraphic"/></filter><filter id="e" x="187" y="226" width="154" height="154" filterUnits="userSpaceOnUse"><feOffset dy="10" input="SourceAlpha"/><feGaussianBlur stdDeviation="10" result="f"/><feFlood flood-opacity="0.102"/><feComposite operator="in" in2="f"/><feComposite in="SourceGraphic"/></filter><filter id="g" x="817.635" y="0" width="447.464" height="180.553" filterUnits="userSpaceOnUse"><feOffset dy="10" input="SourceAlpha"/><feGaussianBlur stdDeviation="10" result="h"/><feFlood flood-opacity="0.102"/><feComposite operator="in" in2="h"/><feComposite in="SourceGraphic"/></filter><filter id="i" x="743.635" y="257" width="432" height="209" filterUnits="userSpaceOnUse"><feOffset dy="10" input="SourceAlpha"/><feGaussianBlur stdDeviation="10" result="j"/><feFlood flood-opacity="0.102"/><feComposite operator="in" in2="j"/><feComposite in="SourceGraphic"/></filter><clipPath id="k"><rect width="372" height="68" fill="none"/></clipPath><filter id="l" x="712" y="514" width="200.589" height="200.589" filterUnits="userSpaceOnUse"><feOffset dy="10" input="SourceAlpha"/><feGaussianBlur stdDeviation="10" result="m"/><feFlood flood-opacity="0.102"/><feComposite operator="in" in2="m"/><feComposite in="SourceGraphic"/></filter></defs><g transform="translate(-0.365 20)"><path d="M938.531,373.92c-10.912-26.279-19.844-53.679-23.578-81.977-3.667-27.791,7.248-58.685,2.321-84.6-8.5-44.711-68.354-55.465-100.885-75.471C732.025,79.989,641.629-32.267,529.194,8.885c-118.249,43.275-57.967,196.982-119.315,280.3C325.734,403.47,210,356.389,94.037,389.538,46.446,403.142-5.556,435.02.48,491.86,5.72,541.2,67.067,586.449,103.893,613.955c86.873,64.888,204.759,108.309,314.4,97.355,62.383-6.231,107.683-47.117,166.178-64.327,57.83-17.015,117.468-18.871,174.843-39.735C861.174,570.209,992.249,503.279,938.531,373.92Z" transform="translate(0.365 80)" fill="#f0f2f9" opacity="0.3"/><g transform="translate(236.365 260)"><g transform="translate(0 27.559)"><ellipse cx="186.204" cy="7.669" rx="186.204" ry="7.669" transform="translate(125.04 334.707)" fill="#d8d9d9" opacity="0.2"/><ellipse cx="52" cy="7.669" rx="52" ry="7.669" transform="translate(0.635 327.441)" fill="#d8d9d9" opacity="0.2"/><g transform="matrix(1, 0, 0, 1, -236, -307.56)" filter="url(#a)"><path d="M413.5,326H48.5a48.783,48.783,0,0,1-34.3-14.045A47.688,47.688,0,0,1,0,278.043V47.957A47.688,47.688,0,0,1,14.206,14.046,48.783,48.783,0,0,1,48.5,0h365a48.78,48.78,0,0,1,34.3,14.046A47.684,47.684,0,0,1,462,47.957V278.043a47.194,47.194,0,0,1-3.811,18.667,47.768,47.768,0,0,1-10.394,15.244A48.625,48.625,0,0,1,413.5,326ZM327,10a11,11,0,1,0,11,11A11.012,11.012,0,0,0,327,10Zm-96,0a11,11,0,1,0,11,11A11.013,11.013,0,0,0,231,10Zm-92,0a11,11,0,1,0,11,11A11.012,11.012,0,0,0,139,10Z" transform="translate(386.63 310)" fill="#92a0b5"/></g><path d="M406.157,317.474H33.072A33.153,33.153,0,0,1,0,284.31V45.784A33.1,33.1,0,0,1,33.072,12.619H80.448c9.573,0,14.509-.822,15.533-2.588.573-.987-.1-2.162-.75-3.3s-1.264-2.21-.741-3.111c.853-1.471,4.748-2.156,12.258-2.156,14.807,0,34.656-.3,55.67-.616C188.84.451,218.789,0,246.942,0c29.027,0,51.533.479,68.8,1.466,2.06.118,5.373.178,9.845.178,7.625,0,16.07-.176,16.155-.178a17.431,17.431,0,0,0,2.346,5.577,11.72,11.72,0,0,0,10.154,5.577h51.909a33.154,33.154,0,0,1,33.072,33.165V284.31a33.1,33.1,0,0,1-33.072,33.164ZM315.747,4.466a19,19,0,1,0,19,19A19.021,19.021,0,0,0,315.747,4.466Zm-96,0a19,19,0,1,0,19,19A19.021,19.021,0,0,0,219.747,4.466Zm-92,0a19,19,0,1,0,19,19A19.021,19.021,0,0,0,127.747,4.466Z" transform="translate(161.888 0.975)" fill="#deeaf8"/><g transform="translate(225.623 73.881)"><path d="M51.589,0H8.092C3.625,0,0,4.2,0,9.37V41.582c0,5.175,3.62,9.37,8.092,9.37h43.5c4.468,0,8.092-4.2,8.092-9.37V9.372C59.68,4.2,56.058,0,51.589,0Z" transform="translate(0.152 0.267)" fill="#fff"/><path d="M51.589,0H8.092C3.624,0,0,4.2,0,9.37V41.582c0,5.175,3.62,9.37,8.092,9.37h43.5c4.468,0,8.092-4.2,8.092-9.37V9.372C59.68,4.2,56.057,0,51.589,0Z" transform="translate(84.077 0.267)" fill="#00449d"/><g transform="translate(167.705)"><path d="M51.589,0H8.092C3.624,0,0,4.2,0,9.37V41.582c0,5.175,3.62,9.37,8.092,9.37h43.5c4.468,0,8.092-4.2,8.092-9.37V9.372C59.679,4.2,56.057,0,51.589,0Z" transform="translate(0.296 0.267)" fill="#fff"/></g><g transform="translate(251.824)"><path d="M51.589,0H8.092C3.625,0,0,4.2,0,9.37V41.582c0,5.175,3.62,9.37,8.092,9.37h43.5c4.468,0,8.092-4.2,8.092-9.37V9.372C59.68,4.2,56.058,0,51.589,0Z" transform="translate(0.101 0.267)" fill="#fff"/></g></g><g transform="translate(225.623 151.297)"><path d="M51.589,0H8.092C3.625,0,0,4.2,0,9.37V41.582c0,5.175,3.62,9.37,8.092,9.37h43.5c4.468,0,8.092-4.2,8.092-9.37V9.37C59.68,4.2,56.058,0,51.589,0Z" transform="translate(0.152 0.468)" fill="#fff"/><path d="M51.589,0H8.092C3.624,0,0,4.2,0,9.37V41.582c0,5.175,3.62,9.37,8.092,9.37h43.5c4.468,0,8.092-4.2,8.092-9.37V9.37C59.68,4.2,56.057,0,51.589,0Z" transform="translate(84.077 0.468)" fill="#fff"/><path d="M51.589,0H8.092C3.624,0,0,4.2,0,9.37V41.582c0,5.175,3.62,9.37,8.092,9.37h43.5c4.468,0,8.092-4.2,8.092-9.37V9.37C59.679,4.2,56.057,0,51.589,0Z" transform="translate(168.001 0.468)" fill="#fff"/><path d="M51.589,0H8.092C3.625,0,0,4.2,0,9.37V41.582c0,5.175,3.62,9.37,8.092,9.37h43.5c4.468,0,8.092-4.2,8.092-9.37V9.37C59.68,4.2,56.058,0,51.589,0Z" transform="translate(251.925 0.468)" fill="#fff"/></g><g transform="translate(225.623 229.246)"><path d="M51.589,0H8.092C3.625,0,0,4.2,0,9.371V41.582c0,5.175,3.62,9.37,8.092,9.37h43.5c4.468,0,8.092-4.2,8.092-9.37V9.37C59.68,4.2,56.058,0,51.589,0Z" transform="translate(0.152 0.133)" fill="#fff"/><path d="M51.589,0H8.092C3.624,0,0,4.2,0,9.371V41.582c0,5.175,3.62,9.37,8.092,9.37h43.5c4.468,0,8.092-4.2,8.092-9.37V9.37C59.68,4.2,56.057,0,51.589,0Z" transform="translate(84.077 0.133)" fill="#fff"/></g></g><rect width="13.31" height="54.458" rx="6.655" transform="translate(277.95 0.043)" fill="#d8d8d8"/><rect width="13.31" height="54.458" rx="6.655" transform="translate(374.847 0.043)" fill="#d8d8d8"/><rect width="13.31" height="54.458" rx="6.655" transform="translate(471.211 0.043)" fill="#d8d8d8"/></g><g transform="translate(205.365 215)"><g transform="matrix(1, 0, 0, 1, -205, -235)" filter="url(#c)"><rect width="387.464" height="120.553" rx="12" transform="translate(205 235)" fill="#fff"/></g><g transform="matrix(1, 0, 0, 1, -205, -235)" filter="url(#e)"><circle cx="47" cy="47" r="47" transform="translate(217 246)" fill="#fff" opacity="0.569"/></g><g transform="translate(121 37)"><rect width="224.454" height="12" rx="6" transform="translate(0.175 0.256)" fill="#d8d8d8"/><rect width="166.877" height="12" rx="6" transform="translate(0.175 35.256)" fill="#d8d8d8"/></g><g transform="translate(32.635 33)"><path d="M13.441,53.889A13.292,13.292,0,0,1,0,40.784V26.959a1.652,1.652,0,0,1,1.672-1.631,1.652,1.652,0,0,1,1.673,1.631V40.784a9.983,9.983,0,0,0,10.1,9.843H40.31A9.983,9.983,0,0,0,50.4,40.784V26.959a1.673,1.673,0,0,1,3.345,0V40.784a13.291,13.291,0,0,1-13.44,13.1ZM26.5,35a4.12,4.12,0,0,1-2.842-1.109L10.5,21.5a1.542,1.542,0,0,1,0-2.273,1.78,1.78,0,0,1,2.413,0L24.794,30.416V1.607a1.709,1.709,0,0,1,3.413,0V30.415l11.88-11.191a1.78,1.78,0,0,1,2.413,0,1.542,1.542,0,0,1,0,2.273L29.342,33.891A4.124,4.124,0,0,1,26.5,35Z" fill="#00449d" stroke="#00449d" stroke-miterlimit="10" stroke-width="1"/></g></g><g transform="translate(685)"><g transform="matrix(1, 0, 0, 1, -684.63, -20)" filter="url(#g)"><rect width="387.464" height="120.553" rx="12" transform="translate(847.63 20)" fill="#fff"/></g><g transform="matrix(1, 0, 0, 1, -684.63, -20)" filter="url(#i)"><rect width="372" height="149" rx="7" transform="translate(773.63 277)" fill="#9dcff0"/></g><circle cx="19" cy="19" r="19" transform="translate(344 354)" fill="#deeaf8"/><circle cx="19" cy="19" r="19" transform="translate(375 354)" fill="#deeaf8"/><circle cx="19" cy="19" r="19" transform="translate(406 354)" fill="#deeaf8"/><g transform="translate(416 362)"><ellipse cx="7" cy="7.5" rx="7" ry="7.5" transform="translate(3)" fill="#fff"/><path d="M19,10H0A9.771,9.771,0,0,1,9.5,0,9.771,9.771,0,0,1,19,10Z" transform="translate(0 12)" fill="#fff"/></g><g transform="translate(385 363)"><circle cx="7" cy="7" r="7" transform="translate(3)" fill="#fff"/><path d="M19,9H0A9.271,9.271,0,0,1,9.5,0,9.271,9.271,0,0,1,19,9Z" transform="translate(0 12)" fill="#fff"/></g><g transform="translate(354 363)"><circle cx="7" cy="7" r="7" transform="translate(3)" fill="#fff"/><path d="M19,9H0A9.271,9.271,0,0,1,9.5,0,9.271,9.271,0,0,1,19,9Z" transform="translate(0 12)" fill="#fff"/></g><rect width="136" height="12" rx="6" transform="translate(129 279)" fill="#fff"/><rect width="241" height="12" rx="6" transform="translate(129 324)" fill="#fff"/><rect width="188" height="12" rx="6" transform="translate(129 359)" fill="#fff"/><path d="M0,1.875l371.291-1" transform="translate(89 429.125)" fill="none" stroke="#eb7979" stroke-linecap="square" stroke-miterlimit="10" stroke-width="2"/><g transform="translate(0 424)"><rect width="25" height="12" rx="6" transform="translate(43.454 0.256)" fill="#00449d"/><rect width="25" height="12" rx="6" transform="translate(0 0.256)" fill="#00449d"/><circle cx="2" cy="2" r="2" transform="translate(32)" fill="#00449d"/><circle cx="2" cy="2" r="2" transform="translate(32 7)" fill="#00449d"/></g><g transform="translate(35 37)"><rect width="224.454" height="12" rx="6" transform="translate(168.175 0.256)" fill="#d8d8d8"/><rect width="25" height="12" rx="6" transform="translate(476.454 0.256)" fill="#00449d"/><g transform="translate(0 107)"><rect width="25" height="12" rx="6" transform="translate(43.454 0.256)" fill="#00449d"/><rect width="25" height="12" rx="6" transform="translate(0 0.256)" fill="#00449d"/><circle cx="2" cy="2" r="2" transform="translate(32)" fill="#00449d"/><circle cx="2" cy="2" r="2" transform="translate(32 7)" fill="#00449d"/></g><rect width="25" height="12" rx="6" transform="translate(433 0.256)" fill="#00449d"/><circle cx="2" cy="2" r="2" transform="translate(465)" fill="#00449d"/><circle cx="2" cy="2" r="2" transform="translate(465 7)" fill="#00449d"/><rect width="166.877" height="12" rx="6" transform="translate(168.175 35.256)" fill="#d8d8d8"/></g><circle cx="19" cy="19" r="19" transform="translate(432 64)" fill="#deeaf8"/><circle cx="19" cy="19" r="19" transform="translate(463 64)" fill="#deeaf8"/><circle cx="19" cy="19" r="19" transform="translate(494 64)" fill="#deeaf8"/><g transform="translate(504 72)"><ellipse cx="7" cy="7.5" rx="7" ry="7.5" transform="translate(3)" fill="#fff"/><path d="M19,10H0A9.771,9.771,0,0,1,9.5,0,9.771,9.771,0,0,1,19,10Z" transform="translate(0 12)" fill="#fff"/></g><g transform="translate(473 73)"><circle cx="7" cy="7" r="7" transform="translate(3)" fill="#fff"/><path d="M19,9H0A9.271,9.271,0,0,1,9.5,0,9.271,9.271,0,0,1,19,9Z" transform="translate(0 12)" fill="#fff"/></g><g transform="translate(442 73)"><circle cx="7" cy="7" r="7" transform="translate(3)" fill="#fff"/><path d="M19,9H0A9.271,9.271,0,0,1,9.5,0,9.271,9.271,0,0,1,19,9Z" transform="translate(0 12)" fill="#fff"/></g><g transform="translate(124 174)"><rect width="372" height="68" fill="none"/><g clip-path="url(#k)"><path d="M1.011,183,178.989,1" transform="translate(-74 -100)" fill="none" stroke="#deeaf8" stroke-linecap="square" stroke-miterlimit="10" stroke-width="3"/><path d="M1.011,183,178.989,1" transform="translate(-57 -100)" fill="none" stroke="#deeaf8" stroke-linecap="square" stroke-miterlimit="10" stroke-width="3"/><path d="M1.011,183,178.989,1" transform="translate(-37 -100)" fill="none" stroke="#deeaf8" stroke-linecap="square" stroke-miterlimit="10" stroke-width="3"/><path d="M1.011,183,178.989,1" transform="translate(-19 -100)" fill="none" stroke="#deeaf8" stroke-linecap="square" stroke-miterlimit="10" stroke-width="3"/><path d="M1.011,183,178.989,1" transform="translate(-2 -100)" fill="none" stroke="#deeaf8" stroke-linecap="square" stroke-miterlimit="10" stroke-width="3"/><path d="M1.011,183,178.989,1" transform="translate(17 -100)" fill="none" stroke="#deeaf8" stroke-linecap="square" stroke-miterlimit="10" stroke-width="3"/><path d="M1.011,183,178.989,1" transform="translate(35 -100)" fill="none" stroke="#deeaf8" stroke-linecap="square" stroke-miterlimit="10" stroke-width="3"/><path d="M1.011,183,178.989,1" transform="translate(53 -100)" fill="none" stroke="#deeaf8" stroke-linecap="square" stroke-miterlimit="10" stroke-width="3"/><path d="M1.011,183,178.989,1" transform="translate(71 -100)" fill="none" stroke="#deeaf8" stroke-linecap="square" stroke-miterlimit="10" stroke-width="3"/><path d="M1.011,183,178.989,1" transform="translate(88 -100)" fill="none" stroke="#deeaf8" stroke-linecap="square" stroke-miterlimit="10" stroke-width="3"/><path d="M1.011,183,178.989,1" transform="translate(107 -100)" fill="none" stroke="#deeaf8" stroke-linecap="square" stroke-miterlimit="10" stroke-width="3"/><path d="M1.011,183,178.989,1" transform="translate(125 -100)" fill="none" stroke="#deeaf8" stroke-linecap="square" stroke-miterlimit="10" stroke-width="3"/><path d="M1.011,183,178.989,1" transform="translate(142 -100)" fill="none" stroke="#deeaf8" stroke-linecap="square" stroke-miterlimit="10" stroke-width="3"/><path d="M1.011,183,178.989,1" transform="translate(161 -100)" fill="none" stroke="#deeaf8" stroke-linecap="square" stroke-miterlimit="10" stroke-width="3"/><path d="M1.011,183,178.989,1" transform="translate(179 -100)" fill="none" stroke="#deeaf8" stroke-linecap="square" stroke-miterlimit="10" stroke-width="3"/><path d="M1.011,183,178.989,1" transform="translate(196 -100)" fill="none" stroke="#deeaf8" stroke-linecap="square" stroke-miterlimit="10" stroke-width="3"/><path d="M1.011,183,178.989,1" transform="translate(216 -100)" fill="none" stroke="#deeaf8" stroke-linecap="square" stroke-miterlimit="10" stroke-width="3"/><path d="M1.011,183,178.989,1" transform="translate(234 -100)" fill="none" stroke="#deeaf8" stroke-linecap="square" stroke-miterlimit="10" stroke-width="3"/><path d="M1.011,183,178.989,1" transform="translate(252 -100)" fill="none" stroke="#deeaf8" stroke-linecap="square" stroke-miterlimit="10" stroke-width="3"/><path d="M1.011,183,178.989,1" transform="translate(271 -100)" fill="none" stroke="#deeaf8" stroke-linecap="square" stroke-miterlimit="10" stroke-width="3"/><path d="M1.011,183,178.989,1" transform="translate(288 -100)" fill="none" stroke="#deeaf8" stroke-linecap="square" stroke-miterlimit="10" stroke-width="3"/><path d="M1.011,183,178.989,1" transform="translate(306 -100)" fill="none" stroke="#deeaf8" stroke-linecap="square" stroke-miterlimit="10" stroke-width="3"/><path d="M1.011,183,178.989,1" transform="translate(325 -100)" fill="none" stroke="#deeaf8" stroke-linecap="square" stroke-miterlimit="10" stroke-width="3"/><path d="M1.011,183,178.989,1" transform="translate(342 -100)" fill="none" stroke="#deeaf8" stroke-linecap="square" stroke-miterlimit="10" stroke-width="3"/></g></g><g transform="translate(406 202)"><rect width="25" height="12" rx="6" transform="translate(43.454 0.256)" fill="#00449d"/><rect width="25" height="12" rx="6" transform="translate(0 0.256)" fill="#00449d"/><circle cx="2" cy="2" r="2" transform="translate(32)" fill="#00449d"/><circle cx="2" cy="2" r="2" transform="translate(32 7)" fill="#00449d"/></g><g transform="translate(287 278)"><rect width="25" height="12" rx="6" transform="translate(43.454 0.256)" fill="#fff"/><rect width="25" height="12" rx="6" transform="translate(0 0.256)" fill="#fff"/><circle cx="2" cy="2" r="2" transform="translate(32)" fill="#fff"/><circle cx="2" cy="2" r="2" transform="translate(32 7)" fill="#fff"/></g><g transform="translate(378 278)"><rect width="25" height="12" rx="6" transform="translate(43.454 0.256)" fill="#fff"/><rect width="25" height="12" rx="6" transform="translate(0 0.256)" fill="#fff"/><circle cx="2" cy="2" r="2" transform="translate(32)" fill="#fff"/><circle cx="2" cy="2" r="2" transform="translate(32 7)" fill="#fff"/></g><rect width="8" height="3" transform="translate(363 283)" fill="#fff"/><rect width="134" height="12" rx="2" transform="translate(143 202)" fill="#00449d"/><path d="M.711,14.75H383.289" transform="translate(113 136)" fill="none" stroke="#deeaf8" stroke-linecap="square" stroke-miterlimit="10" stroke-width="2"/></g><path d="M0,41l190-1.26s-35.467-2.52-46.867-16.38S127.933-3.1,106.4.68,84.867,28.4,68.4,23.36,44.333,14.54,35.467,15.8,6.333,33.44,0,41Z" transform="translate(74.365 153)" fill="#ebeff8"/><g transform="translate(239.365 419)"><path d="M90.2,33.877c2.5-6.376-.151-14.019-4.872-18.651-5.813-5.7-12.96-5.56-20.537-4.842C56.248,11.193,55.009.539,47.311.046,41.6-.319,37.362,1.474,28.271,5.6A22.274,22.274,0,0,1,15.058,7.233c-2.667-.48-5.28-1.86-8.049-1.6a8,8,0,0,0-6.263,4.84c-3.127,7.174,4.213,14.615,10.137,17.4,1.983.932,4.006,1.31,5.638,2.882,2.26,2.177,3.687,5.032,5.862,7.278a17.5,17.5,0,0,0,9.9,4.728c3.917.615,7.619-.508,11.52-.381,3.825.125,5.236,3.878,6.9,6.692,2.006,3.383,6.006,5.721,9.744,6.765A21.021,21.021,0,0,0,75.3,54.322a20.183,20.183,0,0,0,8.711-8.867c.96-1.86,1.375-4,2.545-5.724A30.706,30.706,0,0,0,90.2,33.877Z" transform="translate(0.314 125.001)" fill="#00449d"/><path d="M114.179,156.975c12.32-6.182,18.613-21.2,17.766-34.493-1.042-16.361-11.941-25.771-24.253-34.892-13.878-10.281-1.416-27.9-12.284-39C87.35,40.358,78.588,37.337,59.435,31.276A44.867,44.867,0,0,1,37.446,15.945c-3.351-4.312-5.41-9.894-9.906-13.228S16.632-.734,11.654,1.538C-2.67,8.075-1.674,29.1,3.456,41.242,5.173,45.307,7.7,48.6,8.027,53.144c.46,6.3-1.239,12.5-1,18.792.285,7.5,3.794,14.657,8.471,20.4,5.041,6.191,12.095,9.492,17.767,14.934,5.561,5.337,2.631,12.854,1.349,19.315-1.541,7.766,1.307,16.652,5.5,23.247A42.33,42.33,0,0,0,64.4,167.553a40.584,40.584,0,0,0,24.963-1.558c3.942-1.491,7.439-4.143,11.5-5.148C105.374,159.735,109.983,159.084,114.179,156.975Z" transform="translate(11.554 0.073)" fill="#3369b1"/><g transform="translate(33.067 22.95)"><path d="M.2,0C.529.029.552.263.69.419l.349.513.7,1.025,1.4,2.051,2.785,4.11,5.537,8.236q5.471,8.281,10.871,16.608Q33.113,49.626,43.7,66.412C50.809,77.571,57.846,88.775,65.136,99.8c3.631,5.522,7.343,10.989,11.235,16.32,1.958,2.655,3.963,5.273,6.061,7.811s4.213,5.037,6.4,7.548c-.677-.48-1.343-.986-1.986-1.516-.621-.552-1.258-1.094-1.852-1.677s-1.173-1.179-1.749-1.782-1.1-1.244-1.656-1.865c-2.139-2.544-4.166-5.172-6.151-7.828-3.94-5.334-7.692-10.8-11.36-16.307-7.3-11.051-14.347-22.249-21.387-33.453s-14.084-22.4-21.222-33.537q-5.341-8.36-10.754-16.675L5.32,8.516,2.607,4.363,1.247,2.289.567,1.252.226.733c-.092-.187-.3-.3-.2-.612Z" transform="translate(0.279 0.3)" fill="#fff"/><path d="M1.371,38.083A47.2,47.2,0,0,1,.032,28.039,50.9,50.9,0,0,1,.69,17.881,45.335,45.335,0,0,1,1.858,12.9,36.234,36.234,0,0,1,3.713,8.126a29.386,29.386,0,0,1,2.618-4.39A24.134,24.134,0,0,1,9.761,0,39,39,0,0,0,7.013,4.176c-.206.359-.388.732-.582,1.1s-.373.734-.541,1.113c-.365.738-.674,1.5-.983,2.264a48.432,48.432,0,0,0-2.555,9.514,72.189,72.189,0,0,0-.889,9.87,96.026,96.026,0,0,0,.287,9.981Z" transform="translate(69.413 67.316)" fill="#fff"/><path d="M1.372,38.083A47.235,47.235,0,0,1,.032,28.039,50.978,50.978,0,0,1,.689,17.881,45.458,45.458,0,0,1,1.858,12.9,36.3,36.3,0,0,1,3.713,8.127,29.319,29.319,0,0,1,6.331,3.736,24.132,24.132,0,0,1,9.761,0,39.01,39.01,0,0,0,7.013,4.177c-.206.358-.388.731-.582,1.095s-.373.734-.541,1.113c-.365.738-.675,1.5-.983,2.264a48.394,48.394,0,0,0-2.555,9.514,72.113,72.113,0,0,0-.889,9.87,96.034,96.034,0,0,0,.286,9.981Z" transform="translate(41.173 25.967)" fill="#fff"/><path d="M0,.145a63.634,63.634,0,0,1,11.9.31,71.154,71.154,0,0,1,11.712,2.3c1.92.534,3.8,1.216,5.666,1.935A51.453,51.453,0,0,1,34.7,7.245a42.853,42.853,0,0,1,5.035,3.235,34.971,34.971,0,0,1,4.421,3.992,58.714,58.714,0,0,0-4.876-3.319c-.414-.259-.847-.49-1.268-.737s-.849-.48-1.286-.7-.858-.463-1.3-.678l-1.319-.632A73.484,73.484,0,0,0,23.147,4.379,102.016,102.016,0,0,0,11.7,1.875C7.839,1.254,3.933.792.01.531Z" transform="translate(6.574 64.287)" fill="#fff"/><path d="M0,.725A29.323,29.323,0,0,1,4.927.063,40.011,40.011,0,0,1,9.9.093a42.74,42.74,0,0,1,9.8,1.805,43.5,43.5,0,0,1,4.677,1.766A41.224,41.224,0,0,1,28.79,6.012a34.791,34.791,0,0,1,7.6,6.351,63.5,63.5,0,0,0-8.244-5.217,53.463,53.463,0,0,0-8.934-3.636A56.943,56.943,0,0,0,9.769,1.518,58,58,0,0,0,.062,1.105Z" transform="translate(38.077 101.833)" fill="#fff"/></g></g><g transform="translate(742.365 514)"><g transform="matrix(1, 0, 0, 1, -742, -534)" filter="url(#l)"><circle cx="70.294" cy="70.294" r="70.294" transform="translate(742 534)" fill="#fff"/></g><g transform="translate(44 43)"><path d="M41.932,55a10.154,10.154,0,0,1-10-11.346l.087-.771L17.591,34.9l-.6.581a9.956,9.956,0,0,1-6.917,2.806,10.188,10.188,0,0,1,0-20.374,9.933,9.933,0,0,1,7.2,3.083l.626.65,14.344-8.57-.167-.811a10.3,10.3,0,0,1-.211-2.075A10.069,10.069,0,1,1,41.932,20.374,10.034,10.034,0,0,1,34.5,17.037l-.625-.694L19.636,24.852l.2.834a9.992,9.992,0,0,1-.1,5.2l-.251.888,13.846,7.663.6-.787a9.96,9.96,0,0,1,8-4.028,10.188,10.188,0,0,1,0,20.374Zm0-16.716a6.529,6.529,0,1,0,6.452,6.529A6.5,6.5,0,0,0,41.932,38.284ZM10.069,21.568a6.53,6.53,0,1,0,6.452,6.53A6.5,6.5,0,0,0,10.069,21.568ZM41.932,3.659a6.529,6.529,0,1,0,6.452,6.529A6.5,6.5,0,0,0,41.932,3.659Z" fill="#00449d"/></g></g><g transform="translate(269.365 446)"><path d="M34.438,4.116C38.088.738,45.129-3.94,58.427,5.935c11.42,8.481,39.24,36.732,47.953,45.185l36.791-2.108,2.477.974v9.551l-2.477.195s-2.607,25.209-24.249,23.91S94.411,87.8,65.207,56.613C42.261,33.224,40.958,35.3,40.436,36.342s-17.229,30.9-17.229,30.9L0,55.235S30.788,7.5,34.438,4.116Z" transform="translate(27.325 93.323)" fill="#747d8f"/><path d="M34.438,4.116C38.088.738,45.129-3.94,58.427,5.935c11.42,8.481,39.24,36.732,47.953,45.185l36.791-2.108,2.477.974v9.551l-2.477.195s-2.607,25.209-24.249,23.91S94.411,87.8,65.207,56.613C42.261,33.224,40.958,35.3,40.436,36.342s-17.229,30.9-17.229,30.9L0,55.235S30.788,7.5,34.438,4.116Z" transform="translate(27.325 93.323)" fill="#5f6571"/><path d="M5.346,0,0,10.907a7.368,7.368,0,0,0,1.955,3.119c2.8,2.609,6.682,1.916,7.171,1.819L14.554,4.762,7.277,1" transform="translate(29.28 152.335)" fill="#c4926f"/><path d="M.98,0H37.148a.977.977,0,0,1,.979.976V2.859H0V.976A.977.977,0,0,1,.98,0Z" transform="translate(38.537 175.976) rotate(-180)" fill="#575e61"/><path d="M38.131,10.4l-.107-4.938s-5.907,0-7.518-4.938A24.226,24.226,0,0,0,16.1,1.9C8.862,5.005-.211,2.083,0,10.4Z" transform="translate(0.406 162.718)" fill="#676f73"/><path d="M0,2.345,1.149,0,10.77,3.927,9.127,7.28c-.489.1-4.374.792-7.171-1.819A7.371,7.371,0,0,1,0,2.345Z" transform="translate(29.28 160.897)" fill="#c4c4c4"/><path d="M34.44,4.116C38.091.738,45.131-3.94,58.429,5.936c11.42,8.481,39.239,36.732,47.953,45.184l36.791-2.108,2.477.975v9.551l-2.477.195s-2.578,23.245-24.249,23.909c-22.554.692-29.008-1.2-53.714-27.028C42.559,32.939,40.96,35.3,40.438,36.342s-17.231,30.9-17.231,30.9L0,55.235S30.791,7.495,34.44,4.116Z" transform="translate(34.265 96.734)" fill="#747d8f"/><path d="M8.026,2.267l.044.429A8.883,8.883,0,0,1,12.816.257c8.493-1.7,17.059,5.238,19.13,15.5S30.095,40.546,21.6,42.247c-4.851.972-9.245-3.582-11.533-6.736a2.712,2.712,0,0,0-2.374.338,8.133,8.133,0,0,1-2.262.785c-1.967.315-2.685-.621-2.573-3.083.021-.471.025-1.14-.2-1.352a1.45,1.45,0,0,1-.33-1.987c-.225-.905-.641-1.618-.5-2.216.289-1.247-.053-1.719-.84-2.124-1.279-.657-1.264-1.32-.239-2.821.762-1.118,1.394-2.366,2.1-3.591l-1.187-.639,1.555-.633L1.861,15.013c-.072.053-.541-.066-.612-.011-.029.417.339,1.011.31,1.427l-.174.046c-.094-.3-.189-.6-.291-.919-.155.261-.164-3.127-.254-4.941C.713,8,6.2,4.013,8.026,2.267Z" transform="translate(122.221 3.094)" fill="#e2a880"/><path d="M3.325,36.624c1.16-.933,2.613-1.725,3.418-2.353,1.315-1.024,2.738-2.322,2.681-3.984a6.543,6.543,0,0,0-.818-2.417,15.519,15.519,0,0,1-1.313-4.707,26.7,26.7,0,0,0-.469-3.879A4.231,4.231,0,0,0,4.5,16.314,5.72,5.72,0,0,0,1.55,16.25l-.528-1.236c-.072.053-.534-.122-.6-.067-.028.4.335,1.025.307,1.422-.068.009-.137.013-.205.02l-.263-.833C.1,15.817.092,12.428,0,10.614-.126,8,5.361,4.013,7.186,2.267L7.23,2.7A8.883,8.883,0,0,1,11.976.257c8.493-1.7,17.059,5.238,19.13,15.5S29.255,40.546,20.76,42.247c-4.851.972-9.245-3.582-11.533-6.736a2.712,2.712,0,0,0-2.374.338,8.133,8.133,0,0,1-2.262.785,3.174,3.174,0,0,1-1.266-.011Z" transform="translate(123.06 3.094)" fill="#d89f79"/><path d="M35.689,1.216c-2.675,7.75-8.645,16.551-8.645,16.551s-10.362-5.812-18.1-9.183C4.325,6.568-.933,10.541.141,15.455a5.575,5.575,0,0,0,.153.562,7.791,7.791,0,0,0,2.719,3.663c11.53,8.834,29.212,21.035,32.148,19.62,3.174-1.529,10.736-15.124,10.8-14.543S38.364-6.535,35.689,1.216Z" transform="translate(97.5 51.04)" fill="#8fbddb"/><path d="M16.554,12.337C16.977,10.273,9.688-1.141,5.173.093S-2.341,8.372,2.407,13.762c1.549,1.757,8.176,5.212,10.222,5.628a3.007,3.007,0,0,0,2.662-.762c1.125-1,2.86-2.05,2.142-3.375A5.339,5.339,0,0,1,16.554,12.337Z" transform="translate(86.368 46.135)" fill="#e8a27b"/><g transform="translate(85.994 38.329)"><path d="M1.555,26.711l7.3-4.209a1.592,1.592,0,0,0,.8-1.379L10.809.99c0-1.06-2.176-1.135-3.2-.842L1.157,2A1.592,1.592,0,0,0,0,3.529V25.817a1.036,1.036,0,0,0,1.555.894Z" transform="translate(0.36 0.405)" fill="#4a505c"/><path d="M1.555,26.625l7.3-4.209a1.592,1.592,0,0,0,.8-1.379V1.593A1.6,1.6,0,0,0,7.611.062L1.156,1.912A1.593,1.593,0,0,0,0,3.443V25.731a1.036,1.036,0,0,0,1.555.894Z" transform="translate(1.856 0.491)" fill="#5d6473"/><path d="M7.061,20.2a.4.4,0,0,0,.2-.348V.4a.4.4,0,0,0-.4-.4L.292,1.867A.405.405,0,0,0,0,2.255V24.268Z" transform="translate(3.049 1.68)" fill="#9dcff0"/></g><path d="M88.258,100.545s-1.169-50.353-12.01-82.5C68.515-4.884,46.089-1.827,41.293,4.83S27.45,38.166,27.45,38.166s-9.993-10.308-16.985-16.29C6.619,18.585.408,20.843.017,25.88A5.369,5.369,0,0,0,0,26.462a7.765,7.765,0,0,0,1.549,4.287C10.049,42.514,27.059,61.2,30.28,60.683c3.481-.556,11.053-13.346,10.95-12.771s-4.5,40.193-4.113,40.583,14.35,14.161,14.35,14.161Z" transform="translate(89.178 45.201)" fill="#9dcff0"/><path d="M.883,8.066C3.011,2.8,3.327,4.868.349,1.491c7.95-3.323,22.38-2.027,29.2,13.648-.55,1.437-1.615,4.985-3.307,3.194-3.579-3.79-5.99-.4-8.087,3.846-2.11,4.229-1.854.2-6.409,1.9-4.553,1.677-5.677-6.843-8.3-9.824S-1.256,13.415.883,8.066Z" transform="translate(134.755 45.208)" fill="#8fbddb"/><path d="M5.346,0,0,10.907a7.368,7.368,0,0,0,1.955,3.119c2.8,2.609,6.682,1.916,7.171,1.82L14.554,4.762,7.277,1" transform="translate(36.222 155.746)" fill="#e2a880"/><path d="M.981,0H37.149a.977.977,0,0,1,.979.976V2.859H0V.976A.977.977,0,0,1,.979,0Z" transform="translate(45.479 179.387) rotate(-180)" fill="#676f73"/><path d="M38.13,10.4l-.107-4.938s-5.907,0-7.518-4.938A24.224,24.224,0,0,0,16.1,1.9C8.862,5-.211,2.083,0,10.4Z" transform="translate(7.348 166.129)" fill="#757e82"/><path d="M0,2.342,1.149,0,10.77,3.927,9.126,7.283c-.489.1-4.374.791-7.171-1.82A7.368,7.368,0,0,1,0,2.342Z" transform="translate(36.222 164.31)" fill="#e2e2e2"/><path d="M2.449,18.209A44.524,44.524,0,0,1,4.624,12.4,28.086,28.086,0,0,1,9.31,5.352C9.825,4.786,15.375-.522,15.9.042a10.275,10.275,0,0,1,1.478,4.152,3.191,3.191,0,0,1-.026,1.2,3.812,3.812,0,0,1-.813,1.363L11.9,12.508a2.644,2.644,0,0,0-.636,1.13c-.107.592.2,1.19.155,1.79a11.69,11.69,0,0,1-.6,1.765,5.588,5.588,0,0,0,.55,2.915,9.409,9.409,0,0,1-2.443,9.516,16.931,16.931,0,0,0-1.615,1.536,8.832,8.832,0,0,0-1.2,2.249L1.382,44.857c.607-1.465-.8-2.951-1.382-4.446C.828,31.157,2.253,20.84,2.449,18.209Z" transform="translate(127.907 75.508)" fill="#8fbddb"/><path d="M34.43,15.963l.44,7.047a36.47,36.47,0,0,1-1.209,6.611c-.941,3.141.169,2.551-.912,4.986-1.068,2.453.549,1.954,5.31,6.18,4.758,4.241,5.448,8.741,7.157,12.428,1.709,3.7-.855,6.215-3.529,3.385-3.579-3.79-3.632-2.817-5.728,1.43-2.109,4.229-1.854.2-6.409,1.9C25,61.6,22.092,58.7,19.473,55.716c-2.6-2.993-1.7-2.433.437-7.782,2.152-5.33-.615-1.507-3.632-5.082a6.886,6.886,0,0,1-1.632-2.468.122.122,0,0,0-.017-.083q-.013-.079-.018-.16c0-.079-.021-.146-.025-.21s-.029-.1-.036-.15a4.741,4.741,0,0,0-1.167-1.623c-2.4-2.623-.606-2.424-1.168-6.742-.544-4.331.189-8.16-3.171-11.529s-5.875-2.129-5.875-2.129c-.073.05-.148.116-.221.166-.224.47-.056.83-.086,1.253-.053.022-.116.026-.168.048-.1-.3-.192-.605-.292-.925C1.129,18.179.1,20.219,0,20.392c.044-1.894.77-6.282,1.068-8.084C1.984,6.8,5.839,4.388,9.389,2.274,20.042-4.071,33.658,3.62,34.43,15.963Z" transform="translate(120.917 0.35)" fill="#2a120b"/><path d="M7.044,8.2S7.389,1.427,4.251.181,3.422,4.5,1.228,5.438.45,9.659.45,9.659Z" transform="translate(86.424 53.774)" fill="#faae84"/><path d="M18.553,18.909a1.528,1.528,0,0,0-.5-1.681c-1.028-.822-2.57-2.33-2.117-3.692.666-2-5.209-14.2-9.84-13.508S-2.346,7.357,1.726,13.272C3.052,15.2,12.286,21.2,14.268,21.862s3.306-.016,3.972-2.015Z" transform="translate(77.788 49.331)" fill="#f2a980"/><path d="M36.791,0l2.477.975v9.551l-2.477.195a29.165,29.165,0,0,1-.873,4.115C35.33,2.231,0,2.108,0,2.108Z" transform="translate(140.646 145.745)" fill="#5f6571"/><path d="M5.337,4.306a4.061,4.061,0,0,0-4.2-4.3c-3.079.19,1.2,4.456.053,6.036a1.376,1.376,0,0,0-.237,1.1c.283,1.5,3.418,3.044,3.881,1.717A16.315,16.315,0,0,0,5.337,4.306Z" transform="translate(96.744 49.958)" fill="#e8a27b"/></g></g></svg>