<?xml version="1.0" encoding="utf-8"?>
<svg width="919px" height="558px" viewBox="0 0 919 558" version="1.1" xmlns:xlink="http://www.w3.org/1999/xlink" xmlns="http://www.w3.org/2000/svg">
  <desc>Created with Lunacy</desc>
  <defs>
    <filter filterUnits="userSpaceOnUse" color-interpolation-filters="sRGB" id="filter_1">
      <feFlood flood-opacity="0" result="BackgroundImageFix" />
      <feColorMatrix in="SourceAlpha" type="matrix" values="0 0 0 0 0 0 0 0 0 0 0 0 0 0 0 0 0 0 127 0" />
      <feOffset dx="0" dy="10" />
      <feGaussianBlur stdDeviation="10" />
      <feColorMatrix type="matrix" values="0 0 0 0 0 0 0 0 0 0 0 0 0 0 0 0 0 0 0.1019608 0" />
      <feBlend mode="normal" in2="BackgroundImageFix" result="effect0_dropShadow" />
      <feBlend mode="normal" in="SourceGraphic" in2="effect0_dropShadow" result="shape" />
    </filter>
    <path d="M0 0L36.9999 0L36.9999 36.9999L0 36.9999L0 0Z" id="path_1" />
    <clipPath id="mask_1">
      <use xlink:href="#path_1" />
    </clipPath>
  </defs>
  <g id="img-iteration-almanac">
    <path d="M798.115 299.172C783.047 243.103 751.308 188.483 707.25 149.687C684.992 130.091 658.962 114.404 630.279 106.363C598.352 97.4125 573.146 102.25 542.086 111.43C521.319 117.568 486.332 132.479 465.996 118.118C442.069 101.225 441.244 48.4266 413.89 25.5048C383.321 -0.108132 335.736 -9.89399 300.232 12.4514C262.018 36.5033 270.113 85.51 243.715 117.135C188.732 183.006 65.3031 143.489 14.7492 228.809C-35.0269 312.818 51.9009 404.99 116.44 449.866C158.24 478.931 209.941 499.828 261.524 486.23C310.065 473.433 342.429 426.77 392.943 420.823C445.454 414.641 489.089 452.167 533.222 474.226C583.474 499.345 637.078 513.926 693.644 512.954C810.42 510.948 823.545 393.805 798.115 299.172Z" transform="translate(0 45)" id="Path" fill="#F0F2F9" fill-opacity="0.4" stroke="none" />
    <g id="Group" transform="translate(31 254)">
      <path d="M87.5421 32.936C89.9719 26.7368 87.3956 19.3063 82.8135 14.8028C77.1713 9.25952 70.235 9.39703 62.8809 10.0949C54.5931 10.8821 53.3911 0.523981 45.9191 0.0450437C40.3804 -0.310397 36.2631 1.43308 27.4395 5.44152C23.4262 7.269 18.9517 7.8239 14.6151 7.03192C12.0243 6.56492 9.49049 5.22306 6.80293 5.47524C4.11537 5.72742 1.78187 7.75837 0.724339 10.1816C-2.31056 17.1555 4.81366 24.3904 10.5635 27.0975C12.4881 28.0034 14.4515 28.3708 16.035 29.8995C18.2287 32.016 19.6139 34.7921 21.7248 36.9761C24.241 39.5789 27.8039 41.0183 31.3306 41.5725C35.1321 42.1697 38.7255 41.0779 42.5115 41.202C46.2234 41.3234 47.5931 44.9722 49.2128 47.7078C51.1591 50.9966 55.0419 53.2703 58.67 54.2853C63.4937 55.5784 68.6229 55.0543 73.0871 52.8122C76.7399 50.9017 79.6984 47.885 81.5417 44.1913C82.4734 42.383 82.8772 40.2996 84.0118 38.6267C85.2712 36.7706 86.7144 35.0479 87.5421 32.936Z" transform="translate(0.4170468 121.6096)" id="Path" fill="#00449D" stroke="none" />
      <path d="M110.818 152.613C122.776 146.603 128.884 132.001 128.062 119.079C127.05 103.172 116.473 94.0235 104.523 85.1566C91.0529 75.1618 103.149 58.0274 92.6001 47.2371C84.7791 39.2368 76.2749 36.2989 57.6856 30.4074C49.2226 27.7342 41.7762 22.5334 36.343 15.5012C33.0907 11.3085 31.0926 5.88299 26.7284 2.64147C22.3762 -0.591741 16.1423 -0.713161 11.3102 1.49576C-2.59146 7.85062 -1.62452 28.2924 3.35358 40.0961C5.02037 44.048 7.46878 47.2449 7.79127 51.6674C8.23747 57.7939 6.58828 63.8193 6.82018 69.9365C7.0966 77.2264 10.5021 84.1858 15.0418 89.7706C19.934 95.7898 26.7807 98.9986 32.2863 104.29C37.6831 109.476 34.8398 116.787 33.5954 123.068C32.0994 130.618 34.8641 139.257 38.9369 145.669C44.2876 154.093 52.9347 160.241 62.5048 162.899C70.3987 165.09 79.0065 164.31 86.7337 161.383C90.5591 159.934 93.9537 157.356 97.8986 156.378C102.273 155.295 106.746 154.66 110.818 152.613Z" transform="translate(11.32655 0.1537963)" id="Path" fill="#3369B1" stroke="none" />
      <g id="Group" transform="translate(32.09338 22.31234)">
        <path d="M0.192757 0C0.511103 0.0280201 0.533361 0.254776 0.666911 0.40733L1.00596 0.905466L1.6851 1.90278L3.04027 3.89636L5.74284 7.89182L11.1154 15.9009C14.655 21.2683 18.1719 26.6506 21.6663 32.0478C28.6461 42.848 35.5621 53.6878 42.4142 64.5672C49.3117 75.4167 56.1408 86.3088 63.2164 97.0301C66.741 102.399 70.3442 107.714 74.1204 112.896C76.0211 115.477 77.9669 118.023 80.0028 120.489C82.0386 122.955 84.0921 125.387 86.2144 127.828C85.5575 127.361 84.9105 126.87 84.2867 126.354C83.6837 125.817 83.0651 125.291 82.4895 124.723C81.9139 124.156 81.3507 123.577 80.7916 122.992C80.2481 122.395 79.7212 121.783 79.187 121.176C77.1107 118.703 75.1437 116.148 73.2171 113.565C69.3933 108.379 65.7512 103.07 62.1915 97.7114C55.1092 86.9704 48.2671 76.0809 41.4343 65.1889C34.6015 54.2968 27.7656 43.411 20.8371 32.5843C17.3807 27.165 13.9013 21.7613 10.399 16.3731L5.16309 8.27839L2.5304 4.23986L1.20991 2.22397L0.549925 1.21576L0.219674 0.7114C0.130641 0.529269 -0.0702017 0.422378 0.0250432 0.116232L0.192757 0Z" transform="translate(0.3854415 0.3751586)" id="Path" fill="#FFFFFF" stroke="none" />
        <path d="M1.33069 37.025C0.549132 33.826 0.113361 30.5519 0.0309072 27.2594C-0.0857603 23.9548 0.128055 20.6468 0.669152 17.3849C0.955871 15.7507 1.33452 14.134 1.80329 12.5426C2.29381 10.955 2.89541 9.40397 3.60363 7.90116C4.32522 6.40694 5.17528 4.97857 6.14418 3.63224C7.12408 2.30783 8.2402 1.09039 9.47413 0C8.49909 1.2949 7.60813 2.65132 6.80675 4.06085C6.60695 4.40902 6.43043 4.77173 6.2415 5.12509C6.05256 5.47846 5.87915 5.8396 5.71661 6.20698C5.36203 6.92513 5.06181 7.66766 4.76261 8.40864C3.62414 11.3991 2.79334 14.4982 2.28314 17.6579C1.77637 20.8327 1.48823 24.0387 1.42076 27.2532C1.34538 30.4903 1.43816 33.7291 1.69873 36.9565L1.33069 37.025Z" transform="translate(67.48269 65.52769)" id="Path" fill="#FFFFFF" stroke="none" />
        <path d="M1.33069 37.0245C0.549164 33.8256 0.113394 30.5518 0.0309072 27.2594C-0.0857601 23.9547 0.128055 20.6465 0.669151 17.3844C0.95593 15.7504 1.33458 14.1339 1.80329 12.5426C2.29358 10.9547 2.89519 9.40354 3.60362 7.90064C4.32511 6.40653 5.17518 4.97832 6.14418 3.63224C7.12363 2.30762 8.2396 1.09015 9.47361 0C8.49892 1.29486 7.60813 2.65109 6.80675 4.06033C6.60643 4.4085 6.42991 4.77121 6.24098 5.12457C6.05204 5.47794 5.87863 5.83909 5.71609 6.20646C5.36203 6.92461 5.0618 7.66766 4.76209 8.40812C3.62397 11.3988 2.79334 14.4981 2.28314 17.6579C1.77615 20.8327 1.48784 24.0387 1.42024 27.2532C1.34502 30.4903 1.43797 33.7291 1.69873 36.9565L1.33069 37.0245Z" transform="translate(40.07391 25.32813)" id="Path" fill="#FFFFFF" stroke="none" />
        <path d="M0 0.140913C3.8501 -0.119736 7.71609 -0.0186306 11.5474 0.442908C15.3923 0.86812 19.1948 1.6164 22.9147 2.67985C24.7782 3.20185 26.6059 3.86188 28.4135 4.56135C30.2136 5.28595 31.9701 6.1148 33.6742 7.04373C35.3743 7.9769 37.0073 9.02797 38.5612 10.1892C40.0988 11.3585 41.5343 12.657 42.8519 14.0706C41.3297 12.9159 39.7502 11.8391 38.1197 10.8441C37.7175 10.5919 37.2977 10.3672 36.8882 10.128C36.4788 9.88881 36.0647 9.66102 35.6397 9.44775C35.2147 9.23449 34.8068 8.99735 34.3818 8.78824L33.1022 8.17387C29.6657 6.58759 26.1087 5.27809 22.4648 4.2578C18.8122 3.23383 15.104 2.42077 11.3585 1.82264C7.60768 1.21969 3.81756 0.769809 0.00931743 0.516071L0 0.140913Z" transform="translate(6.493732 62.58373)" id="Path" fill="#FFFFFF" stroke="none" />
        <path d="M0 0.705413C1.57267 0.355048 3.17225 0.139621 4.7814 0.0614683C6.39063 -0.0292494 8.00393 -0.0195447 9.61197 0.0905262C12.8409 0.301954 16.0341 0.890912 19.1266 1.84542C20.6712 2.33037 22.1869 2.90347 23.6663 3.56191C25.1363 4.23609 26.5645 4.99852 27.943 5.84503C30.6827 7.54022 33.1665 9.61955 35.3188 12.0198C32.7854 10.1262 30.1105 8.43063 27.3177 6.9482C24.5395 5.51075 21.6376 4.32755 18.6473 3.41299C15.6519 2.50895 12.5855 1.86096 9.481 1.47597C6.35738 1.07861 3.20603 0.944443 0.0600457 1.07486L0 0.705413Z" transform="translate(37.06889 99.08573)" id="Path" fill="#FFFFFF" stroke="none" />
      </g>
    </g>
    <path d="M168 10C260.784 10 336 7.76142 336 5C336 2.23858 260.784 0 168 0C75.2162 0 0 2.23858 0 5C0 7.76142 75.2162 10 168 10Z" transform="translate(342 373)" id="Oval" fill="#D8D9D9" fill-opacity="0.2" stroke="none" />
    <g id="Group" transform="translate(296 0)">
      <g id="Group">
        <g id="Group" transform="translate(0.5540376 0.06384628)">
          <g filter="url(#filter_1)">
            <path d="M12 0L311.047 0Q311.355 0 311.66 0.013989Q311.965 0.027978 312.268 0.0559275Q312.571 0.0838769 312.87 0.12573Q313.169 0.167583 313.465 0.223254Q313.76 0.278925 314.051 0.3483Q314.342 0.417676 314.628 0.500614Q314.913 0.583552 315.194 0.679885Q315.474 0.776217 315.747 0.885746Q316.021 0.995276 316.288 1.11778Q316.555 1.24028 316.815 1.37551Q317.075 1.51074 317.326 1.65841Q317.578 1.80609 317.821 1.96591Q318.065 2.12573 318.299 2.29737Q318.533 2.46902 318.758 2.65213Q318.984 2.83524 319.199 3.02945Q319.414 3.22366 319.619 3.42857Q319.824 3.63348 320.018 3.84868Q320.212 4.06387 320.395 4.28891Q320.578 4.51394 320.75 4.74837Q320.922 4.98279 321.082 5.22612Q321.241 5.46944 321.389 5.72118Q321.537 5.97292 321.672 6.23256Q321.807 6.49219 321.93 6.75919Q322.052 7.02619 322.162 7.30002Q322.271 7.57384 322.368 7.85393Q322.464 8.13401 322.547 8.41979Q322.63 8.70557 322.699 8.99646Q322.769 9.28735 322.824 9.58275Q322.88 9.87816 322.922 10.1775Q322.964 10.4768 322.991 10.7794Q323.019 11.082 323.033 11.3873Q323.047 11.6926 323.047 12L323.047 80.7436Q323.047 81.051 323.033 81.3563Q323.019 81.6616 322.991 81.9642Q322.964 82.2669 322.922 82.5662Q322.88 82.8655 322.824 83.1609Q322.769 83.4563 322.699 83.7472Q322.63 84.0381 322.547 84.3239Q322.464 84.6096 322.368 84.8897Q322.271 85.1698 322.162 85.4436Q322.052 85.7175 321.93 85.9845Q321.807 86.2515 321.672 86.5111Q321.537 86.7707 321.389 87.0225Q321.241 87.2742 321.082 87.5175Q320.922 87.7609 320.75 87.9953Q320.578 88.2297 320.395 88.4547Q320.212 88.6798 320.018 88.895Q319.824 89.1102 319.619 89.3151Q319.414 89.52 319.199 89.7142Q318.984 89.9084 318.759 90.0915Q318.534 90.2746 318.299 90.4463Q318.065 90.6179 317.821 90.7777Q317.578 90.9376 317.326 91.0852Q317.075 91.2329 316.815 91.3681Q316.555 91.5034 316.288 91.6259Q316.021 91.7484 315.747 91.8579Q315.474 91.9674 315.193 92.0638Q314.913 92.1601 314.628 92.243Q314.342 92.326 314.051 92.3953Q313.76 92.4647 313.465 92.5204Q313.169 92.5761 312.87 92.6179Q312.571 92.6598 312.268 92.6877Q311.965 92.7157 311.66 92.7297Q311.355 92.7436 311.047 92.7436L12 92.7436Q11.6926 92.7436 11.3873 92.7297Q11.082 92.7157 10.7794 92.6877Q10.4768 92.6598 10.1775 92.6179Q9.87816 92.5761 9.58275 92.5204Q9.28735 92.4647 8.99646 92.3953Q8.70557 92.326 8.41979 92.243Q8.13401 92.1601 7.85393 92.0638Q7.57384 91.9674 7.30002 91.8579Q7.02619 91.7484 6.75919 91.6259Q6.49219 91.5034 6.23256 91.3681Q5.97292 91.2329 5.72118 91.0852Q5.46944 90.9376 5.22612 90.7777Q4.98279 90.6179 4.74837 90.4463Q4.51394 90.2746 4.28891 90.0915Q4.06387 89.9084 3.84868 89.7142Q3.63348 89.52 3.42857 89.3151Q3.22366 89.1102 3.02945 88.895Q2.83524 88.6798 2.65213 88.4547Q2.46902 88.2297 2.29737 87.9953Q2.12573 87.7609 1.96591 87.5175Q1.80609 87.2742 1.65841 87.0225Q1.51074 86.7707 1.37551 86.5111Q1.24028 86.2514 1.11778 85.9845Q0.995276 85.7175 0.885746 85.4436Q0.776217 85.1698 0.679885 84.8897Q0.583552 84.6096 0.500614 84.3238Q0.417676 84.0381 0.3483 83.7472Q0.278925 83.4563 0.223254 83.1609Q0.167583 82.8655 0.12573 82.5662Q0.0838769 82.2669 0.0559275 81.9642Q0.027978 81.6616 0.013989 81.3563Q0 81.051 0 80.7436L0 12Q0 11.6926 0.013989 11.3873Q0.027978 11.082 0.0559275 10.7794Q0.0838769 10.4768 0.12573 10.1775Q0.167583 9.87816 0.223254 9.58275Q0.278925 9.28735 0.3483 8.99646Q0.417676 8.70557 0.500614 8.41979Q0.583552 8.13401 0.679885 7.85393Q0.776217 7.57384 0.885746 7.30002Q0.995276 7.02619 1.11778 6.75919Q1.24028 6.49219 1.37551 6.23256Q1.51074 5.97292 1.65841 5.72118Q1.80609 5.46944 1.96591 5.22612Q2.12573 4.98279 2.29737 4.74837Q2.46902 4.51394 2.65213 4.28891Q2.83524 4.06387 3.02945 3.84868Q3.22366 3.63348 3.42857 3.42857Q3.63348 3.22366 3.84868 3.02945Q4.06387 2.83524 4.28891 2.65213Q4.51394 2.46902 4.74837 2.29737Q4.98279 2.12573 5.22612 1.96591Q5.46944 1.80609 5.72118 1.65841Q5.97292 1.51074 6.23256 1.37551Q6.49219 1.24028 6.75919 1.11778Q7.02619 0.995276 7.30002 0.885746Q7.57384 0.776217 7.85393 0.679885Q8.13401 0.583552 8.41979 0.500614Q8.70557 0.417676 8.99646 0.3483Q9.28735 0.278925 9.58275 0.223254Q9.87816 0.167583 10.1775 0.12573Q10.4768 0.0838769 10.7794 0.0559275Q11.082 0.027978 11.3873 0.013989Q11.6926 0 12 0Z" transform="translate(0.2419306 0.2482587)" id="Rectangle" fill="#FFFFFF" stroke="none" />
          </g>
        </g>
      </g>
      <g id="Group" transform="translate(85.17782 28.68907)">
        <path d="M4.7 0L204.683 0Q204.924 0 205.161 0.0219049Q205.398 0.0438098 205.63 0.087441Q205.861 0.131072 206.085 0.196074Q206.309 0.261075 206.524 0.346917Q206.739 0.432759 206.942 0.538741Q207.146 0.644723 207.336 0.769981Q207.527 0.895238 207.703 1.03875Q207.88 1.18226 208.04 1.34286Q208.201 1.50345 208.344 1.67982Q208.488 1.85619 208.613 2.0469Q208.738 2.2376 208.844 2.44108Q208.95 2.64457 209.036 2.85917Q209.122 3.07378 209.187 3.29775Q209.252 3.52173 209.296 3.75324Q209.339 3.98476 209.361 4.22193Q209.383 4.45911 209.383 4.7L209.383 4.61309Q209.383 4.85398 209.361 5.09115Q209.339 5.32832 209.296 5.55984Q209.252 5.79136 209.187 6.01533Q209.122 6.23931 209.036 6.45391Q208.95 6.66852 208.844 6.872Q208.738 7.07549 208.613 7.26619Q208.488 7.4569 208.344 7.63326Q208.201 7.80963 208.04 7.97023Q207.88 8.13083 207.703 8.27434Q207.527 8.41785 207.336 8.54311Q207.146 8.66836 206.942 8.77434Q206.739 8.88033 206.524 8.96617Q206.309 9.05201 206.085 9.11701Q205.861 9.18201 205.63 9.22564Q205.398 9.26928 205.161 9.29118Q204.924 9.31309 204.683 9.31309L4.7 9.31309Q4.45911 9.31309 4.22193 9.29118Q3.98476 9.26928 3.75324 9.22564Q3.52173 9.18201 3.29775 9.11701Q3.07378 9.05201 2.85917 8.96617Q2.64457 8.88033 2.44108 8.77435Q2.2376 8.66836 2.0469 8.54311Q1.85619 8.41785 1.67982 8.27434Q1.50345 8.13083 1.34286 7.97023Q1.18226 7.80963 1.03875 7.63327Q0.895238 7.4569 0.769981 7.26619Q0.644723 7.07549 0.538741 6.872Q0.432759 6.66852 0.346917 6.45391Q0.261075 6.23931 0.196074 6.01534Q0.131072 5.79136 0.087441 5.55984Q0.0438098 5.32832 0.0219049 5.09115Q0 4.85398 0 4.61309L0 4.7Q0 4.45911 0.0219049 4.22193Q0.0438098 3.98476 0.087441 3.75324Q0.131072 3.52173 0.196074 3.29775Q0.261075 3.07378 0.346917 2.85917Q0.432759 2.64457 0.538741 2.44108Q0.644723 2.2376 0.769981 2.0469Q0.895238 1.85619 1.03875 1.67982Q1.18226 1.50345 1.34286 1.34286Q1.50345 1.18226 1.67982 1.03875Q1.85619 0.895238 2.0469 0.769981Q2.2376 0.644723 2.44108 0.538741Q2.64457 0.432759 2.85917 0.346917Q3.07378 0.261075 3.29775 0.196074Q3.52173 0.131072 3.75324 0.087441Q3.98476 0.0438098 4.22193 0.0219049Q4.45911 0 4.7 0Z" transform="translate(0.2891745 0.2139085)" id="Rectangle" fill="#D8D8D8" stroke="none" />
        <path d="M4.7 0L151.988 0Q152.229 0 152.466 0.0219049Q152.703 0.0438098 152.935 0.087441Q153.166 0.131072 153.39 0.196074Q153.614 0.261075 153.829 0.346917Q154.043 0.432759 154.247 0.538741Q154.45 0.644723 154.641 0.769981Q154.832 0.895238 155.008 1.03875Q155.185 1.18226 155.345 1.34286Q155.506 1.50345 155.649 1.67982Q155.793 1.85619 155.918 2.0469Q156.043 2.2376 156.149 2.44108Q156.255 2.64457 156.341 2.85917Q156.427 3.07378 156.492 3.29775Q156.557 3.52173 156.601 3.75324Q156.644 3.98476 156.666 4.22193Q156.688 4.45911 156.688 4.7L156.688 4.61308Q156.688 4.85398 156.666 5.09115Q156.644 5.32832 156.601 5.55984Q156.557 5.79136 156.492 6.01533Q156.427 6.23931 156.341 6.45391Q156.255 6.66852 156.149 6.872Q156.043 7.07549 155.918 7.26619Q155.793 7.45689 155.649 7.63326Q155.506 7.80963 155.345 7.97023Q155.185 8.13082 155.008 8.27434Q154.832 8.41785 154.641 8.5431Q154.45 8.66836 154.247 8.77434Q154.043 8.88033 153.829 8.96617Q153.614 9.05201 153.39 9.11701Q153.166 9.18201 152.935 9.22564Q152.703 9.26927 152.466 9.29118Q152.229 9.31308 151.988 9.31308L4.7 9.31308Q4.45911 9.31308 4.22193 9.29118Q3.98476 9.26927 3.75324 9.22564Q3.52173 9.18201 3.29775 9.11701Q3.07378 9.05201 2.85917 8.96617Q2.64457 8.88033 2.44108 8.77434Q2.2376 8.66836 2.0469 8.5431Q1.85619 8.41785 1.67982 8.27434Q1.50345 8.13082 1.34286 7.97023Q1.18226 7.80963 1.03875 7.63326Q0.895238 7.45689 0.769981 7.26619Q0.644723 7.07549 0.538741 6.872Q0.432759 6.66852 0.346917 6.45391Q0.261075 6.23931 0.196074 6.01533Q0.131072 5.79136 0.087441 5.55984Q0.0438098 5.32832 0.0219049 5.09115Q0 4.85398 0 4.61308L0 4.7Q0 4.45911 0.0219049 4.22193Q0.0438098 3.98476 0.087441 3.75324Q0.131072 3.52173 0.196074 3.29775Q0.261075 3.07378 0.346917 2.85917Q0.432759 2.64457 0.538741 2.44108Q0.644723 2.2376 0.769981 2.0469Q0.895238 1.85619 1.03875 1.67982Q1.18226 1.50345 1.34286 1.34286Q1.50345 1.18226 1.67982 1.03875Q1.85619 0.895238 2.0469 0.769981Q2.2376 0.644723 2.44108 0.538741Q2.64457 0.432759 2.85917 0.346917Q3.07378 0.261075 3.29775 0.196074Q3.52173 0.131072 3.75324 0.087441Q3.98476 0.0438098 4.22193 0.0219049Q4.45911 0 4.7 0Z" transform="translate(0.2891745 26.46324)" id="Rectangle" fill="#D8D8D8" stroke="none" />
      </g>
      <g id="Group-6" transform="translate(26 26)">
        <path d="M2.5 0C1.11936 0 0 1.11953 0 2.5C0 3.88086 1.11936 5 2.5 5C3.88064 5 5 3.88086 5 2.5C5 1.11953 3.88064 0 2.5 0" transform="translate(16 16)" id="Fill-1" fill="#00449D" stroke="none" />
        <g id="Group-5">
          <path d="M0 0L36.9999 0L36.9999 36.9999L0 36.9999L0 0Z" id="Clip-4" fill="none" stroke="none" />
          <g clip-path="url(#mask_1)">
            <path d="M31.5237 16.771L35.271 16.771C36.2261 16.771 37 17.5453 37 18.5C37 19.4551 36.2261 20.229 35.271 20.229L31.5237 20.229C30.7508 26.1026 26.1023 30.7512 20.229 31.5237L20.229 35.271C20.229 36.2261 19.4551 37 18.5 37C17.5453 37 16.771 36.2261 16.771 35.271L16.771 31.5237C10.8981 30.7512 6.24954 26.1026 5.47669 20.229L1.72897 20.229C0.774234 20.229 0 19.4551 0 18.5C0 17.5453 0.774234 16.771 1.72897 16.771L5.47669 16.771C6.24954 10.8981 10.8981 6.2492 16.771 5.47669L16.771 1.72897C16.771 0.774234 17.5453 0 18.5 0C19.4551 0 20.229 0.774234 20.229 1.72897L20.229 5.47669C26.1023 6.2492 30.7508 10.8981 31.5237 16.771ZM18.5 25.1856C19.4274 25.1856 20.1778 25.9173 20.221 26.834C23.5776 26.1445 26.2109 23.4777 26.8551 20.1048C26.2157 19.8514 25.7617 19.23 25.7617 18.5C25.7617 17.7704 26.2157 17.149 26.8551 16.8955C26.2102 13.5188 23.5714 10.8496 20.2096 10.1643C20.1124 11.0267 19.389 11.6996 18.5 11.6996C17.6113 11.6996 16.8879 11.0267 16.7907 10.1643C13.3746 10.8611 10.7058 13.6053 10.1159 17.0584C10.5834 17.3682 10.8925 17.8973 10.8925 18.5C10.8925 19.1031 10.5837 19.6321 10.1159 19.9416C10.7051 23.3916 13.3691 26.1334 16.7793 26.834C16.8226 25.9173 17.5729 25.1856 18.5 25.1856Z" transform="translate(-0.0001383178 -0.0001383178)" id="Fill-3" fill="#00449D" fill-rule="evenodd" stroke="none" />
          </g>
        </g>
      </g>
    </g>
    <path d="M9.10053 0L8.75362 22.6644L0 22.5265L10.7048 42L22 22.8729L13.2468 22.735L13.5937 0.0710198L9.10053 0Z" transform="translate(443 105)" id="Fill-1" fill="#00449D" stroke="none" />
    <path d="M9.10053 0L8.75362 22.6644L0 22.5265L10.7048 42L22 22.8729L13.2468 22.735L13.5937 0.0710198L9.10053 0Z" transform="translate(443 268)" id="Fill-1-Copy" fill="#00449D" stroke="none" />
    <g id="Group" transform="translate(296 162)">
      <g id="Group">
        <g id="Group" transform="translate(0.5540376 0.06384628)">
          <g filter="url(#filter_1)">
            <path d="M12 0L311.047 0Q311.355 0 311.66 0.013989Q311.965 0.027978 312.268 0.0559275Q312.571 0.0838769 312.87 0.12573Q313.169 0.167583 313.465 0.223254Q313.76 0.278925 314.051 0.3483Q314.342 0.417676 314.628 0.500614Q314.913 0.583552 315.194 0.679885Q315.474 0.776217 315.747 0.885746Q316.021 0.995276 316.288 1.11778Q316.555 1.24028 316.815 1.37551Q317.075 1.51074 317.326 1.65841Q317.578 1.80609 317.821 1.96591Q318.065 2.12573 318.299 2.29737Q318.533 2.46902 318.758 2.65213Q318.984 2.83524 319.199 3.02945Q319.414 3.22366 319.619 3.42857Q319.824 3.63348 320.018 3.84868Q320.212 4.06387 320.395 4.28891Q320.578 4.51394 320.75 4.74837Q320.922 4.98279 321.082 5.22612Q321.241 5.46944 321.389 5.72118Q321.537 5.97292 321.672 6.23256Q321.807 6.49219 321.93 6.75919Q322.052 7.02619 322.162 7.30002Q322.271 7.57384 322.368 7.85393Q322.464 8.13401 322.547 8.41979Q322.63 8.70557 322.699 8.99646Q322.769 9.28735 322.824 9.58275Q322.88 9.87816 322.922 10.1775Q322.964 10.4768 322.991 10.7794Q323.019 11.082 323.033 11.3873Q323.047 11.6926 323.047 12L323.047 80.7436Q323.047 81.051 323.033 81.3563Q323.019 81.6616 322.991 81.9642Q322.964 82.2669 322.922 82.5662Q322.88 82.8655 322.824 83.1609Q322.769 83.4563 322.699 83.7472Q322.63 84.0381 322.547 84.3239Q322.464 84.6096 322.368 84.8897Q322.271 85.1698 322.162 85.4436Q322.052 85.7175 321.93 85.9845Q321.807 86.2515 321.672 86.5111Q321.537 86.7707 321.389 87.0225Q321.241 87.2742 321.082 87.5175Q320.922 87.7609 320.75 87.9953Q320.578 88.2297 320.395 88.4547Q320.212 88.6798 320.018 88.895Q319.824 89.1102 319.619 89.3151Q319.414 89.52 319.199 89.7142Q318.984 89.9084 318.759 90.0915Q318.534 90.2746 318.299 90.4463Q318.065 90.6179 317.821 90.7777Q317.578 90.9376 317.326 91.0852Q317.075 91.2329 316.815 91.3681Q316.555 91.5034 316.288 91.6259Q316.021 91.7484 315.747 91.8579Q315.474 91.9674 315.193 92.0638Q314.913 92.1601 314.628 92.243Q314.342 92.326 314.051 92.3953Q313.76 92.4647 313.465 92.5204Q313.169 92.5761 312.87 92.6179Q312.571 92.6598 312.268 92.6877Q311.965 92.7157 311.66 92.7297Q311.355 92.7436 311.047 92.7436L12 92.7436Q11.6926 92.7436 11.3873 92.7297Q11.082 92.7157 10.7794 92.6877Q10.4768 92.6598 10.1775 92.6179Q9.87816 92.5761 9.58275 92.5204Q9.28735 92.4647 8.99646 92.3953Q8.70557 92.326 8.41979 92.243Q8.13401 92.1601 7.85393 92.0638Q7.57384 91.9674 7.30002 91.8579Q7.02619 91.7484 6.75919 91.6259Q6.49219 91.5034 6.23256 91.3681Q5.97292 91.2329 5.72118 91.0852Q5.46944 90.9376 5.22612 90.7777Q4.98279 90.6179 4.74837 90.4463Q4.51394 90.2746 4.28891 90.0915Q4.06387 89.9084 3.84868 89.7142Q3.63348 89.52 3.42857 89.3151Q3.22366 89.1102 3.02945 88.895Q2.83524 88.6798 2.65213 88.4547Q2.46902 88.2297 2.29737 87.9953Q2.12573 87.7609 1.96591 87.5175Q1.80609 87.2742 1.65841 87.0225Q1.51074 86.7707 1.37551 86.5111Q1.24028 86.2514 1.11778 85.9845Q0.995276 85.7175 0.885746 85.4436Q0.776217 85.1698 0.679885 84.8897Q0.583552 84.6096 0.500614 84.3238Q0.417676 84.0381 0.3483 83.7472Q0.278925 83.4563 0.223254 83.1609Q0.167583 82.8655 0.12573 82.5662Q0.0838769 82.2669 0.0559275 81.9642Q0.027978 81.6616 0.013989 81.3563Q0 81.051 0 80.7436L0 12Q0 11.6926 0.013989 11.3873Q0.027978 11.082 0.0559275 10.7794Q0.0838769 10.4768 0.12573 10.1775Q0.167583 9.87816 0.223254 9.58275Q0.278925 9.28735 0.3483 8.99646Q0.417676 8.70557 0.500614 8.41979Q0.583552 8.13401 0.679885 7.85393Q0.776217 7.57384 0.885746 7.30002Q0.995276 7.02619 1.11778 6.75919Q1.24028 6.49219 1.37551 6.23256Q1.51074 5.97292 1.65841 5.72118Q1.80609 5.46944 1.96591 5.22612Q2.12573 4.98279 2.29737 4.74837Q2.46902 4.51394 2.65213 4.28891Q2.83524 4.06387 3.02945 3.84868Q3.22366 3.63348 3.42857 3.42857Q3.63348 3.22366 3.84868 3.02945Q4.06387 2.83524 4.28891 2.65213Q4.51394 2.46902 4.74837 2.29737Q4.98279 2.12573 5.22612 1.96591Q5.46944 1.80609 5.72118 1.65841Q5.97292 1.51074 6.23256 1.37551Q6.49219 1.24028 6.75919 1.11778Q7.02619 0.995276 7.30002 0.885746Q7.57384 0.776217 7.85393 0.679885Q8.13401 0.583552 8.41979 0.500614Q8.70557 0.417676 8.99646 0.3483Q9.28735 0.278925 9.58275 0.223254Q9.87816 0.167583 10.1775 0.12573Q10.4768 0.0838769 10.7794 0.0559275Q11.082 0.027978 11.3873 0.013989Q11.6926 0 12 0Z" transform="translate(0.2419306 0.2800067)" id="Rectangle" fill="#FFFFFF" stroke="none" />
          </g>
        </g>
      </g>
      <g id="Group" transform="translate(85.17782 28.68907)">
        <path d="M4.7 0L204.683 0Q204.924 0 205.161 0.0219049Q205.398 0.0438098 205.63 0.087441Q205.861 0.131072 206.085 0.196074Q206.309 0.261075 206.524 0.346917Q206.739 0.432759 206.942 0.538741Q207.146 0.644723 207.336 0.769981Q207.527 0.895238 207.703 1.03875Q207.88 1.18226 208.04 1.34286Q208.201 1.50345 208.344 1.67982Q208.488 1.85619 208.613 2.0469Q208.738 2.2376 208.844 2.44108Q208.95 2.64457 209.036 2.85917Q209.122 3.07378 209.187 3.29775Q209.252 3.52173 209.296 3.75324Q209.339 3.98476 209.361 4.22193Q209.383 4.45911 209.383 4.7L209.383 4.61309Q209.383 4.85398 209.361 5.09115Q209.339 5.32832 209.296 5.55984Q209.252 5.79136 209.187 6.01533Q209.122 6.23931 209.036 6.45391Q208.95 6.66852 208.844 6.872Q208.738 7.07549 208.613 7.26619Q208.488 7.4569 208.344 7.63326Q208.201 7.80963 208.04 7.97023Q207.88 8.13083 207.703 8.27434Q207.527 8.41785 207.336 8.54311Q207.146 8.66836 206.942 8.77434Q206.739 8.88033 206.524 8.96617Q206.309 9.05201 206.085 9.11701Q205.861 9.18201 205.63 9.22564Q205.398 9.26928 205.161 9.29118Q204.924 9.31309 204.683 9.31309L4.7 9.31309Q4.45911 9.31309 4.22193 9.29118Q3.98476 9.26928 3.75324 9.22564Q3.52173 9.18201 3.29775 9.11701Q3.07378 9.05201 2.85917 8.96617Q2.64457 8.88033 2.44108 8.77435Q2.2376 8.66836 2.0469 8.54311Q1.85619 8.41785 1.67982 8.27434Q1.50345 8.13083 1.34286 7.97023Q1.18226 7.80963 1.03875 7.63327Q0.895238 7.4569 0.769981 7.26619Q0.644723 7.07549 0.538741 6.872Q0.432759 6.66852 0.346917 6.45391Q0.261075 6.23931 0.196074 6.01534Q0.131072 5.79136 0.087441 5.55984Q0.0438098 5.32832 0.0219049 5.09115Q0 4.85398 0 4.61309L0 4.7Q0 4.45911 0.0219049 4.22193Q0.0438098 3.98476 0.087441 3.75324Q0.131072 3.52173 0.196074 3.29775Q0.261075 3.07378 0.346917 2.85917Q0.432759 2.64457 0.538741 2.44108Q0.644723 2.2376 0.769981 2.0469Q0.895238 1.85619 1.03875 1.67982Q1.18226 1.50345 1.34286 1.34286Q1.50345 1.18226 1.67982 1.03875Q1.85619 0.895238 2.0469 0.769981Q2.2376 0.644723 2.44108 0.538741Q2.64457 0.432759 2.85917 0.346917Q3.07378 0.261075 3.29775 0.196074Q3.52173 0.131072 3.75324 0.087441Q3.98476 0.0438098 4.22193 0.0219049Q4.45911 0 4.7 0Z" transform="translate(0.2891745 0.245136)" id="Rectangle" fill="#D8D8D8" stroke="none" />
        <path d="M4.7 0L151.988 0Q152.229 0 152.466 0.0219049Q152.703 0.0438098 152.935 0.087441Q153.166 0.131072 153.39 0.196074Q153.614 0.261075 153.829 0.346917Q154.043 0.432759 154.247 0.538741Q154.45 0.644723 154.641 0.769981Q154.832 0.895238 155.008 1.03875Q155.185 1.18226 155.345 1.34286Q155.506 1.50345 155.649 1.67982Q155.793 1.85619 155.918 2.0469Q156.043 2.2376 156.149 2.44108Q156.255 2.64457 156.341 2.85917Q156.427 3.07378 156.492 3.29775Q156.557 3.52173 156.601 3.75324Q156.644 3.98476 156.666 4.22193Q156.688 4.45911 156.688 4.7L156.688 4.61308Q156.688 4.85398 156.666 5.09115Q156.644 5.32832 156.601 5.55984Q156.557 5.79136 156.492 6.01533Q156.427 6.23931 156.341 6.45391Q156.255 6.66852 156.149 6.872Q156.043 7.07549 155.918 7.26619Q155.793 7.45689 155.649 7.63326Q155.506 7.80963 155.345 7.97023Q155.185 8.13082 155.008 8.27434Q154.832 8.41785 154.641 8.5431Q154.45 8.66836 154.247 8.77434Q154.043 8.88033 153.829 8.96617Q153.614 9.05201 153.39 9.11701Q153.166 9.18201 152.935 9.22564Q152.703 9.26927 152.466 9.29118Q152.229 9.31308 151.988 9.31308L4.7 9.31308Q4.45911 9.31308 4.22193 9.29118Q3.98476 9.26927 3.75324 9.22564Q3.52173 9.18201 3.29775 9.11701Q3.07378 9.05201 2.85917 8.96617Q2.64457 8.88033 2.44108 8.77434Q2.2376 8.66836 2.0469 8.5431Q1.85619 8.41785 1.67982 8.27434Q1.50345 8.13082 1.34286 7.97023Q1.18226 7.80963 1.03875 7.63326Q0.895238 7.45689 0.769981 7.26619Q0.644723 7.07549 0.538741 6.872Q0.432759 6.66852 0.346917 6.45391Q0.261075 6.23931 0.196074 6.01533Q0.131072 5.79136 0.087441 5.55984Q0.0438098 5.32832 0.0219049 5.09115Q0 4.85398 0 4.61308L0 4.7Q0 4.45911 0.0219049 4.22193Q0.0438098 3.98476 0.087441 3.75324Q0.131072 3.52173 0.196074 3.29775Q0.261075 3.07378 0.346917 2.85917Q0.432759 2.64457 0.538741 2.44108Q0.644723 2.2376 0.769981 2.0469Q0.895238 1.85619 1.03875 1.67982Q1.18226 1.50345 1.34286 1.34286Q1.50345 1.18226 1.67982 1.03875Q1.85619 0.895238 2.0469 0.769981Q2.2376 0.644723 2.44108 0.538741Q2.64457 0.432759 2.85917 0.346917Q3.07378 0.261075 3.29775 0.196074Q3.52173 0.131072 3.75324 0.087441Q3.98476 0.0438098 4.22193 0.0219049Q4.45911 0 4.7 0Z" transform="translate(0.2891745 26.49446)" id="Rectangle" fill="#D8D8D8" stroke="none" />
      </g>
      <path d="M34.5329 1.48902C33.5949 0.53384 32.3147 -0.00263952 30.9796 1.9604e-05L5.02779 1.9604e-05C2.24957 0.00654808 0.000641831 2.27214 0 5.06505L0 22.935C-8.10749e-06 25.7275 2.24835 27.9933 5.02622 28L30.9705 28C33.7496 27.9948 35.9997 25.7287 35.9999 22.935L35.9999 5.07532C36.0079 3.73072 35.4795 2.43899 34.5329 1.48902ZM30 4.00039L18.0261 14L16.3596 12.6163L16.2887 12.5494C16.2272 12.4903 16.1605 12.4361 16.0894 12.3873L6 4.00001L30 4.00039ZM4 22L13 13.8443L4 6.00001L4 22ZM33 22L24 13.7781L33 6.00001L33 22ZM19.2641 17.6104C18.5578 18.1844 17.5189 18.1891 16.8069 17.6216L14.9769 16.0636L6 24L30 24L21.1492 16L19.2641 17.6104Z" transform="translate(26 32.99999)" id="Shape" fill="#00449D" fill-rule="evenodd" stroke="none" />
    </g>
    <g id="Group" transform="translate(75 369)">
      <g id="Group">
        <g id="Group" transform="translate(0.5540376 0.06384628)">
          <path d="M12 0L311.047 0Q311.355 0 311.66 0.013989Q311.965 0.027978 312.268 0.0559275Q312.571 0.0838769 312.87 0.12573Q313.169 0.167583 313.465 0.223254Q313.76 0.278925 314.051 0.3483Q314.342 0.417676 314.628 0.500614Q314.913 0.583552 315.194 0.679885Q315.474 0.776217 315.747 0.885746Q316.021 0.995276 316.288 1.11778Q316.555 1.24028 316.815 1.37551Q317.075 1.51074 317.326 1.65841Q317.578 1.80609 317.821 1.96591Q318.065 2.12573 318.299 2.29737Q318.533 2.46902 318.758 2.65213Q318.984 2.83524 319.199 3.02945Q319.414 3.22366 319.619 3.42857Q319.824 3.63348 320.018 3.84868Q320.212 4.06387 320.395 4.28891Q320.578 4.51394 320.75 4.74837Q320.922 4.98279 321.082 5.22612Q321.241 5.46944 321.389 5.72118Q321.537 5.97292 321.672 6.23256Q321.807 6.49219 321.93 6.75919Q322.052 7.02619 322.162 7.30002Q322.271 7.57384 322.368 7.85393Q322.464 8.13401 322.547 8.41979Q322.63 8.70557 322.699 8.99646Q322.769 9.28735 322.824 9.58275Q322.88 9.87816 322.922 10.1775Q322.964 10.4768 322.991 10.7794Q323.019 11.082 323.033 11.3873Q323.047 11.6926 323.047 12L323.047 80.7436Q323.047 81.051 323.033 81.3563Q323.019 81.6616 322.991 81.9642Q322.964 82.2669 322.922 82.5662Q322.88 82.8655 322.824 83.1609Q322.769 83.4563 322.699 83.7472Q322.63 84.0381 322.547 84.3239Q322.464 84.6096 322.368 84.8897Q322.271 85.1698 322.162 85.4436Q322.052 85.7175 321.93 85.9845Q321.807 86.2515 321.672 86.5111Q321.537 86.7707 321.389 87.0225Q321.241 87.2742 321.082 87.5175Q320.922 87.7609 320.75 87.9953Q320.578 88.2297 320.395 88.4547Q320.212 88.6798 320.018 88.895Q319.824 89.1102 319.619 89.3151Q319.414 89.52 319.199 89.7142Q318.984 89.9084 318.759 90.0915Q318.534 90.2746 318.299 90.4463Q318.065 90.6179 317.821 90.7777Q317.578 90.9376 317.326 91.0852Q317.075 91.2329 316.815 91.3681Q316.555 91.5034 316.288 91.6259Q316.021 91.7484 315.747 91.8579Q315.474 91.9674 315.193 92.0638Q314.913 92.1601 314.628 92.243Q314.342 92.326 314.051 92.3953Q313.76 92.4647 313.465 92.5204Q313.169 92.5761 312.87 92.6179Q312.571 92.6598 312.268 92.6877Q311.965 92.7157 311.66 92.7297Q311.355 92.7436 311.047 92.7436L12 92.7436Q11.6926 92.7436 11.3873 92.7297Q11.082 92.7157 10.7794 92.6877Q10.4768 92.6598 10.1775 92.6179Q9.87816 92.5761 9.58275 92.5204Q9.28735 92.4647 8.99646 92.3953Q8.70557 92.326 8.41979 92.243Q8.13401 92.1601 7.85393 92.0638Q7.57384 91.9674 7.30002 91.8579Q7.02619 91.7484 6.75919 91.6259Q6.49219 91.5034 6.23256 91.3681Q5.97292 91.2329 5.72118 91.0852Q5.46944 90.9376 5.22612 90.7777Q4.98279 90.6179 4.74837 90.4463Q4.51394 90.2746 4.28891 90.0915Q4.06387 89.9084 3.84868 89.7142Q3.63348 89.52 3.42857 89.3151Q3.22366 89.1102 3.02945 88.895Q2.83524 88.6798 2.65213 88.4547Q2.46902 88.2297 2.29737 87.9953Q2.12573 87.7609 1.96591 87.5175Q1.80609 87.2742 1.65841 87.0225Q1.51074 86.7707 1.37551 86.5111Q1.24028 86.2514 1.11778 85.9845Q0.995276 85.7175 0.885746 85.4436Q0.776217 85.1698 0.679885 84.8897Q0.583552 84.6096 0.500614 84.3238Q0.417676 84.0381 0.3483 83.7472Q0.278925 83.4563 0.223254 83.1609Q0.167583 82.8655 0.12573 82.5662Q0.0838769 82.2669 0.0559275 81.9642Q0.027978 81.6616 0.013989 81.3563Q0 81.051 0 80.7436L0 12Q0 11.6926 0.013989 11.3873Q0.027978 11.082 0.0559275 10.7794Q0.0838769 10.4768 0.12573 10.1775Q0.167583 9.87816 0.223254 9.58275Q0.278925 9.28735 0.3483 8.99646Q0.417676 8.70557 0.500614 8.41979Q0.583552 8.13401 0.679885 7.85393Q0.776217 7.57384 0.885746 7.30002Q0.995276 7.02619 1.11778 6.75919Q1.24028 6.49219 1.37551 6.23256Q1.51074 5.97292 1.65841 5.72118Q1.80609 5.46944 1.96591 5.22612Q2.12573 4.98279 2.29737 4.74837Q2.46902 4.51394 2.65213 4.28891Q2.83524 4.06387 3.02945 3.84868Q3.22366 3.63348 3.42857 3.42857Q3.63348 3.22366 3.84868 3.02945Q4.06387 2.83524 4.28891 2.65213Q4.51394 2.46902 4.74837 2.29737Q4.98279 2.12573 5.22612 1.96591Q5.46944 1.80609 5.72118 1.65841Q5.97292 1.51074 6.23256 1.37551Q6.49219 1.24028 6.75919 1.11778Q7.02619 0.995276 7.30002 0.885746Q7.57384 0.776217 7.85393 0.679885Q8.13401 0.583552 8.41979 0.500614Q8.70557 0.417676 8.99646 0.3483Q9.28735 0.278925 9.58275 0.223254Q9.87816 0.167583 10.1775 0.12573Q10.4768 0.0838769 10.7794 0.0559275Q11.082 0.027978 11.3873 0.013989Q11.6926 0 12 0Z" transform="translate(0.4096206 0.2284813)" id="Rectangle" fill="#FFFFFF" stroke="none" />
        </g>
      </g>
      <g id="Group" transform="translate(85.17782 28.68907)">
        <path d="M4.7 0L204.683 0Q204.924 0 205.161 0.0219049Q205.398 0.0438098 205.63 0.087441Q205.861 0.131072 206.085 0.196074Q206.309 0.261075 206.524 0.346917Q206.739 0.432759 206.942 0.538741Q207.146 0.644723 207.336 0.769981Q207.527 0.895238 207.703 1.03875Q207.88 1.18226 208.04 1.34286Q208.201 1.50345 208.344 1.67982Q208.488 1.85619 208.613 2.0469Q208.738 2.2376 208.844 2.44108Q208.95 2.64457 209.036 2.85917Q209.122 3.07378 209.187 3.29775Q209.252 3.52173 209.296 3.75324Q209.339 3.98476 209.361 4.22193Q209.383 4.45911 209.383 4.7L209.383 4.61309Q209.383 4.85398 209.361 5.09115Q209.339 5.32832 209.296 5.55984Q209.252 5.79136 209.187 6.01533Q209.122 6.23931 209.036 6.45391Q208.95 6.66852 208.844 6.872Q208.738 7.07549 208.613 7.26619Q208.488 7.4569 208.344 7.63326Q208.201 7.80963 208.04 7.97023Q207.88 8.13083 207.703 8.27434Q207.527 8.41785 207.336 8.54311Q207.146 8.66836 206.942 8.77434Q206.739 8.88033 206.524 8.96617Q206.309 9.05201 206.085 9.11701Q205.861 9.18201 205.63 9.22564Q205.398 9.26928 205.161 9.29118Q204.924 9.31309 204.683 9.31309L4.7 9.31309Q4.45911 9.31309 4.22193 9.29118Q3.98476 9.26928 3.75324 9.22564Q3.52173 9.18201 3.29775 9.11701Q3.07378 9.05201 2.85917 8.96617Q2.64457 8.88033 2.44108 8.77435Q2.2376 8.66836 2.0469 8.54311Q1.85619 8.41785 1.67982 8.27434Q1.50345 8.13083 1.34286 7.97023Q1.18226 7.80963 1.03875 7.63327Q0.895238 7.4569 0.769981 7.26619Q0.644723 7.07549 0.538741 6.872Q0.432759 6.66852 0.346917 6.45391Q0.261075 6.23931 0.196074 6.01534Q0.131072 5.79136 0.087441 5.55984Q0.0438098 5.32832 0.0219049 5.09115Q0 4.85398 0 4.61309L0 4.7Q0 4.45911 0.0219049 4.22193Q0.0438098 3.98476 0.087441 3.75324Q0.131072 3.52173 0.196074 3.29775Q0.261075 3.07378 0.346917 2.85917Q0.432759 2.64457 0.538741 2.44108Q0.644723 2.2376 0.769981 2.0469Q0.895238 1.85619 1.03875 1.67982Q1.18226 1.50345 1.34286 1.34286Q1.50345 1.18226 1.67982 1.03875Q1.85619 0.895238 2.0469 0.769981Q2.2376 0.644723 2.44108 0.538741Q2.64457 0.432759 2.85917 0.346917Q3.07378 0.261075 3.29775 0.196074Q3.52173 0.131072 3.75324 0.087441Q3.98476 0.0438098 4.22193 0.0219049Q4.45911 0 4.7 0Z" transform="translate(0.4568646 0.194131)" id="Rectangle" fill="#D8D8D8" stroke="none" />
        <path d="M4.7 0L151.988 0Q152.229 0 152.466 0.0219049Q152.703 0.0438098 152.935 0.087441Q153.166 0.131072 153.39 0.196074Q153.614 0.261075 153.829 0.346917Q154.043 0.432759 154.247 0.538741Q154.45 0.644723 154.641 0.769981Q154.832 0.895238 155.008 1.03875Q155.185 1.18226 155.345 1.34286Q155.506 1.50345 155.649 1.67982Q155.793 1.85619 155.918 2.0469Q156.043 2.2376 156.149 2.44108Q156.255 2.64457 156.341 2.85917Q156.427 3.07378 156.492 3.29775Q156.557 3.52173 156.601 3.75324Q156.644 3.98476 156.666 4.22193Q156.688 4.45911 156.688 4.7L156.688 4.61309Q156.688 4.85398 156.666 5.09115Q156.644 5.32833 156.601 5.55984Q156.557 5.79136 156.492 6.01534Q156.427 6.23931 156.341 6.45392Q156.255 6.66852 156.149 6.872Q156.043 7.07549 155.918 7.26619Q155.793 7.4569 155.649 7.63327Q155.506 7.80964 155.345 7.97023Q155.185 8.13083 155.008 8.27434Q154.832 8.41785 154.641 8.54311Q154.45 8.66836 154.247 8.77435Q154.043 8.88033 153.829 8.96617Q153.614 9.05201 153.39 9.11701Q153.166 9.18201 152.935 9.22565Q152.703 9.26928 152.466 9.29118Q152.229 9.31309 151.988 9.31309L4.7 9.31309Q4.45911 9.31309 4.22193 9.29118Q3.98476 9.26928 3.75324 9.22565Q3.52173 9.18201 3.29775 9.11701Q3.07378 9.05201 2.85917 8.96617Q2.64457 8.88033 2.44108 8.77435Q2.2376 8.66836 2.0469 8.54311Q1.85619 8.41785 1.67982 8.27434Q1.50345 8.13083 1.34286 7.97023Q1.18226 7.80964 1.03875 7.63327Q0.895238 7.4569 0.769981 7.26619Q0.644723 7.07549 0.538741 6.872Q0.432759 6.66852 0.346917 6.45392Q0.261075 6.23931 0.196074 6.01534Q0.131072 5.79136 0.087441 5.55984Q0.0438098 5.32833 0.0219049 5.09115Q0 4.85398 0 4.61309L0 4.7Q0 4.45911 0.0219049 4.22193Q0.0438098 3.98476 0.087441 3.75324Q0.131072 3.52173 0.196074 3.29775Q0.261075 3.07378 0.346917 2.85917Q0.432759 2.64457 0.538741 2.44108Q0.644723 2.2376 0.769981 2.0469Q0.895238 1.85619 1.03875 1.67982Q1.18226 1.50345 1.34286 1.34286Q1.50345 1.18226 1.67982 1.03875Q1.85619 0.895238 2.0469 0.769981Q2.2376 0.644723 2.44108 0.538741Q2.64457 0.432759 2.85917 0.346917Q3.07378 0.261075 3.29775 0.196074Q3.52173 0.131072 3.75324 0.087441Q3.98476 0.0438098 4.22193 0.0219049Q4.45911 0 4.7 0Z" transform="translate(0.4568646 26.44294)" id="Rectangle" fill="#D8D8D8" stroke="none" />
      </g>
      <path d="M6.43555 13.8488C9.01257 18.8882 13.1117 22.9876 18.1509 25.5648L22.0623 21.6534C22.5365 21.1782 23.2391 21.013 23.8754 21.2271C25.9236 21.8997 28.066 22.2416 30.2218 22.24C31.2027 22.2429 31.997 23.0373 32 24.0181L32 30.2223C31.997 31.203 31.2026 31.9973 30.2218 32C22.2063 32.0007 14.5188 28.8168 8.85099 23.1489C3.18314 17.481 -0.000712553 9.79339 1.19618e-07 1.77773C0.00295071 0.797141 0.79713 0.00295063 1.7777 0L8.0019 0C8.98248 0.00295063 9.77666 0.797141 9.77961 1.77773C9.77644 3.93392 10.1185 6.0767 10.7929 8.12471C10.9982 8.76458 10.8263 9.46552 10.3483 9.93781L6.43555 13.8488Z" transform="translate(28.60331 30.80311)" id="Path" fill="#00449D" stroke="none" />
    </g>
    <path d="M55.5 12C86.1518 12 111 9.31371 111 6C111 2.68629 86.1518 0 55.5 0C24.8482 0 0 2.68629 0 6C0 9.31371 24.8482 12 55.5 12Z" transform="translate(312 533)" id="Oval" fill="#D8D9D9" fill-opacity="0.2" stroke="none" />
    <g id="Group" transform="translate(312 303)">
      <path d="M0.0293948 10.7054C0.0435024 10.2076 0.36952 9.77136 0.84609 9.61253C1.82167 9.28715 3.36232 8.59937 3.39467 7.48582C3.44571 5.84826 11.0454 -1.47096 14.2554 0.264148C17.4654 1.99926 18.4726 7.85534 13.8909 11.0799C12.3977 12.1315 4.00503 14.0482 2.37452 13.9991C0.744003 13.9499 -0.046092 13.1062 0.00207579 11.4722L0.0293948 10.7054Z" transform="translate(73 56)" id="Path" fill="#F2A980" stroke="none" />
      <path d="M32.9923 13.1828C32.9923 13.1828 33.4414 7.92533 27.4891 6.76487C27.4891 6.76487 18.6415 6.51562 14.687 1.50663C13.0972 -0.646369 12.404 0.140203 12.404 0.140203L2.86332 0.67752C2.84812 2.85005 2.19473 4.96856 0.986782 6.76189C-1.0522 9.86639 0.700855 15 0.700855 15L32.9923 13.1828Z" transform="translate(35 222)" id="Path" fill="#747D8F" stroke="none" />
      <path d="M32 16.9885C32 16.9885 30.8243 9.00183 20.6039 9.56823C19.8727 9.60916 18.0901 3.85229 16.5487 2.47318C15.0074 1.09408 8.35956 0 8.35956 0L0 7.78278L13.7461 18L32 16.9885Z" transform="translate(0 218)" id="Path" fill="#747D8F" stroke="none" />
      <path d="M10 0L9.40139 7.51723L0.426811 8L0 0.538066L10 0L10 0Z" transform="translate(38 214)" id="Path" fill="#FAAE84" stroke="none" />
      <path d="M11 0.198698L7.21464 9L0 7.25532L1.73561 0L11 0.198698L11 0.198698Z" transform="translate(9 211)" id="Path" fill="#FAAE84" stroke="none" />
      <path d="M0 1.78655C0 1.78655 9.80877 44.5138 13.1336 50.9314C13.1336 50.9314 2.58098 61.0438 0.482593 102.958L1.96294 102.877L13.0892 103L23.1452 71.8891L28 38.3831C28 38.3831 17.2875 5.97105 16.5073 5.28059C15.7272 4.59013 5.83256 0 5.83256 0L0 1.78655Z" transform="translate(8 108)" id="Path" fill="#747D8F" stroke="none" />
      <path d="M13.1347 50.9542C9.80955 44.5336 0 1.78735 0 1.78735L5.8308 0C5.8308 0 15.7262 4.59218 16.5064 5.28294C17.2866 5.97371 28 38.4002 28 38.4002L23.1448 71.9211L23.0708 72.1475L2.68186 81C6.47259 57.3432 13.1347 50.9542 13.1347 50.9542Z" transform="translate(8 108)" id="Path" fill="#5F6571" stroke="none" />
      <path d="M27.4356 0C27.4356 0 33.1671 38.406 33.0029 48.6447C32.8388 58.8835 34 106.313 34 106.313L21.7272 107C21.7272 107 14.5518 68.675 18.8047 53.8232L0 1.53501L27.4356 0Z" transform="translate(14 108)" id="Path" fill="#747D8F" stroke="none" />
      <path d="M5.74976 0.0377815C5.74976 0.0377815 6.93592 0.591426 8.51187 1.34052L32.7971 0C32.7971 0 32.8701 0.484621 33 1.35432L1.6723 9C0.650379 4.66529 0 1.81061 0 1.81061L5.74976 0.0377815Z" transform="translate(9 108)" id="Path" fill="#454952" fill-opacity="0.5" stroke="none" />
      <path d="M54.744 27.1229L57 35.5028C57 35.5028 28.2464 41.8745 20.7925 34.2621C14.8982 28.2434 -2.94643 8.57207 0.418766 3.64718C3.78396 -1.2777 9.27412 -2.39379 16.0847 7.84531C22.0511 16.8185 27.0857 21.7174 27.5722 24.7357L54.744 27.1229Z" transform="translate(20 37)" id="Path" fill="#525252" stroke="none" />
      <path d="M40.3268 26.0248L10.2811 0.456642C9.75992 0.0132189 9.04178 -0.118522 8.39713 0.111034C7.75248 0.34059 7.27924 0.896577 7.15564 1.56961L0.0316017 40.3701C-0.0921088 41.0431 0.152648 41.7311 0.673682 42.1748C1.19472 42.6185 1.91288 42.7505 2.55766 42.5212L14.9224 38.1192L26.5314 70.7268C26.7016 71.2055 27.0551 71.5969 27.514 71.8148C27.9729 72.0328 28.4996 72.0594 28.9782 71.8889L37.8103 68.7445C38.2889 68.5742 38.6803 68.2208 38.8983 67.7619C39.1162 67.303 39.1429 66.7763 38.9724 66.2977L27.3634 33.6901L39.7274 29.2881C40.3718 29.0583 40.8448 28.5023 40.9684 27.8293C41.092 27.1564 40.8475 26.4686 40.3268 26.0248Z" transform="translate(52 28)" id="Path" fill="#00449D" stroke="none" />
      <path d="M38.9713 73.864L0 76C2.05929 66.3378 3.23596 56.5121 3.5158 46.6417C4.04899 29.8417 5.76564 20.9984 8.38077 15.0221C10.9959 9.04571 13.2413 9.65143 14.4682 5.20902C15.6952 0.76661 16.3889 0 16.3889 0C16.3889 0 29.0521 2.22193 30.1951 9.45122C31.338 16.6805 39.545 57.7892 38.9713 73.864Z" transform="translate(5 33)" id="Path" fill="#D8D8D8" stroke="none" />
      <path d="M10.8891 13.1941C11.4867 10.8542 13.5988 9.22089 16.013 9.23155C20.3259 9.09164 16.2743 5.53997 16.2743 5.53997L3.01603 0C3.01603 0 0.33493 11.755 0.240207 12.5286C0.145485 13.3021 -0.295568 15.3496 0.32605 14.9484C0.947668 14.5472 10.8891 13.1941 10.8891 13.1941Z" transform="translate(22 25)" id="Path" fill="#EF9269" stroke="none" />
      <path d="M5.54238 18.0693C6.0538 18.6006 13.7208 26.8164 18.4142 24.6311C20.256 23.4271 20.5139 19.7366 19.9404 17.4699L22 15.2431L21.0305 12.357L20.674 9.06684L18.3777 0L6.35627 4.32695L0 9.35915C0 9.35915 2.94872 15.3615 5.54238 18.0693Z" transform="translate(22 10)" id="Path" fill="#FAAE84" stroke="none" />
      <path d="M16.9735 25.3307C16.9735 25.3307 16.0296 19.8454 12.5119 21.2115C8.99413 22.5775 11.6265 25.2504 13.2341 27.7063C14.8417 30.1622 10.7011 31.9235 8.87253 30.4778C7.04396 29.0321 -5.93911 17.288 3.26746 7.0917C12.474 -3.10456 19.2099 0.440534 20.6343 1.27257C22.0588 2.1046 26.9253 6.83749 30.0003 7.49128C31.8295 8.0014 33.2613 9.40642 33.7862 11.2064C34.3111 13.0064 33.8547 14.9459 32.5793 16.3347C29.3953 20.0449 27.9078 13.3871 26.952 13.4485C25.9962 13.5098 20.3911 17.0739 19.5465 18.4794C18.702 19.8849 18.4009 26.1642 16.9735 25.3307Z" transform="translate(14 0)" id="Path" fill="#412C2C" stroke="none" />
      <path d="M2.27671 6.5391C2.27671 6.5391 6.84953 5.44959 5.85973 2.74452C4.86992 0.0394444 3.43223 -0.749968 0.923373 0.752619C0.0552382 1.45124 0 1.82065 0 1.82065L1.32497 7L2.27671 6.5391Z" transform="translate(41 12)" id="Path" fill="#322424" stroke="none" />
      <path d="M0 3.16255C0 3.16255 1.24125 -0.412865 3.23576 0.0395849C5.23028 0.492035 2.59856 3.19988 3.38353 4.47801C4.16851 5.75614 2.3542 7 2.3542 7L0 3.16255Z" transform="translate(80 82)" id="Path" fill="#FAAE84" stroke="none" />
      <path d="M1.23031 9.00857C1.55716 9.41482 2.10214 9.57436 2.59614 9.4084C3.60729 9.06825 5.31216 8.67812 6.04538 9.58668C7.12135 10.9189 18.0279 12.2669 19.5823 8.80642C21.1366 5.34597 18.2649 -0.174779 12.4409 0.00424792C10.543 0.0631777 2.39943 3.72428 1.08501 4.788C-0.229413 5.85173 -0.350125 7.05046 0.725851 8.38272L1.23031 9.00857Z" transform="translate(71 84)" id="Path" fill="#F2A980" stroke="none" />
      <path d="M46.965 38.4502L47 47C47 47 17.8996 45.7037 12.6991 36.5503C8.58952 29.3108 -3.48717 6.01374 0.974131 2.1868C5.43544 -1.64013 10.9695 -1.29668 14.8838 10.1951C18.3154 20.2626 21.886 26.219 21.5838 29.2165L46.965 38.4502Z" transform="translate(29 48)" id="Path" fill="#606060" stroke="none" />
    </g>
    <g id="Group" transform="translate(644 102)">
      <path d="M1.84298 65.0355C-2.95709 52.7947 2.13205 38.1225 11.1847 29.2304C22.3278 18.2849 36.0367 18.5558 50.563 19.9343C66.9375 21.488 69.3118 1.03521 84.0733 0.0888495C95.0181 -0.612599 103.15 2.83017 120.579 10.7416C128.508 14.3503 137.348 15.4461 145.915 13.8823C151.033 12.9588 156.041 10.3111 161.348 10.8144C166.642 11.3141 171.274 15.3205 173.358 20.1074C179.353 33.8785 165.276 48.1643 153.92 53.5092C150.118 55.2989 146.239 56.0238 143.11 59.0407C138.776 63.2192 136.04 68.7008 131.868 73.0135C126.898 78.1529 119.859 80.9951 112.891 82.0897C105.381 83.2695 98.2825 81.1137 90.8008 81.3586C83.4676 81.5983 80.7616 88.8026 77.5621 94.2051C73.7159 100.699 66.0459 105.189 58.8787 107.193C49.4607 109.826 39.1247 108.633 30.3974 104.285C23.1997 100.698 17.4229 94.476 13.695 87.2629C11.849 83.6922 11.057 79.5797 8.81656 76.2748C6.32959 72.6079 3.4783 69.2062 1.84298 65.0355Z" transform="translate(100.0993 239.9416)" id="Path" fill="#00449D" stroke="none" />
      <path d="M34.212 301.347C10.592 289.48 -1.47903 260.647 0.144868 235.13C2.14399 203.724 23.0408 185.657 46.6489 168.148C73.2602 148.412 49.3637 114.579 70.204 93.2716C85.6551 77.4742 102.457 71.6733 139.181 60.0394C155.901 54.762 170.612 44.4936 181.346 30.6087C187.771 22.3302 191.718 11.616 200.341 5.21565C208.94 -1.1681 221.256 -1.40833 230.802 2.95324C258.266 15.5018 256.356 55.8666 246.521 79.1735C243.228 86.9767 238.391 93.2893 237.754 102.024C236.872 114.122 240.13 126.019 239.674 138.099C239.128 152.493 232.4 166.235 223.43 177.263C213.765 189.149 200.238 195.484 189.361 205.932C178.699 216.172 184.316 230.609 186.775 243.012C189.73 257.92 184.268 274.979 176.222 287.64C165.651 304.274 148.567 316.414 129.661 321.661C114.066 325.989 97.0598 324.449 81.7944 318.669C74.237 315.809 67.5307 310.713 59.7376 308.786C51.095 306.644 42.2598 305.39 34.212 301.347Z" transform="translate(0.1929904 0.1172239)" id="Path" fill="#3369B1" stroke="none" />
      <g id="Group" transform="translate(40.99967 44.19799)">
        <path d="M170.196 0.123234C170.183 0.591213 169.874 0.862121 169.677 1.20739L169.021 2.20002L167.708 4.18529L165.083 8.15583L159.848 16.1078L149.437 32.0498C142.499 42.6802 135.607 53.3397 128.761 64.0283C115.048 85.3942 101.518 106.878 87.9951 128.368C74.472 149.857 60.9364 171.345 46.9322 192.536C39.9228 203.126 32.7541 213.618 25.2304 223.861C21.4418 228.962 17.5681 234.006 13.4889 238.888L10.3516 242.484C9.27423 243.655 8.17762 244.81 7.07426 245.955C5.9709 247.1 4.78762 248.172 3.63807 249.269C3.05941 249.814 2.43092 250.309 1.83097 250.829C1.23103 251.349 0.615514 251.854 0 252.354C8.86786 243.274 16.8036 233.403 24.3403 223.204C31.8313 212.975 38.9756 202.486 45.9648 191.895C59.9311 170.704 73.405 149.182 87.0065 127.743C100.578 106.284 114.159 84.8279 127.923 63.4891C134.8 52.8161 141.73 42.1777 148.713 31.574C152.21 26.2765 155.726 20.9901 159.26 15.7147L164.565 7.80745L167.226 3.85926L168.556 1.88335L169.221 0.895399C169.464 0.580814 169.595 0.190311 170.022 0L170.196 0.123234Z" transform="translate(0.2325044 0.4638189)" id="Path" fill="#FFFFFF" stroke="none" />
        <path d="M15.5394 73.0026C16.3078 66.6368 16.6575 60.2273 16.5862 53.8155C16.5423 47.4229 16.0091 41.0432 14.9913 34.7323C14.4433 31.5906 13.7863 28.4692 12.944 25.3962C12.0976 22.3245 11.0717 19.3053 9.87158 16.3543L8.91976 14.1621C8.60837 13.4274 8.22121 12.7311 7.87868 12.0115L7.35347 10.9361C7.16768 10.5831 6.96683 10.2394 6.77377 9.88995C6.37882 9.19786 6.00827 8.48862 5.59152 7.81005C3.9221 5.07235 2.05318 2.4619 0 0C2.31409 2.25514 4.4096 4.72498 6.25842 7.37639C8.07776 10.0642 9.67563 12.896 11.0362 15.8437C12.3706 18.8061 13.5059 21.8546 14.4345 24.9687C15.3296 28.0901 16.0573 31.2574 16.6142 34.4568C17.6664 40.8549 18.125 47.3368 17.9843 53.8196C17.8981 60.2876 17.2046 66.733 15.9131 73.0707L15.5394 73.0026Z" transform="translate(19.27555 129.0654)" id="Path" fill="#FFFFFF" stroke="none" />
        <path d="M15.5394 73.0026C16.3079 66.6368 16.6575 60.2273 16.5862 53.8155C16.5421 47.4229 16.0087 41.0432 14.9908 34.7323C14.4428 31.5907 13.7863 28.4692 12.944 25.3956C12.0973 22.3242 11.0714 19.3053 9.87158 16.3543L8.91976 14.1621C8.60837 13.4274 8.22121 12.7311 7.87816 12.0115L7.35295 10.9361C7.16767 10.5831 6.96631 10.2394 6.77377 9.88995C6.3783 9.19786 6.00775 8.48862 5.59152 7.81005C3.9221 5.07235 2.05318 2.4619 0 0C2.31322 2.25658 4.40769 4.72782 6.2553 7.38055C8.07476 10.0683 9.67263 12.9001 11.0331 15.8478C12.3678 18.8102 13.5033 21.8587 14.4319 24.9729C15.3262 28.0942 16.0529 31.2612 16.609 34.4604C17.6614 40.8586 18.1201 47.3408 17.9791 53.8238C17.8928 60.2917 17.1995 66.7371 15.9084 73.0749L15.5394 73.0026Z" transform="translate(73.42522 49.68634)" id="Path" fill="#FFFFFF" stroke="none" />
        <path d="M84.6425 0.460888C80.8731 0.570603 77.1012 0.806152 73.3484 1.17949C69.593 1.53447 65.8519 1.99204 62.1249 2.55223C58.4012 3.12421 54.6899 3.76742 51.0083 4.55258C47.3307 5.35127 43.6714 6.22899 40.0577 7.26374C32.8156 9.29566 25.764 11.9559 18.9828 15.2142L16.4621 16.4793C15.6261 16.9098 14.8149 17.3851 13.9876 17.8312L12.7493 18.5072L11.5417 19.2352C10.7414 19.7291 9.92036 20.194 9.1341 20.7119C5.95613 22.7531 2.90573 24.9871 0 27.4014C1.37894 26.1077 2.71791 24.7526 4.2074 23.5754L5.30037 22.6613C5.66366 22.3493 6.03058 22.0529 6.41463 21.7732L8.69193 20.0572C11.7983 17.8549 15.0445 15.8574 18.4099 14.0775C19.2403 13.6069 20.1049 13.2117 20.956 12.7843C21.8071 12.3569 22.663 11.9394 23.5374 11.5634L26.1474 10.4023L28.7942 9.32856C32.3487 7.96883 35.9453 6.70736 39.6083 5.67781C46.9243 3.59768 54.3903 2.0887 61.9391 1.16442C69.4693 0.185939 77.0665 -0.176816 84.6555 0.079745L84.6425 0.460888Z" transform="translate(73.82639 123.6258)" id="Path" fill="#FFFFFF" stroke="none" />
        <path d="M69.6844 1.36796C66.5715 1.08663 63.445 0.984718 60.3204 1.06273C57.1971 1.11057 54.0817 1.33468 50.9823 1.66643C44.7871 2.3422 38.668 3.59309 32.7037 5.40298C29.7282 6.31605 26.8027 7.37334 23.9272 8.57483C21.0531 9.77078 18.2526 11.1404 15.5031 12.6124C10.0202 15.6401 4.8302 19.1719 0 23.1622C4.44805 18.6643 9.44649 14.7486 14.8761 11.5085C16.2478 10.7187 17.6138 9.91377 19.0353 9.21388C20.4339 8.46824 21.8757 7.80995 23.3169 7.15062C32.0454 3.32935 41.3533 1.00628 50.851 0.278609C54.0027 0.0203832 57.1665 -0.0584332 60.3271 0.0425394C63.4867 0.121023 66.6356 0.440695 69.7467 0.998776L69.6844 1.36796Z" transform="translate(28.29963 195.9023)" id="Path" fill="#FFFFFF" stroke="none" />
      </g>
    </g>
    <g id="Group" transform="translate(474 369)">
      <g id="Group">
        <g id="Group" transform="translate(0.1051415 0.06384628)">
          <g filter="url(#filter_1)">
            <path d="M12 0L311.402 0Q311.71 0 312.015 0.013989Q312.32 0.027978 312.623 0.0559275Q312.926 0.0838769 313.225 0.12573Q313.524 0.167583 313.82 0.223254Q314.115 0.278925 314.406 0.3483Q314.697 0.417676 314.983 0.500614Q315.268 0.583552 315.548 0.679885Q315.829 0.776217 316.102 0.885746Q316.376 0.995276 316.643 1.11778Q316.91 1.24028 317.17 1.37551Q317.429 1.51074 317.681 1.65841Q317.933 1.80609 318.176 1.96591Q318.42 2.12573 318.654 2.29737Q318.888 2.46902 319.113 2.65213Q319.338 2.83524 319.554 3.02945Q319.769 3.22366 319.974 3.42857Q320.179 3.63348 320.373 3.84868Q320.567 4.06387 320.75 4.28891Q320.933 4.51394 321.105 4.74837Q321.277 4.98279 321.436 5.22612Q321.596 5.46944 321.744 5.72118Q321.892 5.97292 322.027 6.23256Q322.162 6.49219 322.285 6.75919Q322.407 7.02619 322.517 7.30002Q322.626 7.57384 322.722 7.85393Q322.819 8.13401 322.902 8.41979Q322.985 8.70557 323.054 8.99646Q323.123 9.28735 323.179 9.58275Q323.235 9.87816 323.277 10.1775Q323.318 10.4768 323.346 10.7794Q323.374 11.082 323.388 11.3873Q323.402 11.6926 323.402 12L323.402 80.7436Q323.402 81.051 323.388 81.3563Q323.374 81.6616 323.346 81.9642Q323.318 82.2669 323.277 82.5662Q323.235 82.8655 323.179 83.1609Q323.123 83.4563 323.054 83.7472Q322.985 84.0381 322.902 84.3239Q322.819 84.6096 322.722 84.8897Q322.626 85.1698 322.517 85.4436Q322.407 85.7175 322.285 85.9845Q322.162 86.2515 322.027 86.5111Q321.892 86.7707 321.744 87.0225Q321.596 87.2742 321.436 87.5175Q321.277 87.7609 321.105 87.9953Q320.933 88.2297 320.75 88.4547Q320.567 88.6798 320.373 88.895Q320.179 89.1102 319.974 89.3151Q319.769 89.52 319.554 89.7142Q319.338 89.9084 319.113 90.0915Q318.888 90.2746 318.654 90.4463Q318.42 90.6179 318.176 90.7777Q317.933 90.9376 317.681 91.0852Q317.429 91.2329 317.17 91.3681Q316.91 91.5034 316.643 91.6259Q316.376 91.7484 316.102 91.8579Q315.829 91.9674 315.548 92.0638Q315.268 92.1601 314.983 92.243Q314.697 92.326 314.406 92.3953Q314.115 92.4647 313.82 92.5204Q313.524 92.5761 313.225 92.6179Q312.926 92.6598 312.623 92.6877Q312.32 92.7157 312.015 92.7297Q311.71 92.7436 311.402 92.7436L12 92.7436Q11.6926 92.7436 11.3873 92.7297Q11.082 92.7157 10.7794 92.6877Q10.4768 92.6598 10.1775 92.6179Q9.87816 92.5761 9.58275 92.5204Q9.28735 92.4647 8.99646 92.3953Q8.70557 92.326 8.41979 92.243Q8.13401 92.1601 7.85393 92.0638Q7.57384 91.9674 7.30002 91.8579Q7.02619 91.7484 6.75919 91.6259Q6.49219 91.5034 6.23256 91.3681Q5.97292 91.2329 5.72118 91.0852Q5.46944 90.9376 5.22612 90.7777Q4.98279 90.6179 4.74837 90.4463Q4.51394 90.2746 4.28891 90.0915Q4.06387 89.9084 3.84868 89.7142Q3.63348 89.52 3.42857 89.3151Q3.22366 89.1102 3.02945 88.895Q2.83524 88.6798 2.65213 88.4547Q2.46902 88.2297 2.29737 87.9953Q2.12573 87.7609 1.96591 87.5175Q1.80609 87.2742 1.65841 87.0225Q1.51074 86.7707 1.37551 86.5111Q1.24028 86.2514 1.11778 85.9845Q0.995276 85.7175 0.885746 85.4436Q0.776217 85.1698 0.679885 84.8897Q0.583552 84.6096 0.500614 84.3238Q0.417676 84.0381 0.3483 83.7472Q0.278925 83.4563 0.223254 83.1609Q0.167583 82.8655 0.12573 82.5662Q0.0838769 82.2669 0.0559275 81.9642Q0.027978 81.6616 0.013989 81.3563Q0 81.051 0 80.7436L0 12Q0 11.6926 0.013989 11.3873Q0.027978 11.082 0.0559275 10.7794Q0.0838769 10.4768 0.12573 10.1775Q0.167583 9.87816 0.223254 9.58275Q0.278925 9.28735 0.3483 8.99646Q0.417676 8.70557 0.500614 8.41979Q0.583552 8.13401 0.679885 7.85393Q0.776217 7.57384 0.885746 7.30002Q0.995276 7.02619 1.11778 6.75919Q1.24028 6.49219 1.37551 6.23256Q1.51074 5.97292 1.65841 5.72118Q1.80609 5.46944 1.96591 5.22612Q2.12573 4.98279 2.29737 4.74837Q2.46902 4.51394 2.65213 4.28891Q2.83524 4.06387 3.02945 3.84868Q3.22366 3.63348 3.42857 3.42857Q3.63348 3.22366 3.84868 3.02945Q4.06387 2.83524 4.28891 2.65213Q4.51394 2.46902 4.74837 2.29737Q4.98279 2.12573 5.22612 1.96591Q5.46944 1.80609 5.72118 1.65841Q5.97292 1.51074 6.23256 1.37551Q6.49219 1.24028 6.75919 1.11778Q7.02619 0.995276 7.30002 0.885746Q7.57384 0.776217 7.85393 0.679885Q8.13401 0.583552 8.41979 0.500614Q8.70557 0.417676 8.99646 0.3483Q9.28735 0.278925 9.58275 0.223254Q9.87816 0.167583 10.1775 0.12573Q10.4768 0.0838769 10.7794 0.0559275Q11.082 0.027978 11.3873 0.013989Q11.6926 0 12 0Z" transform="translate(0.03586169 0.2284813)" id="Rectangle" fill="#FFFFFF" stroke="none" />
          </g>
        </g>
      </g>
      <g id="Group" transform="translate(84.82189 28.68907)">
        <path d="M4.7 0L204.913 0Q205.154 0 205.391 0.0219049Q205.628 0.0438098 205.86 0.087441Q206.091 0.131072 206.315 0.196074Q206.539 0.261075 206.754 0.346917Q206.969 0.432759 207.172 0.538741Q207.376 0.644723 207.566 0.769981Q207.757 0.895238 207.933 1.03875Q208.11 1.18226 208.27 1.34286Q208.431 1.50345 208.574 1.67982Q208.718 1.85619 208.843 2.0469Q208.968 2.2376 209.074 2.44108Q209.18 2.64457 209.266 2.85917Q209.352 3.07378 209.417 3.29775Q209.482 3.52173 209.526 3.75324Q209.569 3.98476 209.591 4.22193Q209.613 4.45911 209.613 4.7L209.613 4.61309Q209.613 4.85398 209.591 5.09115Q209.569 5.32832 209.526 5.55984Q209.482 5.79136 209.417 6.01533Q209.352 6.23931 209.266 6.45391Q209.18 6.66852 209.074 6.872Q208.968 7.07549 208.843 7.26619Q208.718 7.4569 208.574 7.63326Q208.431 7.80963 208.27 7.97023Q208.11 8.13083 207.933 8.27434Q207.757 8.41785 207.566 8.54311Q207.376 8.66836 207.172 8.77434Q206.969 8.88033 206.754 8.96617Q206.539 9.05201 206.315 9.11701Q206.091 9.18201 205.86 9.22564Q205.628 9.26928 205.391 9.29118Q205.154 9.31309 204.913 9.31309L4.7 9.31309Q4.45911 9.31309 4.22193 9.29118Q3.98476 9.26928 3.75324 9.22564Q3.52173 9.18201 3.29775 9.11701Q3.07378 9.05201 2.85917 8.96617Q2.64457 8.88033 2.44108 8.77435Q2.2376 8.66836 2.0469 8.54311Q1.85619 8.41785 1.67982 8.27434Q1.50345 8.13083 1.34286 7.97023Q1.18226 7.80963 1.03875 7.63327Q0.895238 7.4569 0.769981 7.26619Q0.644723 7.07549 0.538741 6.872Q0.432759 6.66852 0.346917 6.45391Q0.261075 6.23931 0.196074 6.01534Q0.131072 5.79136 0.087441 5.55984Q0.0438098 5.32832 0.0219049 5.09115Q0 4.85398 0 4.61309L0 4.7Q0 4.45911 0.0219049 4.22193Q0.0438098 3.98476 0.087441 3.75324Q0.131072 3.52173 0.196074 3.29775Q0.261075 3.07378 0.346917 2.85917Q0.432759 2.64457 0.538741 2.44108Q0.644723 2.2376 0.769981 2.0469Q0.895238 1.85619 1.03875 1.67982Q1.18226 1.50345 1.34286 1.34286Q1.50345 1.18226 1.67982 1.03875Q1.85619 0.895238 2.0469 0.769981Q2.2376 0.644723 2.44108 0.538741Q2.64457 0.432759 2.85917 0.346917Q3.07378 0.261075 3.29775 0.196074Q3.52173 0.131072 3.75324 0.087441Q3.98476 0.0438098 4.22193 0.0219049Q4.45911 0 4.7 0Z" transform="translate(0.08263781 0.194131)" id="Rectangle" fill="#D8D8D8" stroke="none" />
        <path d="M4.7 0L152.16 0Q152.401 0 152.638 0.0219049Q152.875 0.0438098 153.107 0.087441Q153.338 0.131072 153.562 0.196074Q153.786 0.261075 154.001 0.346917Q154.216 0.432759 154.419 0.538741Q154.623 0.644723 154.813 0.769981Q155.004 0.895238 155.18 1.03875Q155.357 1.18226 155.517 1.34286Q155.678 1.50345 155.821 1.67982Q155.965 1.85619 156.09 2.0469Q156.215 2.2376 156.321 2.44108Q156.427 2.64457 156.513 2.85917Q156.599 3.07378 156.664 3.29775Q156.729 3.52173 156.773 3.75324Q156.816 3.98476 156.838 4.22193Q156.86 4.45911 156.86 4.7L156.86 4.61309Q156.86 4.85398 156.838 5.09115Q156.816 5.32833 156.773 5.55984Q156.729 5.79136 156.664 6.01534Q156.599 6.23931 156.513 6.45392Q156.427 6.66852 156.321 6.872Q156.215 7.07549 156.09 7.26619Q155.965 7.4569 155.821 7.63327Q155.678 7.80964 155.517 7.97023Q155.357 8.13083 155.18 8.27434Q155.004 8.41785 154.813 8.54311Q154.623 8.66836 154.419 8.77435Q154.216 8.88033 154.001 8.96617Q153.786 9.05201 153.562 9.11701Q153.338 9.18201 153.107 9.22565Q152.875 9.26928 152.638 9.29118Q152.401 9.31309 152.16 9.31309L4.7 9.31309Q4.45911 9.31309 4.22193 9.29118Q3.98476 9.26928 3.75324 9.22565Q3.52173 9.18201 3.29775 9.11701Q3.07378 9.05201 2.85917 8.96617Q2.64457 8.88033 2.44108 8.77435Q2.2376 8.66836 2.0469 8.54311Q1.85619 8.41785 1.67982 8.27434Q1.50345 8.13083 1.34286 7.97023Q1.18226 7.80964 1.03875 7.63327Q0.895238 7.4569 0.769981 7.26619Q0.644723 7.07549 0.538741 6.872Q0.432759 6.66852 0.346917 6.45392Q0.261075 6.23931 0.196074 6.01534Q0.131072 5.79136 0.087441 5.55984Q0.0438098 5.32833 0.0219049 5.09115Q0 4.85398 0 4.61309L0 4.7Q0 4.45911 0.0219049 4.22193Q0.0438098 3.98476 0.087441 3.75324Q0.131072 3.52173 0.196074 3.29775Q0.261075 3.07378 0.346917 2.85917Q0.432759 2.64457 0.538741 2.44108Q0.644723 2.2376 0.769981 2.0469Q0.895238 1.85619 1.03875 1.67982Q1.18226 1.50345 1.34286 1.34286Q1.50345 1.18226 1.67982 1.03875Q1.85619 0.895238 2.0469 0.769981Q2.2376 0.644723 2.44108 0.538741Q2.64457 0.432759 2.85917 0.346917Q3.07378 0.261075 3.29775 0.196074Q3.52173 0.131072 3.75324 0.087441Q3.98476 0.0438098 4.22193 0.0219049Q4.45911 0 4.7 0Z" transform="translate(0.08263781 26.44294)" id="Rectangle" fill="#D8D8D8" stroke="none" />
      </g>
      <path d="M3.53732 10.1155L9.78842 3.65612L6.73773 0.503802C6.08585 -0.167934 5.03086 -0.167934 4.37898 0.503802L0.487907 4.52451C-0.162636 5.19791 -0.162636 6.28845 0.487907 6.96185L3.53732 10.1155ZM11.5555 5.48292L5.30438 11.9423L23.7489 31L30 31L30 24.5406L11.5555 5.48292ZM18 29L0 29L0 32L18 32L18 29Z" transform="translate(38 31)" id="Combined-Shape" fill="#00449D" fill-rule="evenodd" stroke="none" />
    </g>
  </g>
</svg>