<svg xmlns="http://www.w3.org/2000/svg" xmlns:xlink="http://www.w3.org/1999/xlink" width="570" height="352" viewBox="0 0 570 352"><defs><filter id="a" x="0" y="0" width="216" height="352" filterUnits="userSpaceOnUse"><feOffset dy="10" input="SourceAlpha"/><feGaussianBlur stdDeviation="10" result="b"/><feFlood flood-opacity="0.102"/><feComposite operator="in" in2="b"/><feComposite in="SourceGraphic"/></filter><filter id="c" x="354" y="0" width="216" height="286" filterUnits="userSpaceOnUse"><feOffset dy="10" input="SourceAlpha"/><feGaussianBlur stdDeviation="10" result="d"/><feFlood flood-opacity="0.102"/><feComposite operator="in" in2="d"/><feComposite in="SourceGraphic"/></filter><filter id="e" x="177" y="0" width="216" height="195" filterUnits="userSpaceOnUse"><feOffset dy="10" input="SourceAlpha"/><feGaussianBlur stdDeviation="10" result="f"/><feFlood flood-opacity="0.102"/><feComposite operator="in" in2="f"/><feComposite in="SourceGraphic"/></filter><filter id="g" x="191" y="24" width="189" height="86" filterUnits="userSpaceOnUse"><feOffset dy="10" input="SourceAlpha"/><feGaussianBlur stdDeviation="10" result="h"/><feFlood flood-opacity="0.051"/><feComposite operator="in" in2="h"/><feComposite in="SourceGraphic"/></filter><filter id="i" x="191" y="70" width="189" height="105" filterUnits="userSpaceOnUse"><feOffset dy="10" input="SourceAlpha"/><feGaussianBlur stdDeviation="10" result="j"/><feFlood flood-opacity="0.051"/><feComposite operator="in" in2="j"/><feComposite in="SourceGraphic"/></filter><filter id="k" x="177" y="0" width="216" height="65" filterUnits="userSpaceOnUse"><feOffset dy="10" input="SourceAlpha"/><feGaussianBlur stdDeviation="10" result="l"/><feFlood flood-opacity="0.102"/><feComposite operator="in" in2="l"/><feComposite in="SourceGraphic"/></filter><filter id="m" x="14" y="24" width="189" height="86" filterUnits="userSpaceOnUse"><feOffset dy="10" input="SourceAlpha"/><feGaussianBlur stdDeviation="10" result="n"/><feFlood flood-opacity="0.051"/><feComposite operator="in" in2="n"/><feComposite in="SourceGraphic"/></filter><filter id="o" x="367" y="24" width="189" height="86" filterUnits="userSpaceOnUse"><feOffset dy="10" input="SourceAlpha"/><feGaussianBlur stdDeviation="10" result="p"/><feFlood flood-opacity="0.051"/><feComposite operator="in" in2="p"/><feComposite in="SourceGraphic"/></filter><filter id="q" x="14" y="116" width="189" height="105" filterUnits="userSpaceOnUse"><feOffset dy="10" input="SourceAlpha"/><feGaussianBlur stdDeviation="10" result="r"/><feFlood flood-opacity="0.051"/><feComposite operator="in" in2="r"/><feComposite in="SourceGraphic"/></filter><filter id="s" x="367" y="70" width="189" height="105" filterUnits="userSpaceOnUse"><feOffset dy="10" input="SourceAlpha"/><feGaussianBlur stdDeviation="10" result="t"/><feFlood flood-opacity="0.051"/><feComposite operator="in" in2="t"/><feComposite in="SourceGraphic"/></filter><filter id="u" x="23" y="182" width="223" height="117" filterUnits="userSpaceOnUse"><feOffset dy="10" input="SourceAlpha"/><feGaussianBlur stdDeviation="10" result="v"/><feFlood flood-opacity="0.102"/><feComposite operator="in" in2="v"/><feComposite in="SourceGraphic"/></filter><filter id="w" x="14" y="70" width="189" height="86" filterUnits="userSpaceOnUse"><feOffset dy="10" input="SourceAlpha"/><feGaussianBlur stdDeviation="10" result="x"/><feFlood flood-opacity="0.051"/><feComposite operator="in" in2="x"/><feComposite in="SourceGraphic"/></filter><filter id="y" x="367" y="135" width="189" height="86" filterUnits="userSpaceOnUse"><feOffset dy="10" input="SourceAlpha"/><feGaussianBlur stdDeviation="10" result="z"/><feFlood flood-opacity="0.051"/><feComposite operator="in" in2="z"/><feComposite in="SourceGraphic"/></filter><filter id="aa" x="367" y="180" width="189" height="90" filterUnits="userSpaceOnUse"><feOffset dy="10" input="SourceAlpha"/><feGaussianBlur stdDeviation="10" result="ab"/><feFlood flood-opacity="0.051"/><feComposite operator="in" in2="ab"/><feComposite in="SourceGraphic"/></filter><filter id="ac" x="0" y="0" width="216" height="65" filterUnits="userSpaceOnUse"><feOffset dy="10" input="SourceAlpha"/><feGaussianBlur stdDeviation="10" result="ad"/><feFlood flood-opacity="0.102"/><feComposite operator="in" in2="ad"/><feComposite in="SourceGraphic"/></filter><filter id="ae" x="354" y="0" width="216" height="65" filterUnits="userSpaceOnUse"><feOffset dy="10" input="SourceAlpha"/><feGaussianBlur stdDeviation="10" result="af"/><feFlood flood-opacity="0.102"/><feComposite operator="in" in2="af"/><feComposite in="SourceGraphic"/></filter></defs><g transform="translate(30 20)"><g transform="matrix(1, 0, 0, 1, -30, -20)" filter="url(#a)"><rect width="156" height="292" rx="4" transform="translate(30 20)" fill="#fff"/></g><g transform="matrix(1, 0, 0, 1, -30, -20)" filter="url(#c)"><rect width="156" height="226" rx="4" transform="translate(384 20)" fill="#fff"/></g><g transform="translate(177)"><g transform="matrix(1, 0, 0, 1, -207, -20)" filter="url(#e)"><rect width="156" height="135" rx="4" transform="translate(207 20)" fill="#fff"/></g><g transform="translate(14 24)"><g transform="matrix(1, 0, 0, 1, -221, -44)" filter="url(#g)"><rect width="129" height="26" rx="7" transform="translate(221 44)" fill="#fff"/></g><rect width="102.893" height="4.078" rx="2" transform="translate(13.31 7.647)" fill="#d8d8d8"/><rect width="73.202" height="4.078" rx="2" transform="translate(28.155 17)" fill="#d8d8d8"/></g><g transform="translate(14 70)"><g transform="matrix(1, 0, 0, 1, -221, -90)" filter="url(#i)"><rect width="129" height="45" rx="7" transform="translate(221 90)" fill="#fff"/></g><rect width="71.667" height="4.091" rx="2" transform="translate(13.31 7.67)" fill="#d8d8d8"/><ellipse cx="11.774" cy="11.761" rx="11.774" ry="11.761" transform="translate(95.214 10.739)" fill="#d8d8d8"/><rect width="56.31" height="4.091" rx="2" transform="translate(13.31 18)" fill="#d8d8d8"/></g><g transform="matrix(1, 0, 0, 1, -207, -20)" filter="url(#k)"><path d="M4,0H152a4,4,0,0,1,4,4V5a0,0,0,0,1,0,0H0A0,0,0,0,1,0,5V4A4,4,0,0,1,4,0Z" transform="translate(207 20)" fill="#bebebe"/></g></g><g transform="translate(14 24)"><g transform="matrix(1, 0, 0, 1, -44, -44)" filter="url(#m)"><rect width="129" height="26" rx="7" transform="translate(44 44)" fill="#fff"/></g><rect width="102.893" height="4.078" rx="2" transform="translate(13.31 7.647)" fill="#d8d8d8"/><rect width="73.202" height="4.078" rx="2" transform="translate(28.155 17)" fill="#d8d8d8"/></g><g transform="translate(367 24)"><g transform="matrix(1, 0, 0, 1, -397, -44)" filter="url(#o)"><rect width="129" height="26" rx="7" transform="translate(397 44)" fill="#fff"/></g><rect width="102.893" height="4.078" rx="2" transform="translate(13.31 7.647)" fill="#d8d8d8"/><rect width="73.202" height="4.078" rx="2" transform="translate(28.155 18)" fill="#d8d8d8"/></g><g transform="translate(14 116)"><g transform="matrix(1, 0, 0, 1, -44, -136)" filter="url(#q)"><rect width="129" height="45" rx="7" transform="translate(44 136)" fill="#fff"/></g><rect width="71.667" height="4.091" rx="2" transform="translate(13.31 7.67)" fill="#d8d8d8"/><ellipse cx="11.774" cy="11.761" rx="11.774" ry="11.761" transform="translate(95.214 10.739)" fill="#d8d8d8"/><rect width="56.31" height="4.091" rx="2" transform="translate(13.31 18)" fill="#d8d8d8"/></g><g transform="translate(367 70)"><g transform="matrix(1, 0, 0, 1, -397, -90)" filter="url(#s)"><rect width="129" height="45" rx="7" transform="translate(397 90)" fill="#fff"/></g><rect width="71.667" height="4.091" rx="2" transform="translate(13.31 7.67)" fill="#d8d8d8"/><ellipse cx="11.774" cy="11.761" rx="11.774" ry="11.761" transform="translate(95.214 10.739)" fill="#d8d8d8"/><rect width="56.31" height="4.091" rx="2" transform="translate(13.31 18)" fill="#d8d8d8"/></g><g transform="translate(23 182)"><g transform="matrix(1, 0, 0, 1, -53, -202)" filter="url(#u)"><rect width="163" height="57" rx="7" transform="translate(53 202)" fill="#fff"/></g><rect width="91" height="5" rx="2" transform="translate(17 10)" fill="#d8d8d8"/><circle cx="15" cy="15" r="15" transform="translate(120 14)" fill="#d8d8d8"/><rect width="71" height="5" rx="2" transform="translate(17 23)" fill="#d8d8d8"/><rect width="71" height="5" rx="2" transform="translate(17 36)" fill="#d8d8d8"/></g><g transform="translate(14 70)"><g transform="matrix(1, 0, 0, 1, -44, -90)" filter="url(#w)"><rect width="129" height="26" rx="7" transform="translate(44 90)" fill="#fff"/></g><rect width="102.893" height="4.078" rx="2" transform="translate(13.31 7.647)" fill="#d8d8d8"/><rect width="73.202" height="4.078" rx="2" transform="translate(28.155 17)" fill="#d8d8d8"/></g><g transform="translate(367 135)"><g transform="matrix(1, 0, 0, 1, -397, -155)" filter="url(#y)"><rect width="129" height="26" rx="7" transform="translate(397 155)" fill="#fff"/></g><rect width="102.893" height="4.078" rx="2" transform="translate(13.31 7.647)" fill="#d8d8d8"/><rect width="73.202" height="4.078" rx="2" transform="translate(28.155 18)" fill="#d8d8d8"/></g><g transform="translate(367 180)"><g transform="matrix(1, 0, 0, 1, -397, -200)" filter="url(#aa)"><rect width="129" height="30" rx="7" transform="translate(397 200)" fill="#fff"/></g><rect width="102.893" height="4.078" rx="2" transform="translate(13.31 7.647)" fill="#d8d8d8"/><rect width="73.202" height="4.078" rx="2" transform="translate(28.155 18)" fill="#d8d8d8"/></g><g transform="matrix(1, 0, 0, 1, -30, -20)" filter="url(#ac)"><path d="M4,0H152a4,4,0,0,1,4,4V5a0,0,0,0,1,0,0H0A0,0,0,0,1,0,5V4A4,4,0,0,1,4,0Z" transform="translate(30 20)" fill="#00449d"/></g><g transform="matrix(1, 0, 0, 1, -30, -20)" filter="url(#ae)"><path d="M4,0H152a4,4,0,0,1,4,4V5a0,0,0,0,1,0,0H0A0,0,0,0,1,0,5V4A4,4,0,0,1,4,0Z" transform="translate(384 20)" fill="#3369b1"/></g></g></svg>