<svg xmlns="http://www.w3.org/2000/svg" width="417.294" height="360.281" viewBox="0 0 417.294 360.281">
  <g id="img-affiliate-submitted" transform="translate(0.385 -1.216)">
    <g id="Group" transform="translate(176.484 14.488) rotate(9)">
      <path id="Path" d="M0,312.44s178.288.924,235.415-7.112C231.548,209.422,230.08,84.16,243.47,1.4,238.37.77,219.22,0,219.22,0Z" transform="translate(0 0.3)" fill="#e3ebf4" style="mix-blend-mode: multiply;isolation: isolate"/>
      <path id="Path-2" data-name="Path" d="M227.28,298.4C161.23,315.4,0,312.74,0,312.74V0H238.42S227.28,281.42,227.28,298.4Z" fill="#fff" stroke="#000" stroke-miterlimit="10" stroke-width="1"/>
      <text id="Application" transform="translate(31.83 40.85)" font-size="19" font-family="Montserrat-Regular, Montserrat"><tspan x="0" y="0">Application</tspan></text>
      <g id="Rectangle" transform="translate(31.83 66.85)" fill="none" stroke="#000" stroke-miterlimit="10" stroke-width="1">
        <rect width="36" height="36" rx="7" stroke="none"/>
        <rect x="0.5" y="0.5" width="35" height="35" rx="6.5" fill="none"/>
      </g>
      <g id="Rectangle_Copy" data-name="Rectangle Copy" transform="translate(31.83 125.85)" fill="none" stroke="#000" stroke-miterlimit="10" stroke-width="1">
        <rect width="36" height="36" rx="7" stroke="none"/>
        <rect x="0.5" y="0.5" width="35" height="35" rx="6.5" fill="none"/>
      </g>
      <g id="Rectangle_Copy_2" data-name="Rectangle Copy 2" transform="translate(31.83 184.85)" fill="none" stroke="#000" stroke-miterlimit="10" stroke-width="1">
        <rect width="36" height="36" rx="7" stroke="none"/>
        <rect x="0.5" y="0.5" width="35" height="35" rx="6.5" fill="none"/>
      </g>
      <g id="Rectangle_Copy_3" data-name="Rectangle Copy 3" transform="translate(31.83 243.85)" fill="none" stroke="#000" stroke-miterlimit="10" stroke-width="1">
        <rect width="36" height="36" rx="7" stroke="none"/>
        <rect x="0.5" y="0.5" width="35" height="35" rx="6.5" fill="none"/>
      </g>
      <rect id="Rectangle-2" data-name="Rectangle" width="112.95" height="4.88" transform="translate(84.56 76.02)" fill="#e9eff7"/>
      <rect id="Rectangle-3" data-name="Rectangle" width="112.95" height="4.88" transform="translate(84.56 90.37)" fill="#e9eff7"/>
      <rect id="Rectangle-4" data-name="Rectangle" width="60.53" height="4.88" transform="translate(84.56 135.16)" fill="#e9eff7"/>
      <rect id="Rectangle-5" data-name="Rectangle" width="112.95" height="4.88" transform="translate(84.56 149.51)" fill="#e9eff7"/>
      <rect id="Rectangle-6" data-name="Rectangle" width="89.73" height="4.88" transform="translate(84.56 194.29)" fill="#e9eff7"/>
      <rect id="Rectangle-7" data-name="Rectangle" width="112.95" height="4.88" transform="translate(84.56 208.64)" fill="#e9eff7"/>
      <rect id="Rectangle-8" data-name="Rectangle" width="39.09" height="4.88" transform="translate(84.56 253.42)" fill="#e9eff7"/>
      <rect id="Rectangle-9" data-name="Rectangle" width="70.42" height="4.88" transform="translate(84.56 267.77)" fill="#e9eff7"/>
      <path id="Path_2" data-name="Path 2" d="M0,14.5l8.835,8.835L32.173,0" transform="translate(42.83 68.85)" fill="none" stroke="#00449d" stroke-linecap="round" stroke-linejoin="round" stroke-miterlimit="10" stroke-width="2"/>
      <path id="Path_2_Copy" data-name="Path 2 Copy" d="M0,14.5l8.835,8.835L32.173,0" transform="translate(42.83 127.85)" fill="none" stroke="#00449d" stroke-linecap="round" stroke-linejoin="round" stroke-miterlimit="10" stroke-width="2"/>
      <path id="Path_2_Copy_2" data-name="Path 2 Copy 2" d="M0,14.5l8.835,8.835L32.173,0" transform="translate(42.83 186.85)" fill="none" stroke="#00449d" stroke-linecap="round" stroke-linejoin="round" stroke-miterlimit="10" stroke-width="2"/>
      <path id="Path_2_Copy_3" data-name="Path 2 Copy 3" d="M0,14.5l8.835,8.835L32.173,0" transform="translate(42.83 245.85)" fill="none" stroke="#00449d" stroke-linecap="round" stroke-linejoin="round" stroke-miterlimit="10" stroke-width="2"/>
    </g>
    <g id="Group-2" data-name="Group" transform="matrix(0.985, -0.174, 0.174, 0.985, 0.195, 44.042)">
      <path id="Path-3" data-name="Path" d="M0,312.44s218.13,9.75,248.33,4.72c-5.34-70.4-18.25-233-4.86-315.76C238.37.77,219.22,0,219.22,0Z" transform="translate(0 0.3)" fill="#e3ebf4" style="mix-blend-mode: multiply;isolation: isolate"/>
      <path id="Path-4" data-name="Path" d="M227.28,298.4C161.23,315.4,0,312.74,0,312.74V0H238.42S227.28,281.42,227.28,298.4Z" fill="#fff" stroke="#000" stroke-miterlimit="10" stroke-width="1"/>
      <text id="Application-2" data-name="Application" transform="translate(31.83 40.85)" font-size="19" font-family="Montserrat-Regular, Montserrat"><tspan x="0" y="0">Application</tspan></text>
      <g id="Rectangle-10" data-name="Rectangle" transform="translate(31.83 66.85)" fill="none" stroke="#000" stroke-miterlimit="10" stroke-width="1">
        <rect width="36" height="36" rx="7" stroke="none"/>
        <rect x="0.5" y="0.5" width="35" height="35" rx="6.5" fill="none"/>
      </g>
      <g id="Rectangle_Copy-2" data-name="Rectangle Copy" transform="translate(31.83 125.85)" fill="none" stroke="#000" stroke-miterlimit="10" stroke-width="1">
        <rect width="36" height="36" rx="7" stroke="none"/>
        <rect x="0.5" y="0.5" width="35" height="35" rx="6.5" fill="none"/>
      </g>
      <g id="Rectangle_Copy_2-2" data-name="Rectangle Copy 2" transform="translate(31.83 184.85)" fill="none" stroke="#000" stroke-miterlimit="10" stroke-width="1">
        <rect width="36" height="36" rx="7" stroke="none"/>
        <rect x="0.5" y="0.5" width="35" height="35" rx="6.5" fill="none"/>
      </g>
      <g id="Rectangle_Copy_3-2" data-name="Rectangle Copy 3" transform="translate(31.83 243.85)" fill="none" stroke="#000" stroke-miterlimit="10" stroke-width="1">
        <rect width="36" height="36" rx="7" stroke="none"/>
        <rect x="0.5" y="0.5" width="35" height="35" rx="6.5" fill="none"/>
      </g>
      <rect id="Rectangle-11" data-name="Rectangle" width="112.95" height="4.88" transform="translate(84.56 76.02)" fill="#e9eff7"/>
      <rect id="Rectangle-12" data-name="Rectangle" width="112.95" height="4.88" transform="translate(84.56 90.37)" fill="#e9eff7"/>
      <rect id="Rectangle-13" data-name="Rectangle" width="60.53" height="4.88" transform="translate(84.56 135.16)" fill="#e9eff7"/>
      <rect id="Rectangle-14" data-name="Rectangle" width="112.95" height="4.88" transform="translate(84.56 149.51)" fill="#e9eff7"/>
      <rect id="Rectangle-15" data-name="Rectangle" width="89.73" height="4.88" transform="translate(84.56 194.29)" fill="#e9eff7"/>
      <rect id="Rectangle-16" data-name="Rectangle" width="112.95" height="4.88" transform="translate(84.56 208.64)" fill="#e9eff7"/>
      <rect id="Rectangle-17" data-name="Rectangle" width="39.09" height="4.88" transform="translate(84.56 253.42)" fill="#e9eff7"/>
      <rect id="Rectangle-18" data-name="Rectangle" width="70.42" height="4.88" transform="translate(84.56 267.77)" fill="#e9eff7"/>
      <path id="Path_2-2" data-name="Path 2" d="M0,14.5l8.835,8.835L32.173,0" transform="translate(42.83 68.85)" fill="none" stroke="#00449d" stroke-linecap="round" stroke-linejoin="round" stroke-miterlimit="10" stroke-width="2"/>
      <path id="Path_2_Copy-2" data-name="Path 2 Copy" d="M0,14.5l8.835,8.835L32.173,0" transform="translate(42.83 127.85)" fill="none" stroke="#00449d" stroke-linecap="round" stroke-linejoin="round" stroke-miterlimit="10" stroke-width="2"/>
      <path id="Path_2_Copy_2-2" data-name="Path 2 Copy 2" d="M0,14.5l8.835,8.835L32.173,0" transform="translate(42.83 186.85)" fill="none" stroke="#00449d" stroke-linecap="round" stroke-linejoin="round" stroke-miterlimit="10" stroke-width="2"/>
      <path id="Path_2_Copy_3-2" data-name="Path 2 Copy 3" d="M0,14.5l8.835,8.835L32.173,0" transform="translate(42.83 245.85)" fill="none" stroke="#00449d" stroke-linecap="round" stroke-linejoin="round" stroke-miterlimit="10" stroke-width="2"/>
    </g>
    <g id="Group-3" data-name="Group" transform="translate(96 14)">
      <path id="Path-5" data-name="Path" d="M0,312.44s218.13,9.75,248.33,4.72c-5.34-70.4-18.25-233-4.86-315.76C238.37.77,219.22,0,219.22,0Z" transform="translate(0 0.3)" fill="#e3ebf4" style="mix-blend-mode: multiply;isolation: isolate"/>
      <path id="Path-6" data-name="Path" d="M227.28,298.4C161.23,315.4,0,312.74,0,312.74V0H238.42S227.28,281.42,227.28,298.4Z" fill="#fff" stroke="#000" stroke-miterlimit="10" stroke-width="1"/>
      <text id="Application-3" data-name="Application" transform="translate(31.83 40.85)" font-size="19" font-family="Montserrat-Regular, Montserrat"><tspan x="0" y="0">Application</tspan></text>
      <g id="Rectangle-19" data-name="Rectangle" transform="translate(31.83 66.85)" fill="none" stroke="#000" stroke-miterlimit="10" stroke-width="1">
        <rect width="36" height="36" rx="7" stroke="none"/>
        <rect x="0.5" y="0.5" width="35" height="35" rx="6.5" fill="none"/>
      </g>
      <g id="Rectangle_Copy-3" data-name="Rectangle Copy" transform="translate(31.83 125.85)" fill="none" stroke="#000" stroke-miterlimit="10" stroke-width="1">
        <rect width="36" height="36" rx="7" stroke="none"/>
        <rect x="0.5" y="0.5" width="35" height="35" rx="6.5" fill="none"/>
      </g>
      <g id="Rectangle_Copy_2-3" data-name="Rectangle Copy 2" transform="translate(31.83 184.85)" fill="none" stroke="#000" stroke-miterlimit="10" stroke-width="1">
        <rect width="36" height="36" rx="7" stroke="none"/>
        <rect x="0.5" y="0.5" width="35" height="35" rx="6.5" fill="none"/>
      </g>
      <g id="Rectangle_Copy_3-3" data-name="Rectangle Copy 3" transform="translate(31.83 243.85)" fill="none" stroke="#000" stroke-miterlimit="10" stroke-width="1">
        <rect width="36" height="36" rx="7" stroke="none"/>
        <rect x="0.5" y="0.5" width="35" height="35" rx="6.5" fill="none"/>
      </g>
      <rect id="Rectangle-20" data-name="Rectangle" width="112.95" height="4.88" transform="translate(84.56 76.02)" fill="#e9eff7"/>
      <rect id="Rectangle-21" data-name="Rectangle" width="112.95" height="4.88" transform="translate(84.56 90.37)" fill="#e9eff7"/>
      <rect id="Rectangle-22" data-name="Rectangle" width="60.53" height="4.88" transform="translate(84.56 135.16)" fill="#e9eff7"/>
      <rect id="Rectangle-23" data-name="Rectangle" width="112.95" height="4.88" transform="translate(84.56 149.51)" fill="#e9eff7"/>
      <rect id="Rectangle-24" data-name="Rectangle" width="89.73" height="4.88" transform="translate(84.56 194.29)" fill="#e9eff7"/>
      <rect id="Rectangle-25" data-name="Rectangle" width="112.95" height="4.88" transform="translate(84.56 208.64)" fill="#e9eff7"/>
      <rect id="Rectangle-26" data-name="Rectangle" width="39.09" height="4.88" transform="translate(84.56 253.42)" fill="#e9eff7"/>
      <rect id="Rectangle-27" data-name="Rectangle" width="70.42" height="4.88" transform="translate(84.56 267.77)" fill="#e9eff7"/>
      <path id="Path_2-3" data-name="Path 2" d="M0,14.5l8.835,8.835L32.173,0" transform="translate(42.83 68.85)" fill="none" stroke="#00449d" stroke-linecap="round" stroke-linejoin="round" stroke-miterlimit="10" stroke-width="2"/>
      <path id="Path_2_Copy-3" data-name="Path 2 Copy" d="M0,14.5l8.835,8.835L32.173,0" transform="translate(42.83 127.85)" fill="none" stroke="#00449d" stroke-linecap="round" stroke-linejoin="round" stroke-miterlimit="10" stroke-width="2"/>
      <path id="Path_2_Copy_2-3" data-name="Path 2 Copy 2" d="M0,14.5l8.835,8.835L32.173,0" transform="translate(42.83 186.85)" fill="none" stroke="#00449d" stroke-linecap="round" stroke-linejoin="round" stroke-miterlimit="10" stroke-width="2"/>
      <path id="Path_2_Copy_3-3" data-name="Path 2 Copy 3" d="M0,14.5l8.835,8.835L32.173,0" transform="translate(42.83 245.85)" fill="none" stroke="#00449d" stroke-linecap="round" stroke-linejoin="round" stroke-miterlimit="10" stroke-width="2"/>
    </g>
  </g>
</svg>
