<svg xmlns="http://www.w3.org/2000/svg" xmlns:xlink="http://www.w3.org/1999/xlink" width="789.5" height="387" viewBox="0 0 789.5 387"><defs><filter id="a" x="121" y="72" width="301" height="120" filterUnits="userSpaceOnUse"><feOffset dy="10" input="SourceAlpha"/><feGaussianBlur stdDeviation="10" result="b"/><feFlood flood-opacity="0.102"/><feComposite operator="in" in2="b"/><feComposite in="SourceGraphic"/></filter><filter id="c" x="121" y="170" width="301" height="113" filterUnits="userSpaceOnUse"><feOffset dy="10" input="SourceAlpha"/><feGaussianBlur stdDeviation="10" result="d"/><feFlood flood-opacity="0.102"/><feComposite operator="in" in2="d"/><feComposite in="SourceGraphic"/></filter><filter id="e" x="380" y="71" width="240" height="113" filterUnits="userSpaceOnUse"><feOffset dy="10" input="SourceAlpha"/><feGaussianBlur stdDeviation="10" result="f"/><feFlood flood-opacity="0.102"/><feComposite operator="in" in2="f"/><feComposite in="SourceGraphic"/></filter><filter id="g" x="121" y="261" width="301" height="113" filterUnits="userSpaceOnUse"><feOffset dy="10" input="SourceAlpha"/><feGaussianBlur stdDeviation="10" result="h"/><feFlood flood-opacity="0.102"/><feComposite operator="in" in2="h"/><feComposite in="SourceGraphic"/></filter><filter id="i" x="380" y="162" width="240" height="113" filterUnits="userSpaceOnUse"><feOffset dy="10" input="SourceAlpha"/><feGaussianBlur stdDeviation="10" result="j"/><feFlood flood-opacity="0.102"/><feComposite operator="in" in2="j"/><feComposite in="SourceGraphic"/></filter><filter id="k" x="86" y="159" width="134" height="134" filterUnits="userSpaceOnUse"><feOffset dy="10" input="SourceAlpha"/><feGaussianBlur stdDeviation="10" result="l"/><feFlood flood-opacity="0.102"/><feComposite operator="in" in2="l"/><feComposite in="SourceGraphic"/></filter><filter id="m" x="86" y="253" width="134" height="134" filterUnits="userSpaceOnUse"><feOffset dy="10" input="SourceAlpha"/><feGaussianBlur stdDeviation="10" result="n"/><feFlood flood-opacity="0.102"/><feComposite operator="in" in2="n"/><feComposite in="SourceGraphic"/></filter><filter id="o" x="86" y="65" width="134" height="134" filterUnits="userSpaceOnUse"><feOffset dy="10" input="SourceAlpha"/><feGaussianBlur stdDeviation="10" result="p"/><feFlood flood-opacity="0.102"/><feComposite operator="in" in2="p"/><feComposite in="SourceGraphic"/></filter></defs><g transform="translate(0 -80)"><g transform="matrix(1, 0, 0, 1, 0, 80)" filter="url(#a)"><rect width="241" height="60" rx="7" transform="translate(151 92)" fill="#fff"/></g><g transform="matrix(1, 0, 0, 1, 0, 80)" filter="url(#c)"><rect width="241" height="53" rx="7" transform="translate(151 190)" fill="#fff"/></g><g transform="matrix(1, 0, 0, 1, 0, 80)" filter="url(#e)"><rect width="180" height="53" rx="7" transform="translate(410 91)" fill="#fff"/></g><g transform="matrix(1, 0, 0, 1, 0, 80)" filter="url(#g)"><rect width="241" height="53" rx="7" transform="translate(151 281)" fill="#fff"/></g><g transform="matrix(1, 0, 0, 1, 0, 80)" filter="url(#i)"><rect width="180" height="53" rx="7" transform="translate(410 182)" fill="#fff"/></g><rect width="180" height="53" rx="7" transform="translate(608 172)" fill="#fff" stroke="#d8d8d8" stroke-miterlimit="10" stroke-width="3"/><rect width="156" height="4" rx="2" transform="translate(162 185)" fill="#d8d8d8"/><rect width="156" height="4" rx="2" transform="translate(162 287)" fill="#d8d8d8"/><rect width="96" height="4" rx="2" transform="translate(424 189)" fill="#d8d8d8"/><rect width="156" height="4" rx="2" transform="translate(162 378)" fill="#d8d8d8"/><rect width="96" height="4" rx="2" transform="translate(424 280)" fill="#d8d8d8"/><rect width="129" height="4" rx="2" transform="translate(162 200)" fill="#d8d8d8"/><rect width="140" height="4" rx="2" transform="translate(162 302)" fill="#d8d8d8"/><rect width="96" height="4" rx="2" transform="translate(424 203)" fill="#d8d8d8"/><rect width="156" height="4" rx="2" transform="translate(162 393)" fill="#d8d8d8"/><rect width="96" height="4" rx="2" transform="translate(424 294)" fill="#d8d8d8"/><rect width="129" height="4" rx="2" transform="translate(162 214)" fill="#d8d8d8"/><circle cx="12" cy="12" r="12" transform="translate(348 190)" fill="#d8d8d8"/><g transform="translate(332 185)"><circle cx="2" cy="2" r="2" transform="translate(0 26)" fill="#d1d1d1"/><circle cx="2" cy="2" r="2" transform="translate(0 13)" fill="#d1d1d1"/><circle cx="2" cy="2" r="2" fill="#d1d1d1"/></g><g transform="translate(532 180)"><circle cx="2" cy="2" r="2" transform="translate(0 26)" fill="#d1d1d1"/><circle cx="2" cy="2" r="2" transform="translate(0 13)" fill="#d1d1d1"/><circle cx="2" cy="2" r="2" fill="#d1d1d1"/></g><g transform="translate(532 271)"><circle cx="2" cy="2" r="2" transform="translate(0 26)" fill="#d1d1d1"/><circle cx="2" cy="2" r="2" transform="translate(0 13)" fill="#d1d1d1"/><circle cx="2" cy="2" r="2" fill="#d1d1d1"/></g><circle cx="12" cy="12" r="12" transform="translate(348 285)" fill="#d8d8d8"/><circle cx="12" cy="12" r="12" transform="translate(549 186)" fill="#d8d8d8"/><circle cx="12" cy="12" r="12" transform="translate(348 376)" fill="#d8d8d8"/><g transform="translate(332 282)"><circle cx="2" cy="2" r="2" transform="translate(0 26)" fill="#d1d1d1"/><circle cx="2" cy="2" r="2" transform="translate(0 13)" fill="#d1d1d1"/><circle cx="2" cy="2" r="2" fill="#d1d1d1"/></g><g transform="translate(332 373)"><circle cx="2" cy="2" r="2" transform="translate(0 26)" fill="#d1d1d1"/><circle cx="2" cy="2" r="2" transform="translate(0 13)" fill="#d1d1d1"/><circle cx="2" cy="2" r="2" fill="#d1d1d1"/></g><circle cx="12" cy="12" r="12" transform="translate(549 277)" fill="#d8d8d8"/><path d="M0,38H50C69.994,38,88,19.994,88,0h0" transform="translate(595 253)" fill="none" stroke="#00449d" stroke-miterlimit="10" stroke-width="4"/><path d="M0,0,57,28.5,0,57,9,28.5Z" transform="translate(275 80)" fill="none"/><path d="M0,0,57,28.5,0,57,9,28.5Z" transform="translate(275 80)" fill="#00449d"/><g opacity="0.8"><path d="M0,0,57,28.5,0,57,9,28.5Z" transform="translate(477 80)" fill="none"/><path d="M0,0,57,28.5,0,57,9,28.5Z" transform="translate(477 80)" fill="#00449d"/></g><g opacity="0.4"><path d="M0,0,57,28.5,0,57,9,28.5Z" transform="translate(676 80)" fill="none"/><path d="M0,0,57,28.5,0,57,9,28.5Z" transform="translate(676 80)" fill="#00449d"/></g><text transform="translate(288 97)" fill="#fff" font-size="20" font-family="Muli-Black, Muli" font-weight="800"><tspan x="0" y="20">1</tspan></text><text transform="translate(490 97)" fill="#fff" font-size="20" font-family="Muli-Black, Muli" font-weight="800"><tspan x="0" y="20">2</tspan></text><text transform="translate(689 97)" fill="#fff" font-size="20" font-family="Muli-Black, Muli" font-weight="800"><tspan x="0" y="20">3</tspan></text><g transform="translate(116 259)"><g transform="matrix(1, 0, 0, 1, -116, -179)" filter="url(#k)"><circle cx="37" cy="37" r="37" transform="translate(116 179)" fill="#00449d"/></g><g transform="translate(23 24)"><path d="M7,27a6.8,6.8,0,0,1-7-6.566V13.507a.846.846,0,0,1,.871-.817.845.845,0,0,1,.871.817v6.927A5.109,5.109,0,0,0,7,25.366H21a5.109,5.109,0,0,0,5.259-4.931V13.507a.873.873,0,0,1,1.742,0v6.927A6.8,6.8,0,0,1,21,27Zm6.8-9.463a2.2,2.2,0,0,1-1.481-.556L5.47,10.77a.752.752,0,0,1,0-1.138.953.953,0,0,1,1.256,0l6.189,5.607V.806a.893.893,0,0,1,1.778,0V15.239l6.189-5.607a.955.955,0,0,1,1.257,0,.752.752,0,0,1,0,1.138l-6.854,6.21a2.2,2.2,0,0,1-1.481.556Z" fill="#fff" stroke="#fff" stroke-miterlimit="10" stroke-width="1"/></g></g><g transform="translate(116 353)"><g transform="matrix(1, 0, 0, 1, -116, -273)" filter="url(#m)"><circle cx="37" cy="37" r="37" transform="translate(116 273)" fill="#00449d"/></g></g><g transform="translate(116 165)"><g transform="matrix(1, 0, 0, 1, -116, -85)" filter="url(#o)"><circle cx="37" cy="37" r="37" transform="translate(116 85)" fill="#00449d"/></g></g><text transform="translate(50 211)" font-size="20" font-family="Muli-Bold, Muli" font-weight="700" opacity="0.6"><tspan x="0" y="0">Notes</tspan></text><text transform="translate(22 305)" font-size="20" font-family="Muli-Bold, Muli" font-weight="700" opacity="0.6"><tspan x="0" y="0">Add files</tspan></text><text transform="translate(0 399)" font-size="20" font-family="Muli-Bold, Muli" font-weight="700" opacity="0.6"><tspan x="0" y="0">Send email</tspan></text></g></svg>