<?xml version="1.0" encoding="utf-8"?><svg xmlns="http://www.w3.org/2000/svg" xmlns:xlink="http://www.w3.org/1999/xlink"><symbol viewBox="0 0 40 39" id="affiliate-benefits-1" xmlns="http://www.w3.org/2000/svg"><path d="M15 39A15 15 0 013.13 14.828a15.094 15.094 0 017.9-5.3 15 15 0 1117.942 19.941A15 15 0 0115 39zm0-26a11 11 0 1011 11 11.013 11.013 0 00-11-11zm10-9a10.973 10.973 0 00-9.234 5.019A14.985 14.985 0 0130 24c0 .271-.007.544-.022.811A11 11 0 0025 4zm-8 26h-4a2 2 0 010-4v-2a2 2 0 010-4 2 2 0 114 .009V26a2 2 0 010 4z"/></symbol><symbol viewBox="0 0 40 40" id="affiliate-benefits-2" xmlns="http://www.w3.org/2000/svg"><path d="M38 40H2a1.993 1.993 0 01-2-2V2a2 2 0 014 0v34h34a2 2 0 010 4zM8 34a2 2 0 01-1.879-2.684l8-22a2 2 0 013.294-.731l6.609 6.608L31.184 8H30a2 2 0 010-4h5.834c.05 0 .1-.006.151-.006A1.991 1.991 0 0138 6v6a2 2 0 11-4 0v-1.158l-8.586 8.572a2 2 0 01-2.829 0l-5.755-5.755-6.95 19.024A2.008 2.008 0 018 34z"/></symbol><symbol viewBox="0 0 44 36" id="affiliate-benefits-3" xmlns="http://www.w3.org/2000/svg"><path d="M38 36H6a2.01 2.01 0 01-1.6-.8A22 22 0 0122 0a22 22 0 0117.6 35.2 2.01 2.01 0 01-1.6.8zM4.975 16.141A17.973 17.973 0 004 22a17.742 17.742 0 003.048 10c.128.006 1.838.009 5.226.009h.007c8.542 0 24.535-.02 24.694-.02a18.04 18.04 0 002.05-15.849l-2.758 1.592a2 2 0 11-2-3.464l3.033-1.752A17.891 17.891 0 0024 4.11V8a2 2 0 01-4 0V4.11a17.891 17.891 0 00-13.3 8.406l3.036 1.752a2 2 0 11-2 3.464l-2.761-1.591zM21 26.019a4 4 0 01-2.828-6.829c2.84-2.84 9.454-5.042 9.52-5.063a1.8 1.8 0 01.615-.127.679.679 0 01.588.262A1.158 1.158 0 0128.9 15.3c-.022.067-2.232 6.7-5.072 9.543A3.974 3.974 0 0121 26.019z"/></symbol><symbol viewBox="0 0 40 36" id="affiliate-benefits-4" xmlns="http://www.w3.org/2000/svg"><path d="M30 36a9.918 9.918 0 01-6-2 2 2 0 01-1.991 2H5.99A2 2 0 014 33.991v-7.983A2 2 0 015.99 24H8v-4H5.99A2 2 0 014 17.992V12H1.991A2 2 0 010 9.992V2.009A2 2 0 011.991 0h16.018A2 2 0 0120 2.009V8h2.01A2 2 0 0124 10.009V16h6a10 10 0 010 20zm0-16a6 6 0 106 6 6.007 6.007 0 00-6-6zM8 28v4h12v-4zm4-8v4h8.2a10.029 10.029 0 011.8-4zm-4-8v4h12v-4zM4 4v4h12V4z"/></symbol><symbol viewBox="0 0 40 40" id="ai" xmlns="http://www.w3.org/2000/svg"><path d="M24 12V8c0-4.41 3.582-8 8-8 4.41 0 8 3.582 8 8 0 4.41-3.582 8-8 8h-4v8h4c4.418 0 8 3.59 8 8 0 4.418-3.59 8-8 8-4.418 0-8-3.59-8-8v-4h-8v4c0 4.41-3.582 8-8 8-4.41 0-8-3.582-8-8 0-4.41 3.582-8 8-8h4v-8H8c-4.418 0-8-3.59-8-8 0-4.418 3.59-8 8-8 4.418 0 8 3.59 8 8v4h8zm-8 4v8h8v-8h-8zm-8-4h4V8c0-2.204-1.795-4-4-4-2.204 0-4 1.795-4 4 0 2.204 1.795 4 4 4zm24 0c2.205 0 4-1.796 4-4 0-2.205-1.796-4-4-4-2.205 0-4 1.796-4 4v4h4zm0 16h-4v4c0 2.204 1.795 4 4 4 2.204 0 4-1.795 4-4 0-2.204-1.795-4-4-4zM8 28c-2.205 0-4 1.796-4 4 0 2.205 1.796 4 4 4 2.205 0 4-1.796 4-4v-4H8z" fill-rule="evenodd"/></symbol><symbol viewBox="0 0 40 40" id="analytics" xmlns="http://www.w3.org/2000/svg"><path d="M18.55 24.271a3.99 3.99 0 011.687-.264L30.52 7.973A4 4 0 1134 10c-.01 0-10.426 16.203-10.426 16.203a4 4 0 11-7.528 1.189l-4.551-3.68a4 4 0 112.466-3.15l4.588 3.71zM4 36h34.003c1.103 0 1.997.888 1.997 2 0 1.105-.892 2-1.997 2H1.997A1.991 1.991 0 010 38.003V1.997C0 .894.888 0 2 0c1.105 0 2 .892 2 1.997V36z" fill-rule="evenodd"/></symbol><symbol viewBox="0 0 30.727 30.727" id="angle" xmlns="http://www.w3.org/2000/svg"><path d="M29.994 10.183L15.363 24.812.733 10.184a2.5 2.5 0 113.536-3.536l11.095 11.093L26.461 6.647a2.5 2.5 0 113.533 3.536z"/></symbol><symbol viewBox="0 0 512 512" id="arrow" xmlns="http://www.w3.org/2000/svg"><path d="M491.318 235.318H20.682C9.26 235.318 0 244.578 0 256c0 11.423 9.26 20.682 20.682 20.682h470.636c11.423 0 20.682-9.259 20.682-20.682 0-11.422-9.259-20.682-20.682-20.682z"/><path d="M49.932 256L211.795 94.136c8.077-8.077 8.077-21.172 0-29.249-8.077-8.076-21.172-8.076-29.249 0L6.058 241.375c-8.077 8.077-8.077 21.172 0 29.249l176.488 176.488a20.616 20.616 0 0014.625 6.058 20.616 20.616 0 0014.625-6.058c8.077-8.077 8.077-21.172 0-29.249L49.932 256z"/></symbol><symbol viewBox="0 0 36 39" id="batman" xmlns="http://www.w3.org/2000/svg"><path d="M30 14.07c0 3.073-1.155 5.877-3.056 8h3.029c1.1 0 2.23.86 2.528 1.93l3.381 12.14c.297 1.066-.356 1.93-1.471 1.932l-32.865.027c-1.11 0-1.771-.86-1.475-1.932L3.43 24.003c.295-1.068 1.434-1.933 2.525-1.933h3.1a11.955 11.955 0 01-3.055-8V2.08C6-.135 7.265-.664 8.822.895l2.926 2.93A11.944 11.944 0 0118 2.07c2.296 0 4.442.645 6.265 1.763L27.2.895c1.556-1.559 2.82-1.03 2.82 1.185L30 14.07zm1.17 20.001l-2.251-8.001-21.913.004-2.221 7.996H11c0-2.21 3.134-4 7-4s7 1.79 7 4l6.17.001zM18.961 17.852c-.531.134-1.39.135-1.924 0l-6.766-1.705a8.003 8.003 0 0015.456 0l-6.766 1.705zM22 14.07a2 2 0 100-4 2 2 0 000 4zm-8 0a2 2 0 100-4 2 2 0 000 4z" fill-rule="evenodd"/></symbol><symbol viewBox="0 0 44 46" id="becoming-1" xmlns="http://www.w3.org/2000/svg"><path d="M29 46a14.98 14.98 0 01-12.3-6.414l-2.693-1.346-3.107 1.549a2 2 0 01-1.788 0l-3.1-1.551-3.118 1.551A1.983 1.983 0 012 40a2.028 2.028 0 01-1.394-.567A1.977 1.977 0 010 38V4a4.005 4.005 0 014-4h28a4.005 4.005 0 014 4v13.73A15 15 0 0129 46zm0-26a11 11 0 1011 11 11.012 11.012 0 00-11-11zM6 34a2.016 2.016 0 01.894.211l3.126 1.561 3.085-1.56a1.992 1.992 0 011.2-.188A15.172 15.172 0 0114.3 28H10a2 2 0 110-4h5.73A14.976 14.976 0 0129 16a15.14 15.14 0 013 .3V4H4v30.761l1.106-.55A2.011 2.011 0 016 34zm21 4a1.985 1.985 0 01-1.414-.586l-4-4a2 2 0 112.829-2.829l2.608 2.609 6.563-6.609a2 2 0 112.828 2.828l-8 8A1.987 1.987 0 0127 38zM14 20h-4a2 2 0 010-4h4a2 2 0 010 4zm12.007-8H9.991a2 2 0 010-4h16.018a2 2 0 010 4z"/></symbol><symbol viewBox="0 0 40 36" id="becoming-2" xmlns="http://www.w3.org/2000/svg"><path d="M29 36h-4a4 4 0 01-4-4v-2H2a2 2 0 010-4h19v-2a4 4 0 014-4h4a4 4 0 014 4v2h5a2 2 0 010 4h-5v2a4 4 0 01-4 4zm-4-12v8h4v-8zm-10-8h-4a4 4 0 01-4-4v-2H2a2 2 0 010-4h5V4a4 4 0 014-4h4a4 4 0 014 4v2h19a2 2 0 010 4H19v2a4 4 0 01-4 4zM11 4v8h4V4z"/></symbol><symbol viewBox="0 0 48 36" id="becoming-3" xmlns="http://www.w3.org/2000/svg"><path d="M38 36a10 10 0 01-5-1.337A10.005 10.005 0 0118.2 28H4a4 4 0 01-4-4V4a4 4 0 014-4h32a4 4 0 014 4v12.2A10 10 0 0138 36zm0-16a6.014 6.014 0 00-1.8.274 10.005 10.005 0 010 11.451A6 6 0 1038 20zm-10 0a6 6 0 106 6 6.007 6.007 0 00-6-6zM4 4v20h14.2a10.04 10.04 0 011.8-4 6 6 0 115.542-3.7A10.04 10.04 0 0133 17.338a9.916 9.916 0 013-1.138V4zm7.009 18H6.991A.989.989 0 016 20.991V19.01A1 1 0 016.991 18h4.018A.99.99 0 0112 19.01v1.981A1 1 0 0111.009 22zm22-12h-4.018A.989.989 0 0128 8.991V7.009A1 1 0 0128.991 6h4.018A.989.989 0 0134 7.009v1.982A1 1 0 0133.009 10z"/></symbol><symbol viewBox="0 0 18 18" id="cancel" xmlns="http://www.w3.org/2000/svg"><path d="M9 18a8.975 8.975 0 01-9-9 8.975 8.975 0 019-9 8.975 8.975 0 019 9 8.975 8.975 0 01-9 9zm.021-7.752a.2.2 0 01.143.061l3.068 3.068a.37.37 0 00.286.122.44.44 0 00.286-.122l.573-.573a.4.4 0 000-.572l-3.068-3.068a.231.231 0 01-.059-.194.119.119 0 01.059-.093l3.069-3.067a.4.4 0 000-.573l-.578-.573a.371.371 0 00-.286-.123.44.44 0 00-.286.123L9.164 7.732a.2.2 0 01-.286 0L5.81 4.664a.395.395 0 00-.573 0l-.572.572a.395.395 0 000 .573l3.067 3.069a.2.2 0 010 .286l-3.068 3.068a.394.394 0 000 .572l.572.573a.37.37 0 00.286.122.441.441 0 00.287-.122l3.068-3.068a.2.2 0 01.144-.061z"/></symbol><symbol viewBox="0 0 45.701 45.7" id="check" xmlns="http://www.w3.org/2000/svg"><path d="M20.687 38.332a5.308 5.308 0 01-7.505 0L1.554 26.704A5.306 5.306 0 119.059 19.2l6.928 6.927a1.344 1.344 0 001.896 0L36.642 7.368a5.308 5.308 0 017.505 7.504l-23.46 23.46z"/></symbol><symbol viewBox="0 0 47.971 47.971" id="close" xmlns="http://www.w3.org/2000/svg"><path d="M28.228 23.986L47.092 5.122a2.998 2.998 0 000-4.242 2.998 2.998 0 00-4.242 0L23.986 19.744 5.121.88a2.998 2.998 0 00-4.242 0 2.998 2.998 0 000 4.242l18.865 18.864L.879 42.85a2.998 2.998 0 104.242 4.241l18.865-18.864L42.85 47.091c.586.586 1.354.879 2.121.879s1.535-.293 2.121-.879a2.998 2.998 0 000-4.242L28.228 23.986z"/></symbol><symbol viewBox="0 0 44 42" id="cloud" xmlns="http://www.w3.org/2000/svg"><path d="M11.925 26.91c0 1.202-.985 2.176-2.2 2.176a2.22 2.22 0 01-.562-.072C3.9 27.719 0 23.012 0 17.405 0 10.797 5.417 5.44 12.1 5.44A12.718 12.718 0 0122.55 0c6.054 0 11.114 4.205 12.357 9.823 5.09.406 9.093 4.62 9.093 9.758 0 5.407-4.432 9.79-9.9 9.79-1.215 0-2.2-.973-2.2-2.175s.985-2.176 2.2-2.176c3.038 0 5.5-2.435 5.5-5.439 0-2.838-2.209-5.195-5.047-5.421h-1.958c-.61 0-1.228-.474-1.38-1.06l-.606-2.347c-.82-3.71-4.164-6.402-8.059-6.402-.361 0-.719.023-1.07.069-4.053.52-7.18 3.944-7.18 8.09 0 1.202-.985 2.176-2.2 2.176-1.215 0-2.2-.974-2.2-2.176 0-.846.085-1.672.247-2.471-3.31.857-5.747 3.83-5.747 7.366 0 3.544 2.447 6.522 5.762 7.372a2.183 2.183 0 011.763 2.133zm5.846 6.005l2.237 2.238V22a2 2 0 014 0v13.152l2.236-2.238a1.999 1.999 0 012.835-.006 2.007 2.007 0 01-.006 2.836l-5.645 5.647a2 2 0 01-1.419.59 1.974 1.974 0 01-1.416-.584l-5.65-5.653a2 2 0 112.828-2.83z" fill-rule="evenodd"/></symbol><symbol viewBox="0 0 18 18" id="description" xmlns="http://www.w3.org/2000/svg"><path d="M9 18a9 9 0 119-9 9.01 9.01 0 01-9 9zM9 1.8A7.2 7.2 0 1016.2 9 7.208 7.208 0 009 1.8zm1.35 12.15h-2.7a.9.9 0 110-1.8h.45v-2.7h-.447a.9.9 0 110-1.8H9a.9.9 0 01.9.9v3.6h.45a.9.9 0 010 1.8zM9 6.75a1.35 1.35 0 111.35-1.35A1.352 1.352 0 019 6.75z"/></symbol><symbol viewBox="0 0 26 26" id="done" xmlns="http://www.w3.org/2000/svg"><path d="M.3 14c-.2-.2-.3-.5-.3-.7s.1-.5.3-.7l1.4-1.4c.4-.4 1-.4 1.4 0l.1.1 5.5 5.9c.2.2.5.2.7 0L22.8 3.3h.1c.4-.4 1-.4 1.4 0l1.4 1.4c.4.4.4 1 0 1.4l-16 16.6c-.2.2-.4.3-.7.3-.3 0-.5-.1-.7-.3L.5 14.3.3 14z"/></symbol><symbol viewBox="0 0 15.999 20" id="duration" xmlns="http://www.w3.org/2000/svg"><path d="M7.969 20a8 8 0 01-1-15.938V3h-.988a1 1 0 01-1-1V1a1 1 0 011-1h3.976a1 1 0 011 1v1a1 1 0 01-1 1h-.992v1.062a7.954 7.954 0 013.483 1.32l1.147-1.15a.994.994 0 011.408 0l.706.708a1 1 0 010 1.413L14.561 7.5A8.007 8.007 0 017.969 20zm0-14a6 6 0 105.976 6 5.995 5.995 0 00-5.976-6zm0 7a1 1 0 01-1-1V8a1 1 0 111.996 0v4a1 1 0 01-.996 1z"/></symbol><symbol viewBox="0 0 18 18" id="event-name" xmlns="http://www.w3.org/2000/svg"><path d="M9 18a9 9 0 119-9 9.01 9.01 0 01-9 9zM9 1.8A7.2 7.2 0 1016.2 9 7.208 7.208 0 009 1.8zM7.65 12.6a.893.893 0 01-.636-.264l-2.7-2.7a.9.9 0 111.272-1.272L7.65 10.44l4.314-4.326a.9.9 0 111.273 1.273l-4.95 4.95a.893.893 0 01-.637.263z"/></symbol><symbol viewBox="0 0 40 37" id="features" xmlns="http://www.w3.org/2000/svg"><path d="M4 12.1c0 6.302 6.121 13.918 16.011 20.438C29.901 26.018 36 18.564 36 12.1c0-4.456-3.582-8.067-8-8.067-2 0-3.874.737-5.332 2.053l-1.925 1.737c-.41.37-1.07.375-1.486 0l-1.925-1.737A7.916 7.916 0 0012 4.034c-4.418 0-8 3.611-8 8.067zm16-9.019A11.9 11.9 0 0128 0c6.627 0 12 5.418 12 12.1 0 9.755-10.012 19.16-19.15 24.68-.465.29-1.228.295-1.693.003C9.957 31.283 0 21.855 0 12.101 0 5.418 5.373 0 12 0a11.9 11.9 0 018 3.081z"/></symbol><symbol viewBox="0 0 40 40" id="features-box-0" xmlns="http://www.w3.org/2000/svg"><path d="M4 29.981v2.713c.7.427 6.292 3.3 16 3.3s15.3-2.87 16-3.297V29.98c0-3.432-7.614-6.102-8.157-6.306C26.14 26.732 23.623 29 20 29c-3.62 0-6.137-2.266-7.84-5.32-.538.202-8.16 2.862-8.16 6.301zm5-19.624C9 4.637 13.925 0 20 0s11 4.637 11 10.357c0 2.428-.424 6.152-1.573 9.635C33.433 21.522 40 24.002 40 29.981v4.014C40 36.205 31.37 40 20 40S0 36.198 0 33.995v-4.014c0-6 6.57-8.456 10.574-9.983C9.424 16.513 9 12.786 9 10.358zM20 25c3.94 0 7-7.235 7-14.643C27 6.902 23.918 4 20 4s-7 2.902-7 6.357C13 17.765 16.06 25 20 25z" fill-rule="evenodd"/></symbol><symbol viewBox="0 0 40 40" id="features-box-1" xmlns="http://www.w3.org/2000/svg"><path d="M1.332 15.746c-1.989.87-1.678 3.782.45 4.213l15.164 3.084 3.096 15.179c.433 2.125 3.343 2.433 4.212.446L39.807 3.12c.81-1.852-1.074-3.736-2.926-2.926L1.33 15.746zM23 30.496l-1.998-9.798a2.222 2.222 0 00-1.737-1.734l-9.69-1.975 23.9-10.456L23 30.495z"/></symbol><symbol viewBox="0 0 40 42" id="features-box-2" xmlns="http://www.w3.org/2000/svg"><path d="M36 10c0-1.105-.893-2-1.99-2A2.01 2.01 0 0132 10c-1.105 0-2-.887-2-2h-4c0 1.105-.888 2-2 2-1.105 0-2-.887-2-2h-4c0 1.105-.888 2-2 2-1.105 0-2-.887-2-2h-4c0 1.105-.888 2-2 2-1.105 0-2-.887-2-2-1.109 0-2 .894-2 2v4h32v-4zM4 18v18c0 1.105.893 2 1.99 2h28.02c1.099 0 1.99-.894 1.99-2V18H4zm36-8v26c0 3.313-2.68 6-5.99 6H5.99A5.996 5.996 0 010 36V10c0-3.313 2.68-6 5.99-6L6 2c0-1.105.888-2 2-2 1.105 0 2 .887 2 2v2h4V2c0-1.105.888-2 2-2 1.105 0 2 .887 2 2v2h4V2c0-1.105.888-2 2-2 1.105 0 2 .887 2 2v2h4V2c0-1.105.888-2 2-2 1.105 0 2 .887 2 2v2c3.319 0 6 2.688 6 6z" fill-rule="evenodd"/></symbol><symbol viewBox="0 0 44 46" id="features-box-3" xmlns="http://www.w3.org/2000/svg"><path d="M44 31c0 8.284-6.716 15-15 15-5.091 0-9.59-2.537-12.302-6.415l-2.692-1.346-3.109 1.55a2 2 0 01-1.789 0l-3.102-1.55-3.112 1.55A2 2 0 010 38V4c0-2.211 1.786-4 4.002-4h27.996A3.997 3.997 0 0136 4v13.73c4.758 2.515 8 7.514 8 13.27zM31.998 4H4v30.76l1.106-.55a2 2 0 011.788 0l3.126 1.56 3.085-1.56a2 2 0 011.2-.188A15.03 15.03 0 0114 31c0-1.027.103-2.03.3-3H10c-1.104 0-2-.888-2-2 0-1.105.902-2 2-2h5.73c2.515-4.758 7.514-8 13.27-8 1.03 0 2.034.104 3.005.301L31.998 4zM8 18c0-1.105.887-2 1.998-2h4.004c1.103 0 1.998.888 1.998 2 0 1.105-.887 2-1.998 2H9.998A1.994 1.994 0 018 18zm0-8a2 2 0 011.99-2h16.02A1.99 1.99 0 0128 10a2 2 0 01-1.99 2H9.99A1.99 1.99 0 018 10zm21 32c6.075 0 11-4.925 11-11s-4.925-11-11-11-11 4.925-11 11 4.925 11 11 11zm-3.414-4.586l-4-4a2 2 0 012.829-2.828l2.608 2.609 6.563-6.61a2 2 0 012.828 2.83l-8 8a2 2 0 01-2.828 0z" fill-rule="evenodd"/></symbol><symbol viewBox="0 0 40 40" id="features-box-4" xmlns="http://www.w3.org/2000/svg"><path d="M.851 12.339L17.221.838c1.59-1.117 3.967-1.118 5.557 0l16.371 11.5a2.003 2.003 0 01.003 3.276L22.78 27.152c-1.591 1.121-3.97 1.122-5.562 0L.85 15.614a2.003 2.003 0 01.002-3.275zm33.683 13.743s-.086-.042-.632-.423c-.905-.63-1.149-1.931-.514-2.83.635-.897 1.839-1.047 2.813-.422.58.37 2.57 1.735 2.95 2.055 1.127.95 1.136 2.459.003 3.25L22.77 39.166c-1.591 1.113-3.972 1.114-5.565 0L.822 27.713c-1.133-.792-1.059-2.362.002-3.25.393-.33 2.476-1.726 3.039-2.118a2.01 2.01 0 012.788.485 1.978 1.978 0 01-.488 2.768l-.72.5 14.067 9.818c.21.147.746.147.956 0l14.068-9.834zM20.48 4.115c-.21-.149-.75-.148-.96 0l-14.05 9.87 14.051 9.894c.21.148.746.148.956 0l14.037-9.893L20.48 4.115z"/></symbol><symbol viewBox="0 0 24 28" id="flag" xmlns="http://www.w3.org/2000/svg"><path d="M3.6 4.2h18.199A1.4 1.4 0 0123.2 5.594v11.212c0 .77-.622 1.394-1.401 1.394H3.6v8.402C3.6 27.374 2.979 28 2.2 28c-.773 0-1.4-.624-1.4-1.398V1.398C.8.626 1.421 0 2.2 0c.773 0 1.4.624 1.4 1.398V4.2zM7.8 7H12v4.2h4.2V7h4.2v4.2h-4.2v4.2H12v-4.2H7.8v4.2H3.6v-4.2h4.2V7z" fill-rule="evenodd"/></symbol><symbol viewBox="0 0 48 60" id="help-accounts" xmlns="http://www.w3.org/2000/svg"><path d="M18 40.5a6 6 0 119 5.197v2.306A2.991 2.991 0 0124 51c-1.657 0-3-1.33-3-2.997v-2.306a5.998 5.998 0 01-3-5.197zM6 18C6 8.06 14.058 0 24 0c9.94 0 18 8.063 18 18v7.5a6 6 0 016 6.01v22.48A6.004 6.004 0 0141.994 60H6.006A6 6 0 010 53.99V31.51a6.004 6.004 0 016-6.01V18zm6 7.5h24V18c0-6.623-5.375-12-12-12-6.629 0-12 5.372-12 12v7.5zm-6 6V54h36V31.5H6z" fill-rule="evenodd"/></symbol><symbol viewBox="0 0 56 56" id="help-admin-tools" xmlns="http://www.w3.org/2000/svg"><path d="M52.898 0A3.104 3.104 0 0156 3.102v18.685a3.104 3.104 0 01-3.102 3.102H34.213a3.104 3.104 0 01-3.102-3.102V3.102A3.104 3.104 0 0134.213 0h18.685zm-3.12 6.222H37.333v12.445h12.445V6.222zM21.787 0a3.104 3.104 0 013.102 3.102v18.685a3.104 3.104 0 01-3.102 3.102H3.102A3.104 3.104 0 010 21.787V3.102A3.104 3.104 0 013.102 0h18.685zm-3.12 6.222H6.222v12.445h12.445V6.222zM0 34.213a3.104 3.104 0 013.102-3.102h18.685a3.104 3.104 0 013.102 3.102v18.685A3.104 3.104 0 0121.787 56H3.102A3.104 3.104 0 010 52.898V34.213zm6.222 3.12v12.445h12.445V37.333H6.222zm24.89-3.12a3.104 3.104 0 013.101-3.102h18.685A3.104 3.104 0 0156 34.213v18.685A3.104 3.104 0 0152.898 56H34.213a3.104 3.104 0 01-3.102-3.102V34.213zm6.221 3.12v12.445h12.445V37.333H37.333z" fill-rule="evenodd"/></symbol><symbol viewBox="0 0 60 60" id="help-analytics" xmlns="http://www.w3.org/2000/svg"><path d="M27.518 31.662a2.968 2.968 0 01-.315-2.656l7.893-22.464A24.092 24.092 0 0030 6C16.745 6 6 16.745 6 30s10.745 24 24 24a23.9 23.9 0 0010.71-2.516L27.518 31.662zM54 30c0-3.406-.71-6.646-1.989-9.58L34.266 30.972 45.7 48.153C50.784 43.753 54 37.252 54 30zm6 0c0 16.569-13.431 30-30 30C13.431 60 0 46.569 0 30 0 13.431 13.431 0 30 0c16.612 0 30 13.496 30 30z" fill-rule="evenodd"/></symbol><symbol viewBox="0 0 72 60" id="help-apps-settings" xmlns="http://www.w3.org/2000/svg"><path d="M18 53.997V6.003C18 2.69 20.682 0 23.991 0H48.01A5.99 5.99 0 0154 6.003v47.994C54 57.31 51.318 60 48.009 60H23.99A5.99 5.99 0 0118 53.997zM48 6l-24 .003V54l24-.003V6zM9 11.987A2.986 2.986 0 0112 9c1.657 0 3 1.35 3 2.987v36.026A2.986 2.986 0 0112 51c-1.657 0-3-1.35-3-2.987V11.987zm48 0A2.986 2.986 0 0160 9c1.657 0 3 1.35 3 2.987v36.026A2.986 2.986 0 0160 51c-1.657 0-3-1.35-3-2.987V11.987zm-57 6A2.986 2.986 0 013 15a3 3 0 013 2.986v24.028A2.986 2.986 0 013 45a3 3 0 01-3-2.986V17.986zm66 0A2.986 2.986 0 0169 15a3 3 0 013 2.986v24.028A2.986 2.986 0 0169 45a3 3 0 01-3-2.986V17.986z"/></symbol><symbol viewBox="0 0 60 62" id="help-calendar" xmlns="http://www.w3.org/2000/svg"><path d="M53.143 14.762a2.946 2.946 0 00-2.938-2.952 2.967 2.967 0 01-2.967 2.952 2.945 2.945 0 01-2.952-2.952H38.38c0 1.63-1.31 2.952-2.952 2.952a2.945 2.945 0 01-2.953-2.952H26.57c0 1.63-1.31 2.952-2.952 2.952a2.945 2.945 0 01-2.952-2.952h-5.905c0 1.63-1.31 2.952-2.952 2.952a2.945 2.945 0 01-2.953-2.952 2.946 2.946 0 00-2.952 2.952v5.905h47.238v-5.905zM5.905 26.572v26.57a2.946 2.946 0 002.938 2.953h41.362a2.944 2.944 0 002.938-2.952V26.57H5.905zm53.143-11.81v38.38c0 4.891-3.956 8.858-8.843 8.858H8.843C3.958 62 0 58.032 0 53.143v-38.38c0-4.891 3.956-8.858 8.843-8.858l.014-2.953C8.857 1.322 10.167 0 11.81 0c1.63 0 2.952 1.31 2.952 2.952v2.953h5.905V2.952c0-1.63 1.31-2.952 2.952-2.952 1.63 0 2.952 1.31 2.952 2.952v2.953h5.905V2.952c0-1.63 1.31-2.952 2.953-2.952 1.63 0 2.952 1.31 2.952 2.952v2.953h5.905V2.952c0-1.63 1.31-2.952 2.952-2.952 1.63 0 2.952 1.31 2.952 2.952v2.953c4.9 0 8.858 3.968 8.858 8.857zM11.81 35.43a2.955 2.955 0 012.96-2.953h29.508c1.635 0 2.96 1.31 2.96 2.953a2.955 2.955 0 01-2.96 2.952H14.77a2.949 2.949 0 01-2.96-2.952zm0 11.81a2.955 2.955 0 012.96-2.953h29.508c1.635 0 2.96 1.31 2.96 2.952a2.955 2.955 0 01-2.96 2.952H14.77a2.949 2.949 0 01-2.96-2.952z" fill-rule="evenodd"/></symbol><symbol viewBox="0 0 60 60" id="help-compaigns" xmlns="http://www.w3.org/2000/svg"><path d="M32.035 32.211l6.668 16.194 11.43-34.293-18.098 18.1zM45.89 9.87L11.598 21.3l16.194 6.669 18.1-18.1zm-9.666 48.276L26.201 33.802 1.858 23.78c-2.57-1.059-2.444-4.741.193-5.62L56.05.16c2.345-.782 4.576 1.45 3.794 3.795l-18 53.998c-.878 2.637-4.56 2.764-5.619.194z" fill-rule="evenodd"/></symbol><symbol viewBox="0 0 60 60" id="help-contacts" xmlns="http://www.w3.org/2000/svg"><path d="M37.5 0c6.627 0 12 5.288 12 11.811 0 2.483-.45 5.927-1.499 9.241 3.627 1.322 6.444 3.458 8.47 6.287C59.01 30.883 60 34.998 60 38.995a3 3 0 01-1.55 2.626c-1.168.645-3.193 1.563-5.908 2.47a47.857 47.857 0 01-6.172 1.616c1.07 2.348 1.63 4.736 1.63 6.786a3 3 0 01-1.713 2.71c-1.32.627-3.602 1.528-6.622 2.42C34.642 59.108 29.348 60 24 60c-5.348 0-10.642-.892-15.665-2.377-3.02-.892-5.302-1.793-6.622-2.42A3 3 0 010 52.493c0-3.638 1.725-8.287 4.93-11.92 2.01-2.276 4.5-4.096 7.46-5.38-1.325-3.979-1.89-8.2-1.89-11.196 0-7.455 6.044-13.498 13.5-13.498.529 0 1.05.03 1.563.09C26.185 4.638 31.292 0 37.5 0zm-1.893 35.2c2.791 1.217 5.165 2.909 7.112 5.011a41.006 41.006 0 007.924-1.812 38.897 38.897 0 003.257-1.245c-.249-2.246-.971-4.457-2.306-6.321-1.383-1.93-3.362-3.402-6.081-4.306-1.874 2.902-4.49 4.97-8.013 4.97a8.69 8.69 0 01-.868-.044 36.57 36.57 0 01-1.025 3.748zm1.893-9.703c2.832 0 6-6.887 6-13.686 0-3.188-2.665-5.812-6-5.812s-6 2.624-6 5.812c0 .325.007.65.021.975A13.485 13.485 0 0137.5 23.997c0 .471-.014.973-.043 1.5h.043zM9.43 44.542c-1.647 1.866-2.732 4.119-3.187 6.051 1.14.435 2.41.869 3.793 1.277C14.543 53.203 19.28 54 24 54c4.719 0 9.457-.797 13.964-2.13a51.99 51.99 0 003.788-1.275c-.458-1.917-1.544-4.165-3.185-6.03-1.443-1.64-3.25-2.964-5.452-3.91-2.115 3.4-5.088 5.84-9.115 5.84-4.03 0-7.005-2.443-9.12-5.848-2.203.942-4.009 2.261-5.45 3.895zM24 40.495c3.733 0 7.5-8.32 7.5-16.498a7.5 7.5 0 00-7.5-7.5 7.5 7.5 0 00-7.5 7.5c0 8.179 3.767 16.498 7.5 16.498z" fill-rule="evenodd"/></symbol><symbol viewBox="0 0 64 64" id="help-faq" xmlns="http://www.w3.org/2000/svg"><path d="M36.364 0C51.627 0 64 12.373 64 27.636c0 4.251-.96 8.277-2.674 11.875l2.53 11.244c.703 3.127-1.27 5.089-4.402 4.382L48.23 52.603a27.452 27.452 0 01-8.833 2.505C35.424 60.501 29.03 64 21.818 64 9.768 64 0 54.232 0 42.182c0-7.212 3.499-13.606 8.892-17.579C10.402 10.767 22.126 0 36.364 0zm11.183 46.484l9.895 2.272-2.234-9.931.866-1.817a21.709 21.709 0 002.108-9.372c0-12.05-9.769-21.818-21.818-21.818-9.846 0-18.168 6.522-20.884 15.48a21.817 21.817 0 016.338-.934c12.05 0 21.818 9.768 21.818 21.818 0 2.205-.327 4.333-.935 6.34 1.037-.314 4.846-2.038 4.846-2.038zM21.818 58.182c8.837 0 16-7.164 16-16 0-8.837-7.163-16-16-16-8.836 0-16 7.163-16 16 0 8.836 7.164 16 16 16zm-4.966-6.67l-5.818-5.819a2.91 2.91 0 014.115-4.114l3.794 3.795 9.545-9.613a2.91 2.91 0 114.114 4.114L20.966 51.512a2.91 2.91 0 01-4.114 0z" fill-rule="evenodd"/></symbol><symbol viewBox="0 0 60 60" id="help-flows" xmlns="http://www.w3.org/2000/svg"><path d="M32.379 32.121a3 3 0 014.242-4.242l9 9a3 3 0 010 4.243l-9 9a3 3 0 01-4.242-4.243L36.239 42H24v12h30V24H24v12h12.239l-3.86-3.879zM54.005 18A6 6 0 0160 23.995v30.01A6 6 0 0154.005 60h-30.01A6 6 0 0118 54.005V42H5.995A6 6 0 010 36.005V5.995A6 6 0 015.995 0h30.01A6 6 0 0142 5.995V18h12.005zM36 6H6v30h12V23.995A6 6 0 0123.995 18H36V6z" fill-rule="evenodd"/></symbol><symbol viewBox="0 0 54 60" id="help-invoicing" xmlns="http://www.w3.org/2000/svg"><path d="M0 56.999v-51A5.994 5.994 0 016.002 0h41.994A5.996 5.996 0 0154 6v50.999c0 2.23-2.347 3.68-4.342 2.683l-4.624-2.312-4.692 2.312a3 3 0 01-2.683 0l-4.65-2.325-4.667 2.325a3 3 0 01-2.683 0l-4.65-2.324-4.662 2.324a3 3 0 01-2.684 0l-4.654-2.325-4.666 2.325C2.347 60.679 0 59.229 0 56.999zm47.996-51H6v46.142l1.658-.825a3 3 0 012.683 0l4.689 2.34 4.627-2.34a3 3 0 012.684 0L27 53.65l4.659-2.335a3 3 0 012.683 0l4.703 2.349 4.613-2.35a3 3 0 012.684 0l1.673.837L47.996 6zM27 39c0-1.657 1.332-3 3-3h9c1.657 0 3 1.332 3 3 0 1.657-1.331 3-3 3h-9c-1.657 0-3-1.331-3-3zM12 27a3 3 0 012.987-3h24.027A2.986 2.986 0 0142 27a3 3 0 01-2.986 3H14.986A2.986 2.986 0 0112 27zm0-12a3 3 0 012.987-3h24.027A2.986 2.986 0 0142 15a3 3 0 01-2.986 3H14.986A2.986 2.986 0 0112 15z" fill-rule="evenodd"/></symbol><symbol viewBox="0 0 60 56" id="help-pipelines" xmlns="http://www.w3.org/2000/svg"><path d="M25.826 27.982c.648.516 1.174 1.601 1.174 2.436v17.235l6-3.247V30.4c0-.82.52-1.898 1.174-2.42L46.712 18H13.288l12.538 9.982zM54 12V5.994L6 6v6h48zM39 45.008c0 1.653-1.181 3.63-2.637 4.416L26.28 54.871C23.363 56.446 21 55.05 21 51.73V31.8L2.354 16.883C1.054 15.843 0 13.647 0 11.987V5.994C0 2.684 2.695 0 6 0h48c3.314 0 6 2.695 6 5.994v5.993c0 1.664-1.05 3.853-2.354 4.896L39 31.8v13.208z" fill-rule="evenodd"/></symbol><symbol viewBox="0 0 59 59" id="help-search" xmlns="http://www.w3.org/2000/svg"><path d="M57.481 53.178a3.028 3.028 0 01-.01 4.294 3.034 3.034 0 01-4.293.01L36.66 40.962a22.72 22.72 0 01-13.84 4.676C10.216 45.639 0 35.422 0 22.819 0 10.217 10.217 0 22.82 0c12.602 0 22.819 10.217 22.819 22.82a22.72 22.72 0 01-4.676 13.84l16.518 16.518zM22.82 39.554c9.242 0 16.735-7.493 16.735-16.735 0-9.242-7.493-16.734-16.735-16.734-9.242 0-16.734 7.492-16.734 16.734s7.492 16.735 16.734 16.735z" fill-rule="evenodd"/></symbol><symbol viewBox="0 0 23 24" id="hero-1" xmlns="http://www.w3.org/2000/svg"><path d="M14.858 22.688a1.143 1.143 0 01-1.036 1.24c-.787.07-1.574.072-2.393.072-.595 0-1.185-.019-1.764-.056a1.143 1.143 0 11.147-2.281c.53.034 1.07.051 1.617.051.752 0 1.47.002 2.19-.062a1.143 1.143 0 011.24 1.036zm-7.777-5.932c1.324.253 2.829.387 4.348.387 1.554 0 3.007-.116 4.354-.38a1.143 1.143 0 01.44 2.243c-1.495.293-3.095.423-4.794.423-1.66 0-3.308-.147-4.776-.427a1.143 1.143 0 01.428-2.246zm13.372-5.045a1.143 1.143 0 01-.531 1.527c-2.111 1.021-5.174 1.62-8.493 1.62-3.288 0-6.38-.61-8.49-1.614a1.143 1.143 0 11.983-2.063c1.774.844 4.536 1.39 7.507 1.39 2.997 0 5.726-.534 7.497-1.39a1.143 1.143 0 011.527.53zM11.429 0c6.265 0 11.428 2.008 11.428 5.143s-5.163 5.143-11.428 5.143C5.163 10.286 0 8.278 0 5.143S5.163 0 11.429 0zm0 2.286c-5.096 0-9.143 1.574-9.143 2.857C2.286 6.426 6.333 8 11.429 8c5.095 0 9.142-1.574 9.142-2.857 0-1.283-4.047-2.857-9.142-2.857z"/></symbol><symbol viewBox="0 0 40 42" id="hero-2" xmlns="http://www.w3.org/2000/svg"><path d="M36 10c0-1.105-.893-2-1.99-2A2.01 2.01 0 0132 10c-1.105 0-2-.887-2-2h-4c0 1.105-.888 2-2 2-1.105 0-2-.887-2-2h-4c0 1.105-.888 2-2 2-1.105 0-2-.887-2-2h-4c0 1.105-.888 2-2 2-1.105 0-2-.887-2-2-1.109 0-2 .894-2 2v4h32v-4zM4 18v18c0 1.105.893 2 1.99 2h28.02c1.099 0 1.99-.894 1.99-2V18H4zm36-8v26c0 3.313-2.68 6-5.99 6H5.99A5.996 5.996 0 010 36V10c0-3.313 2.68-6 5.99-6L6 2c0-1.105.888-2 2-2 1.105 0 2 .887 2 2v2h4V2c0-1.105.888-2 2-2 1.105 0 2 .887 2 2v2h4V2c0-1.105.888-2 2-2 1.105 0 2 .887 2 2v2h4V2c0-1.105.888-2 2-2 1.105 0 2 .887 2 2v2c3.319 0 6 2.688 6 6z" fill-rule="evenodd"/></symbol><symbol viewBox="0 0 30 30" id="hero-3" xmlns="http://www.w3.org/2000/svg"><path d="M3 22.486v2.034c.525.32 4.72 2.476 12 2.476s11.476-2.153 12-2.473v-2.037c0-2.574-5.71-4.576-6.118-4.73C19.605 20.05 17.717 21.75 15 21.75c-2.715 0-4.603-1.7-5.88-3.99-.403.151-6.12 2.146-6.12 4.726zM6.75 7.768C6.75 3.478 10.444 0 15 0s8.25 3.478 8.25 7.768c0 1.82-.318 4.614-1.18 7.226 3.005 1.148 7.93 3.007 7.93 7.492v3.01C30 27.154 23.527 30 15 30c-8.527 0-15-2.852-15-4.504v-3.01c0-4.5 4.928-6.342 7.93-7.488-.862-2.614-1.18-5.409-1.18-7.23zM15 18.75c2.954 0 5.25-5.426 5.25-10.982C20.25 5.176 17.939 3 15 3S9.75 5.176 9.75 7.768c0 5.556 2.296 10.982 5.25 10.982z" fill-rule="evenodd"/></symbol><symbol viewBox="0 0 35 36" id="hero-4" xmlns="http://www.w3.org/2000/svg"><path d="M34.435 24.26c0 6.484-5.256 11.74-11.74 11.74a11.726 11.726 0 01-9.627-5.02l-2.107-1.054-2.433 1.213c-.44.22-.959.22-1.4 0L4.7 29.926l-2.435 1.213A1.565 1.565 0 010 29.74V3.13C0 1.4 1.398 0 3.132 0h21.91a3.128 3.128 0 013.132 3.13v10.746a11.738 11.738 0 016.26 10.385zM25.042 3.13H3.13v24.074l.866-.43c.44-.22.959-.22 1.4 0l2.446 1.22 2.414-1.22c.294-.147.622-.196.94-.147a11.792 11.792 0 01-.005-4.714H7.827a1.562 1.562 0 01-1.566-1.565c0-.865.705-1.565 1.566-1.565h4.484a11.738 11.738 0 0110.385-6.261c.805 0 1.591.08 2.351.235l-.005-9.627zM6.261 14.087a1.56 1.56 0 011.564-1.565h3.133a1.56 1.56 0 011.564 1.565 1.56 1.56 0 01-1.564 1.565H7.825a1.56 1.56 0 01-1.564-1.565zm0-6.26c0-.865.703-1.566 1.558-1.566h12.536c.86 0 1.558.695 1.558 1.565 0 .865-.703 1.565-1.558 1.565H7.819c-.86 0-1.558-.694-1.558-1.565zM22.696 32.87a8.609 8.609 0 100-17.218 8.609 8.609 0 000 17.218zm-2.672-3.59l-3.13-3.13a1.565 1.565 0 112.213-2.213l2.042 2.042 5.136-5.173a1.565 1.565 0 112.213 2.214l-6.26 6.26a1.565 1.565 0 01-2.214 0z" fill-rule="evenodd"/></symbol><symbol viewBox="0 0 19 26" id="hero-5" xmlns="http://www.w3.org/2000/svg"><path d="M12.788 3.247c-1.65.629-3.11.722-3.633.722-.523 0-1.982-.093-3.632-.722.123.323.452 1.143.743 1.866h5.779c.291-.723.62-1.543.743-1.866zm3.239 4.728c0 .923-.436 1.743-1.114 2.267 1.906 2.026 3.403 4.633 3.403 6.891 0 4.902-3.876 8.014-9.158 8.014C3.877 25.147 0 22.035 0 17.133c0-2.258 1.497-4.865 3.404-6.892a2.861 2.861 0 01.511-4.848L2.37 1.533C1.973.54 2.982-.29 3.972.096c1.55.606 3.301 1.295 3.977 1.452.556.13.848.13 1.206.13.359 0 .65 0 1.207-.13.676-.157 2.426-.846 3.977-1.452.99-.387 1.998.444 1.602 1.435l-1.545 3.86a2.865 2.865 0 011.63 2.583zM5.182 11.706C3.39 13.491 2.29 15.48 2.29 17.133c0 3.513 2.754 5.724 6.868 5.724 4.114 0 6.869-2.21 6.869-5.724 0-1.654-1.1-3.642-2.893-5.427-.31-.31-.633-.6-.955-.869H6.138c-.322.268-.645.56-.956.87zm-.603-3.73c0 .314.258.572.574.572h8.01a.572.572 0 100-1.145h-8.01a.572.572 0 00-.574.572zm5.724 5.15a1.145 1.145 0 110 2.29H9.158a1.145 1.145 0 000 2.29h1.145a1.145 1.145 0 110 2.29H9.158a3.434 3.434 0 010-6.87h1.145z" fill-rule="evenodd"/></symbol><symbol viewBox="0 0 24 19" id="i-email" xmlns="http://www.w3.org/2000/svg"><path d="M21.375 0h-19A2.382 2.382 0 000 2.375v14.25A2.382 2.382 0 002.375 19h19a2.382 2.382 0 002.375-2.375V2.375A2.382 2.382 0 0021.375 0zm0 4.75l-9.5 5.938-9.5-5.938V2.375l9.5 5.938 9.5-5.938V4.75z"/></symbol><symbol viewBox="0 0 11 23" id="i-facebook" xmlns="http://www.w3.org/2000/svg"><path d="M2.398 4.586v3.09H.123v3.776h2.275v11.225h4.675V11.453h3.137s.294-1.811.436-3.792H7.09V5.08c0-.386.51-.906 1.013-.906h2.547V.241H7.188c-4.905 0-4.79 3.78-4.79 4.345z" fill-rule="evenodd"/></symbol><symbol viewBox="0 0 22 21" id="i-linkdin" xmlns="http://www.w3.org/2000/svg"><path d="M.845 7.139h4.438v13.328H.845zm19.004 1.218c-.933-1.018-2.166-1.527-3.699-1.527a5.33 5.33 0 00-1.54.208 3.494 3.494 0 00-1.17.585 5.738 5.738 0 00-.76.7 5.772 5.772 0 00-.524.711V7.14H7.73l.014.646c.009.43.013 1.757.013 3.98 0 2.224-.009 5.124-.027 8.702h4.425V13.03c0-.458.049-.82.148-1.09.188-.457.472-.84.854-1.15.381-.31.854-.464 1.419-.464.77 0 1.338.267 1.701.8.363.534.545 1.271.545 2.213v7.127h4.424v-7.638c0-1.964-.466-3.454-1.398-4.471zM3.091.724c-.744 0-1.347.218-1.808.652C.82 1.811.59 2.36.59 3.024c0 .654.224 1.201.672 1.64.449.44 1.04.66 1.776.66h.026c.754 0 1.361-.22 1.823-.66.462-.439.688-.986.679-1.64-.009-.664-.238-1.213-.686-1.648C4.432.941 3.836.724 3.091.724z" fill-rule="evenodd"/></symbol><symbol viewBox="0 0 22 22" id="i-share" xmlns="http://www.w3.org/2000/svg"><path d="M20.29 9.968l-4.13 4.128a5.837 5.837 0 01-8.257 0 5.833 5.833 0 01-.886-1.177L8.936 11c.09-.092.204-.145.311-.207.133.453.364.883.72 1.24a2.922 2.922 0 004.13 0l4.128-4.13a2.922 2.922 0 000-4.129 2.923 2.923 0 00-4.129 0l-1.468 1.47a7.325 7.325 0 00-3.724-.405l3.128-3.129a5.84 5.84 0 018.258 8.258zM9.373 16.757l-1.47 1.47a2.924 2.924 0 01-4.129 0 2.924 2.924 0 010-4.13l4.13-4.13a2.921 2.921 0 014.128 0 2.9 2.9 0 01.721 1.238c.109-.063.22-.114.311-.205l1.919-1.918a5.738 5.738 0 00-.887-1.178 5.839 5.839 0 00-8.257 0L1.71 12.032a5.84 5.84 0 008.258 8.258l3.13-3.129a7.321 7.321 0 01-3.725-.404z"/></symbol><symbol viewBox="0 0 21 17" id="i-twitter" xmlns="http://www.w3.org/2000/svg"><path d="M20.799 2.368c-.76.334-1.576.56-2.433.66A4.22 4.22 0 0020.228.71c-.82.48-1.727.829-2.693 1.018A4.247 4.247 0 0014.442.403c-2.34 0-4.238 1.878-4.238 4.193 0 .329.038.65.11.956A12.074 12.074 0 011.58 1.17a4.13 4.13 0 00-.573 2.108 4.18 4.18 0 001.884 3.49 4.272 4.272 0 01-1.92-.526v.052c0 2.032 1.462 3.727 3.4 4.113-.355.094-.73.147-1.117.147-.274 0-.538-.027-.798-.078a4.235 4.235 0 003.958 2.913 8.56 8.56 0 01-5.263 1.792 9.1 9.1 0 01-1.01-.057 12.07 12.07 0 006.495 1.887c7.796 0 12.057-6.39 12.057-11.933l-.014-.543a8.415 8.415 0 002.12-2.167z" fill-rule="evenodd"/></symbol><symbol viewBox="0 0 44 43" id="leads" xmlns="http://www.w3.org/2000/svg"><path d="M27.5 0C36.613 0 44 7.387 44 16.5c0 7.6-5.138 14-12.13 15.915C29.464 38.553 23.49 42.9 16.5 42.9 7.387 42.9 0 35.513 0 26.4c0-7.6 5.138-14 12.13-15.915C14.536 4.347 20.51 0 27.5 0zM33 26.4c0 .3-.008.597-.024.893A12.1 12.1 0 0039.6 16.5c0-6.683-5.417-12.1-12.1-12.1-4.257 0-8 2.198-10.157 5.521C26.064 10.361 33 17.57 33 26.4zM16.5 38.5c6.683 0 12.1-5.417 12.1-12.1s-5.417-12.1-12.1-12.1S4.4 19.717 4.4 26.4s5.417 12.1 12.1 12.1zm2.2-9.9c1.216 0 2.2.977 2.2 2.2 0 1.215-.975 2.2-2.198 2.2h-4.404a2.194 2.194 0 01-2.198-2.2c0-1.215.975-2.2 2.198-2.2l.002-2.2c-1.216 0-2.2-.977-2.2-2.2 0-1.215.988-2.2 2.198-2.2a2.203 2.203 0 012.202-2.2c1.215 0 2.2.992 2.2 2.21v6.59z" fill-rule="evenodd"/></symbol><symbol viewBox="0 0 16 20" id="location" xmlns="http://www.w3.org/2000/svg"><path d="M8 20c-.784 0-2.785-1.617-4.46-3.605C1.191 13.606 0 10.782 0 8a8 8 0 1116 0c0 2.78-1.191 5.6-3.541 8.394C10.785 18.382 8.784 20 8 20zM8 2a6.007 6.007 0 00-6 6 11.374 11.374 0 003.071 7.105 17.95 17.95 0 002.254 2.248c.117.1.326.263.657.506l.018.015s.424-.311.676-.52a17.95 17.95 0 002.254-2.248A11.374 11.374 0 0014 8a6.007 6.007 0 00-6-6zm0 9a3 3 0 113-3 3 3 0 01-3 3zm0-4a1 1 0 101 1 1 1 0 00-1-1z"/></symbol><symbol viewBox="0 0 20 20" id="login" xmlns="http://www.w3.org/2000/svg"><path d="M12.001 11.5a1 1 0 010 2H11v1h1.001a1 1 0 010 2H10c-.552 0-1-.447-1-.996V9.83a3.001 3.001 0 112 0v1.67h1.001zM20 10c0 5.523-4.477 10-10 10S0 15.523 0 10 4.477 0 10 0s10 4.477 10 10zM2 10a8 8 0 1016 0 8 8 0 00-16 0zm9-3a1 1 0 10-2 0 1 1 0 002 0z" fill-rule="evenodd" opacity=".4"/></symbol><symbol viewBox="0 0 145 36" id="logo" xmlns="http://www.w3.org/2000/svg"><g fill-rule="evenodd"><path d="M18 0c9.941 0 18 8.059 18 18s-8.059 18-18 18S0 27.941 0 18 8.059 0 18 0zm0 5.04C10.854 5.04 5.04 10.854 5.04 18c0 7.146 5.814 12.96 12.96 12.96 7.146 0 12.96-5.814 12.96-12.96 0-7.146-5.814-12.96-12.96-12.96zm0 23.4c-5.757 0-10.44-4.683-10.44-10.44S12.243 7.56 18 7.56 28.44 12.243 28.44 18 23.757 28.44 18 28.44zm5.63-16.055l-7.356 3.683a.46.46 0 00-.206.206l-3.683 7.357a.46.46 0 00.616.616l7.357-3.683a.46.46 0 00.206-.206l3.683-7.357a.46.46 0 00-.616-.616zm-5.314 6.85a.92.92 0 010-1.837.92.92 0 010 1.836z"/><text font-family="Muli-Black, Muli" font-size="24" font-weight="700"><tspan x="48.44" y="26">tapdesk</tspan></text></g></symbol><symbol viewBox="0 0 26 36" id="money" xmlns="http://www.w3.org/2000/svg"><path d="M18.073 4.938c-2.306.879-4.346 1.01-5.077 1.009-.731 0-2.77-.13-5.077-1.01.173.452.631 1.599 1.038 2.61h8.078c.407-1.011.865-2.158 1.038-2.61zm4.527 6.609c0 1.29-.61 2.436-1.557 3.168 2.665 2.832 4.757 6.476 4.757 9.632 0 6.85-5.418 11.2-12.8 11.2-7.382 0-12.8-4.35-12.8-11.2 0-3.157 2.093-6.801 4.758-9.634a3.999 3.999 0 01.715-6.775l-2.16-5.397C2.957 1.156 4.367-.005 5.75.535c2.168.847 4.614 1.81 5.559 2.03a6.237 6.237 0 001.686.182c.5 0 .909 0 1.686-.182.945-.22 3.391-1.183 5.559-2.03 1.383-.54 2.793.62 2.239 2.006l-2.16 5.395a4.004 4.004 0 012.28 3.61zM7.443 16.76C4.936 19.256 3.4 22.035 3.4 24.347c0 4.91 3.85 8 9.6 8s9.6-3.09 9.6-8c0-2.312-1.536-5.091-4.043-7.586a20.29 20.29 0 00-1.335-1.214H8.778c-.45.374-.9.782-1.335 1.214zM6.6 11.547c0 .439.36.8.802.8h11.196a.8.8 0 100-1.6H7.402a.8.8 0 00-.802.8zm8 7.2a1.6 1.6 0 110 3.2H13a1.6 1.6 0 100 3.2h1.6a1.6 1.6 0 110 3.2H13a4.8 4.8 0 110-9.6h1.6z" fill-rule="evenodd"/></symbol><symbol viewBox="0 0 40 42" id="pipelines" xmlns="http://www.w3.org/2000/svg"><path d="M40 9c0 5.486-9.035 9-20 9S0 14.486 0 9c0-5.486 9.035-9 20-9s20 3.514 20 9zM20 26c-5.753 0-11.164-1.065-14.856-2.822a2 2 0 011.72-3.612C9.967 21.044 14.801 22 20 22c5.246 0 10.022-.935 13.12-2.434a2 2 0 111.743 3.6C31.169 24.955 25.808 26 20 26zm0 8c-2.905 0-5.789-.257-8.358-.747a2 2 0 01.75-3.93c2.317.443 4.95.677 7.608.677 2.72 0 5.263-.203 7.62-.665a2 2 0 01.77 3.926c-2.616.512-5.416.739-8.39.739zm0 8a48.14 48.14 0 01-3.086-.098 2 2 0 11.256-3.992c.929.06 1.874.09 2.83.09 1.316 0 2.574.003 3.832-.11a2 2 0 01.356 3.985C22.812 41.998 21.434 42 20 42zM4 9c0 2.246 7.083 5 16 5s16-2.754 16-5-7.083-5-16-5S4 6.754 4 9z"/></symbol><symbol viewBox="0 0 69 80" id="play" xmlns="http://www.w3.org/2000/svg"><path d="M61.952 27.863a2.442 2.442 0 00-3.398.802c-.72 1.177-.368 2.724.788 3.458 2.69 1.707 4.296 4.652 4.296 7.877 0 3.226-1.606 6.171-4.296 7.878L18.884 73.547c-2.854 1.81-6.314 1.9-9.255.24-2.94-1.661-4.696-4.696-4.696-8.118V14.332c0-3.423 1.755-6.457 4.696-8.118 2.94-1.66 6.4-1.57 9.255.24l23.552 14.942a2.443 2.443 0 003.398-.801c.721-1.177.368-2.725-.788-3.458L21.494 2.195c-4.397-2.79-9.727-2.928-14.258-.37C2.705 4.384 0 9.06 0 14.332v51.336c0 5.273 2.705 9.948 7.236 12.507C9.394 79.393 11.733 80 14.066 80c2.566 0 5.126-.734 7.428-2.195l40.458-25.668c4.145-2.63 6.62-7.167 6.62-12.137 0-4.97-2.475-9.507-6.62-12.137z" fill-rule="evenodd"/></symbol><symbol viewBox="0 0 27 33" id="play-1" xmlns="http://www.w3.org/2000/svg"><path d="M26.083 18.185L3.577 32.565A2 2 0 01.5 30.88V2.12A2 2 0 013.577.435l22.506 14.38a2 2 0 010 3.37z" fill-rule="evenodd"/></symbol><symbol viewBox="0 0 48 36" id="request" xmlns="http://www.w3.org/2000/svg"><path d="M30 20.83l-2.585 2.584a2 2 0 01-2.82.008l-3.97-3.93a2 2 0 012.813-2.843l2.563 2.576L41.18 4H2a2 2 0 010-4h42.004A3.995 3.995 0 0148 4.002v27.996A3.998 3.998 0 0144.003 36H13.999a2 2 0 010-4h27.172l-11.17-11.17zM44.003 6.825L32.828 18l11.173 11.171.002-22.346zM4.003 12c0-1.105.896-2 2.005-2h9.988c1.108 0 2.006.888 2.006 2 0 1.105-.897 2-2.006 2H6.008a1.998 1.998 0 01-2.006-2zm4 12c0-1.105.887-2 1.999-2h6c1.104 0 2 .888 2 2 0 1.105-.888 2-2 2h-6c-1.105 0-2-.888-2-2z" fill-rule="evenodd" opacity=".4"/></symbol><symbol viewBox="0 0 240.823 240.823" id="right-arrow" xmlns="http://www.w3.org/2000/svg"><path d="M183.189 111.816L74.892 3.555c-4.752-4.74-12.451-4.74-17.215 0-4.752 4.74-4.752 12.439 0 17.179l99.707 99.671-99.695 99.671c-4.752 4.74-4.752 12.439 0 17.191 4.752 4.74 12.463 4.74 17.215 0l108.297-108.261c4.68-4.691 4.68-12.511-.012-17.19z"/></symbol><symbol viewBox="0 0 44 42" id="robot" xmlns="http://www.w3.org/2000/svg"><path d="M24 38v-5h-4v5h4zm8 0v-2.998A1.996 1.996 0 0030.01 33H28v5h4zm-16 0v-5h-2.01c-1.099 0-1.99.894-1.99 2.002V38h4zm23.997 0V9.99C39.997 9.997 4 10 4 10v28.01c0-.007 4-.01 4-.01v-2.998C8 31.688 10.679 29 13.99 29h16.02c3.31 0 5.99 2.689 5.99 6.002V38h3.997zM18 4c0-2.21 1.795-4 4-4 2.21 0 4 1.795 4 4v2h13.6C42.03 6 44 7.785 44 9.99v28.02c0 2.204-1.976 3.99-4.4 3.99H4.4C1.97 42 0 40.215 0 38.01V9.99C0 7.786 1.976 6 4.4 6H18V4zm-4 22a6 6 0 110-12 6 6 0 010 12zm16 0a6 6 0 110-12 6 6 0 010 12zm-16-4a2 2 0 100-4 2 2 0 000 4zm16 0a2 2 0 100-4 2 2 0 000 4z" fill-rule="evenodd"/></symbol><symbol viewBox="0 0 478.703 478.703" id="setting" xmlns="http://www.w3.org/2000/svg"><path d="M454.2 189.101l-33.6-5.7c-3.5-11.3-8-22.2-13.5-32.6l19.8-27.7c8.4-11.8 7.1-27.9-3.2-38.1l-29.8-29.8c-5.6-5.6-13-8.7-20.9-8.7-6.2 0-12.1 1.9-17.1 5.5l-27.8 19.8c-10.8-5.7-22.1-10.4-33.8-13.9l-5.6-33.2a29.54 29.54 0 00-29.2-24.7h-42.1c-14.5 0-26.8 10.4-29.2 24.7l-5.8 34c-11.2 3.5-22.1 8.1-32.5 13.7l-27.5-19.8c-5-3.6-11-5.5-17.2-5.5-7.9 0-15.4 3.1-20.9 8.7l-29.9 29.8c-10.2 10.2-11.6 26.3-3.2 38.1l20 28.1c-5.5 10.5-9.9 21.4-13.3 32.7l-33.2 5.6a29.54 29.54 0 00-24.7 29.2v42.1c0 14.5 10.4 26.8 24.7 29.2l34 5.8c3.5 11.2 8.1 22.1 13.7 32.5l-19.7 27.4c-8.4 11.8-7.1 27.9 3.2 38.1l29.8 29.8c5.6 5.6 13 8.7 20.9 8.7 6.2 0 12.1-1.9 17.1-5.5l28.1-20c10.1 5.3 20.7 9.6 31.6 13l5.6 33.6a29.54 29.54 0 0029.2 24.7h42.2c14.5 0 26.8-10.4 29.2-24.7l5.7-33.6c11.3-3.5 22.2-8 32.6-13.5l27.7 19.8c5 3.6 11 5.5 17.2 5.5 7.9 0 15.3-3.1 20.9-8.7l29.8-29.8c10.2-10.2 11.6-26.3 3.2-38.1l-19.8-27.8c5.5-10.5 10.1-21.4 13.5-32.6l33.6-5.6a29.54 29.54 0 0024.7-29.2v-42.1c.2-14.5-10.2-26.8-24.5-29.2zm-2.3 71.3c0 1.3-.9 2.4-2.2 2.6l-42 7c-5.3.9-9.5 4.8-10.8 9.9-3.8 14.7-9.6 28.8-17.4 41.9-2.7 4.6-2.5 10.3.6 14.7l24.7 34.8c.7 1 .6 2.5-.3 3.4l-29.8 29.8c-.7.7-1.4.8-1.9.8-.6 0-1.1-.2-1.5-.5l-34.7-24.7c-4.3-3.1-10.1-3.3-14.7-.6-13.1 7.8-27.2 13.6-41.9 17.4-5.2 1.3-9.1 5.6-9.9 10.8l-7.1 42c-.2 1.3-1.3 2.2-2.6 2.2h-42.1c-1.3 0-2.4-.9-2.6-2.2l-7-42c-.9-5.3-4.8-9.5-9.9-10.8-14.3-3.7-28.1-9.4-41-16.8-2.1-1.2-4.5-1.8-6.8-1.8-2.7 0-5.5.8-7.8 2.5l-35 24.9c-.5.3-1 .5-1.5.5-.4 0-1.2-.1-1.9-.8l-29.8-29.8c-.9-.9-1-2.3-.3-3.4l24.6-34.5c3.1-4.4 3.3-10.2.6-14.8-7.8-13-13.8-27.1-17.6-41.8-1.4-5.1-5.6-9-10.8-9.9l-42.3-7.2c-1.3-.2-2.2-1.3-2.2-2.6v-42.1c0-1.3.9-2.4 2.2-2.6l41.7-7c5.3-.9 9.6-4.8 10.9-10 3.7-14.7 9.4-28.9 17.1-42 2.7-4.6 2.4-10.3-.7-14.6l-24.9-35c-.7-1-.6-2.5.3-3.4l29.8-29.8c.7-.7 1.4-.8 1.9-.8.6 0 1.1.2 1.5.5l34.5 24.6c4.4 3.1 10.2 3.3 14.8.6 13-7.8 27.1-13.8 41.8-17.6 5.1-1.4 9-5.6 9.9-10.8l7.2-42.3c.2-1.3 1.3-2.2 2.6-2.2h42.1c1.3 0 2.4.9 2.6 2.2l7 41.7c.9 5.3 4.8 9.6 10 10.9 15.1 3.8 29.5 9.7 42.9 17.6 4.6 2.7 10.3 2.5 14.7-.6l34.5-24.8c.5-.3 1-.5 1.5-.5.4 0 1.2.1 1.9.8l29.8 29.8c.9.9 1 2.3.3 3.4l-24.7 34.7c-3.1 4.3-3.3 10.1-.6 14.7 7.8 13.1 13.6 27.2 17.4 41.9 1.3 5.2 5.6 9.1 10.8 9.9l42 7.1c1.3.2 2.2 1.3 2.2 2.6v42.1h-.1z"/><path d="M239.4 136.001c-57 0-103.3 46.3-103.3 103.3s46.3 103.3 103.3 103.3 103.3-46.3 103.3-103.3-46.3-103.3-103.3-103.3zm0 179.6c-42.1 0-76.3-34.2-76.3-76.3s34.2-76.3 76.3-76.3 76.3 34.2 76.3 76.3-34.2 76.3-76.3 76.3z"/></symbol><symbol viewBox="0 0 16 20" id="signup" xmlns="http://www.w3.org/2000/svg"><path d="M6 13.5a2 2 0 113 1.732v.769A.997.997 0 018 17c-.552 0-1-.443-1-1v-.768A2 2 0 016 13.5zM2 6a6 6 0 1112 0v2.5a2 2 0 012 2.003v7.494A2.001 2.001 0 0113.998 20H2.002A2 2 0 010 17.997v-7.494C0 9.398.893 8.501 2 8.5V6zm2 2.5h8V6a4 4 0 10-8 0v2.5zm-2 2V18h12v-7.5H2z" fill-rule="evenodd" opacity=".4"/></symbol><symbol viewBox="0 0 18.095 19" id="time" xmlns="http://www.w3.org/2000/svg"><path d="M15.385 19H2.71A2.715 2.715 0 010 16.285V4.524A2.715 2.715 0 012.71 1.81V.905A.907.907 0 014.523.9v.91h1.81V.9a.905.905 0 011.81 0v.91h1.809V.9a.905.905 0 011.81 0v.91h1.809V.9a.905.905 0 011.81 0v.91A2.718 2.718 0 0118.1 4.524v11.761A2.715 2.715 0 0115.385 19zM1.81 8.143v8.142a.9.9 0 00.9.905h12.675a.9.9 0 00.9-.905V8.143zm.9-4.524a.906.906 0 00-.9.905v1.809h14.475V4.524a.9.9 0 00-.9-.905.907.907 0 01-1.814 0h-1.809a.905.905 0 01-1.81 0H8.143a.905.905 0 01-1.81 0h-1.81a.904.904 0 01-1.809 0z"/></symbol><symbol viewBox="0 0 60 60" id="types-icon-0" xmlns="http://www.w3.org/2000/svg"><path d="M6 44.971v4.07c1.05.64 9.439 4.95 24 4.95s22.951-4.305 24-4.946v-4.074c0-5.148-11.421-9.152-12.235-9.458C39.21 40.098 35.433 43.5 30 43.5c-5.43 0-9.206-3.399-11.76-7.98C17.432 35.823 6 39.813 6 44.971zm7.5-29.435C13.5 6.956 20.887 0 30 0s16.5 6.956 16.5 15.536c0 3.641-.636 9.227-2.36 14.453C50.15 32.284 60 36.002 60 44.97v6.022C60 54.308 47.055 60 30 60S0 54.297 0 50.993V44.97c0-9 9.856-12.684 15.862-14.975C14.137 24.77 13.5 19.18 13.5 15.536zM30 37.5c5.909 0 10.5-10.852 10.5-21.964C40.5 10.353 35.877 6 30 6s-10.5 4.353-10.5 9.536C19.5 26.648 24.091 37.5 30 37.5z" fill-rule="evenodd"/></symbol><symbol viewBox="0 0 60 60" id="types-icon-1" xmlns="http://www.w3.org/2000/svg"><path d="M37.5 0c6.627 0 12 5.288 12 11.811 0 2.483-.45 5.927-1.499 9.241 3.627 1.322 6.444 3.458 8.47 6.287C59.01 30.883 60 34.998 60 38.995a3 3 0 01-1.55 2.626c-1.168.645-3.193 1.563-5.908 2.47a47.857 47.857 0 01-6.172 1.616c1.07 2.348 1.63 4.736 1.63 6.786a3 3 0 01-1.714 2.71c-1.319.626-3.601 1.528-6.621 2.42C34.642 59.108 29.348 60 24 60c-5.348 0-10.642-.892-15.665-2.377-3.02-.892-5.302-1.794-6.622-2.42A3 3 0 010 52.493c0-3.638 1.725-8.287 4.93-11.92 2.01-2.276 4.5-4.096 7.46-5.38-1.325-3.979-1.89-8.2-1.89-11.196 0-7.455 6.044-13.498 13.5-13.498.529 0 1.05.03 1.563.09C26.185 4.638 31.292 0 37.5 0zm-1.893 35.2c2.791 1.217 5.165 2.909 7.112 5.011a41.005 41.005 0 007.924-1.812 38.897 38.897 0 003.257-1.245c-.249-2.246-.971-4.457-2.306-6.321-1.383-1.93-3.362-3.402-6.081-4.306-1.874 2.902-4.49 4.97-8.013 4.97-.296 0-.585-.016-.868-.044a36.57 36.57 0 01-1.025 3.748zm1.893-9.703c2.832 0 6-6.887 6-13.686 0-3.188-2.665-5.812-6-5.812s-6 2.624-6 5.812c0 .325.007.65.021.975A13.485 13.485 0 0137.5 23.997c0 .471-.014.973-.043 1.5h.043zM9.43 44.542c-1.647 1.866-2.732 4.119-3.187 6.051 1.14.435 2.41.869 3.793 1.277C14.543 53.203 19.281 54 24 54c4.719 0 9.457-.797 13.964-2.13 1.38-.408 2.65-.84 3.788-1.275-.458-1.917-1.544-4.165-3.185-6.03-1.443-1.64-3.25-2.964-5.452-3.91-2.115 3.4-5.088 5.84-9.115 5.84-4.03 0-7.005-2.443-9.12-5.848-2.203.942-4.009 2.261-5.45 3.895zM24 40.495c3.733 0 7.5-8.32 7.5-16.498a7.5 7.5 0 00-7.5-7.5 7.5 7.5 0 00-7.5 7.5c0 8.179 3.767 16.498 7.5 16.498z" fill-rule="evenodd"/></symbol><symbol viewBox="0 0 51 62" id="types-icon-2" xmlns="http://www.w3.org/2000/svg"><path d="M8.455 23.955v8.124c1.904-1.773 3.88-3.304 5.636-4.605V14.101a2.83 2.83 0 00-2.818-2.828A2.82 2.82 0 008.455 14.1v2.808a2.815 2.815 0 012.818 2.825v1.395a2.818 2.818 0 01-2.818 2.826zm2.818 32.409H2.775C.715 56.364 0 54.834 0 53.546v-5.082c0-3.605 1.116-6.812 2.818-9.642V14.101c0-4.68 3.785-8.465 8.455-8.465a8.42 8.42 0 015.726 2.24C18.72 4.09 21.534 0 25.657 0c4.05 0 6.7 3.944 8.3 7.674a8.416 8.416 0 015.498-2.038c4.669 0 8.454 3.785 8.454 8.465v24.721c1.702 2.83 2.818 6.037 2.818 9.642v5.082c0 1.288-.715 2.818-2.775 2.818h-8.497A5.64 5.64 0 0133.818 62a5.64 5.64 0 01-5.636-5.636h-5.637A5.64 5.64 0 0116.91 62a5.64 5.64 0 01-5.636-5.636zm31-39.455v-2.808a2.82 2.82 0 00-2.818-2.828 2.83 2.83 0 00-2.819 2.828v13.373c1.756 1.3 3.732 2.832 5.637 4.605v-8.124a2.818 2.818 0 01-2.818-2.826v-1.395c0-1.56 1.25-2.825 2.818-2.825zM19.727 50.727H31V24.04c-.2-.111-.423-.228-.669-.346a11.246 11.246 0 00-4.899-1.14c-1.771 0-3.432.424-4.929 1.133-.29.138-.549.273-.776.4v26.64zm5.705-33.81c1.9 0 3.695.323 5.366.89-.24-1.666-.629-3.776-.782-4.331-.386-1.395-.87-2.785-1.442-4.038-.656-1.435-1.37-2.556-2.051-3.239-.448-.448-.686-.563-.866-.563-.208 0-.504.14-1.01.63-.733.71-1.503 1.857-2.22 3.316a28.562 28.562 0 00-1.595 4.067c-.173.556-.605 2.574-.874 4.184a16.836 16.836 0 015.474-.915zm11.204 33.81l8.455.003v-2.266c0-4.599-2.714-8.903-7.906-13.374a12.188 12.188 0 00-.549-.426v16.063zm-22.545 0V34.664s-.372.273-.55.426c-5.19 4.47-7.905 8.775-7.905 13.374v2.266l8.455-.003z" fill-rule="evenodd"/></symbol></svg>